SplineFontDB: 3.0
FontName: humanitarian-webfont
FullName: humanitarian-webfont
FamilyName: humanitarian-webfont
Weight: Regular
Copyright: SIL- Open Font License
UComments: "Contact: legoupil@unhcr.org+AAoA-The font code are entirely in the private corporate use" 
Version: 1.0
ItalicAngle: 0
UnderlinePosition: 0
UnderlineWidth: 0
Ascent: 878
Descent: 146
LayerCount: 2
Layer: 0 1 "Back"  1
Layer: 1 1 "Fore"  0
XUID: [1021 880 1187802657 659293]
FSType: 8
OS2Version: 0
OS2_WeightWidthSlopeOnly: 0
OS2_UseTypoMetrics: 0
CreationTime: 1365569068
ModificationTime: 1401609444
PfmFamily: 17
TTFWeight: 400
TTFWidth: 5
LineGap: 92
VLineGap: 92
Panose: 2 0 5 3 0 0 0 0 0 0
OS2TypoAscent: 0
OS2TypoAOffset: 1
OS2TypoDescent: 0
OS2TypoDOffset: 1
OS2TypoLinegap: 92
OS2WinAscent: 0
OS2WinAOffset: 1
OS2WinDescent: 0
OS2WinDOffset: 1
HheadAscent: 0
HheadAOffset: 1
HheadDescent: 0
HheadDOffset: 1
OS2Vendor: 'PfEd'
MarkAttachClasses: 1
DEI: 91125
LangName: 1033 
Encoding: Custom
UnicodeInterp: none
NameList: Adobe Glyph List
DisplaySize: -72
AntiAlias: 1
FitToEm: 1
WinInfo: 492 12 7
BeginPrivate: 0
EndPrivate
TeXData: 1 0 0 346030 173015 115343 0 1048576 115343 783286 444596 497025 792723 393216 433062 380633 303038 157286 324010 404750 52429 2506097 1059062 262144
BeginChars: 871 865

StartChar: uniE000
Encoding: 5 57344 0
Width: 285
Flags: W
LayerCount: 2
Fore
SplineSet
0 0 m 0,0,-1
EndSplineSet
Validated: 1
EndChar

StartChar: uniF000
Encoding: 6 61440 1
Width: 1024
Flags: W
LayerCount: 2
Fore
SplineSet
971 771 m 0,0,1
 971 751 971 751 946 727 c 2,2,-1
 585 366 l 1,3,-1
 585 -73 l 1,4,-1
 768 -73 l 2,5,6
 783 -73 783 -73 794 -84 c 0,7,8
 805 -95 805 -95 805 -110 c 0,9,10
 805 -125 805 -125 794 -135 c 0,11,12
 783 -146 783 -146 768 -146 c 2,13,-1
 256 -146 l 2,14,15
 241 -146 241 -146 230 -135 c 0,16,17
 219 -124 219 -124 219 -110 c 0,18,19
 219 -95 219 -95 230 -84 c 0,20,21
 241 -73 241 -73 256 -73 c 2,22,-1
 439 -73 l 1,23,-1
 439 366 l 1,24,-1
 78 727 l 2,25,26
 53 752 53 752 53 771 c 0,27,28
 53 784 53 784 63 793 c 0,29,30
 73 801 73 801 85 802 c 0,31,32
 96 804 96 804 110 805 c 2,33,-1
 914 805 l 2,34,35
 927 805 927 805 939 802 c 0,36,37
 950 800 950 800 961 793 c 0,38,39
 971 784 971 784 971 771 c 0,0,1
EndSplineSet
Validated: 1
EndChar

StartChar: uniF001
Encoding: 7 61441 2
Width: 877
Flags: W
LayerCount: 2
Fore
SplineSet
878 750 m 2,0,-1
 878 110 l 2,1,2
 878 81 878 81 858 58 c 0,3,4
 839 35 839 35 809 25 c 0,5,6
 779 13 779 13 750 6 c 0,7,8
 720 0 720 0 695 0 c 0,9,10
 669 0 669 0 640 6 c 0,11,12
 610 12 610 12 581 25 c 0,13,14
 551 37 551 37 531 58 c 0,15,16
 512 81 512 81 512 110 c 0,17,18
 512 139 512 139 531 161 c 0,19,20
 550 184 550 184 581 196 c 0,21,22
 611 208 611 208 640 213 c 0,23,24
 670 219 670 219 695 219 c 0,25,26
 755 219 755 219 805 198 c 1,27,-1
 805 504 l 1,28,-1
 366 369 l 1,29,-1
 366 -37 l 2,30,31
 366 -66 366 -66 346 -87 c 0,32,33
 327 -110 327 -110 297 -122 c 0,34,35
 267 -134 267 -134 238 -140 c 0,36,37
 208 -146 208 -146 183 -146 c 0,38,39
 157 -146 157 -146 128 -140 c 0,40,41
 98 -134 98 -134 69 -122 c 0,42,43
 39 -110 39 -110 19 -87 c 0,44,45
 0 -64 0 -64 0 -37 c 0,46,47
 0 -8 0 -8 19 14 c 0,48,49
 38 37 38 37 69 49 c 0,50,51
 99 61 99 61 128 68 c 0,52,53
 158 74 158 74 183 73 c 0,54,55
 243 73 243 73 293 51 c 1,56,-1
 293 603 l 2,57,58
 293 620 293 620 303 636 c 0,59,60
 314 650 314 650 332 656 c 2,61,-1
 807 802 l 2,62,63
 814 804 814 804 823 805 c 0,64,65
 846 805 846 805 862 788 c 0,66,67
 878 773 878 773 878 750 c 2,0,-1
EndSplineSet
Validated: 33
EndChar

StartChar: uniF002
Encoding: 8 61442 3
Width: 950
Flags: W
LayerCount: 2
Fore
SplineSet
658 402 m 0,0,1
 658 507 658 507 583 583 c 0,2,3
 508 658 508 658 402 658 c 0,4,5
 297 658 297 658 221 583 c 0,6,7
 146 508 146 508 146 402 c 0,8,9
 146 297 146 297 221 221 c 0,10,11
 296 146 296 146 402 146 c 0,12,13
 507 146 507 146 583 221 c 0,14,15
 658 297 658 297 658 402 c 0,0,1
951 -73 m 0,16,17
 951 -103 951 -103 929 -125 c 0,18,19
 907 -147 907 -147 878 -146 c 0,20,21
 847 -146 847 -146 826 -125 c 1,22,-1
 631 71 l 1,23,24
 529 0 529 0 402 0 c 0,25,26
 320 0 320 0 246 32 c 0,27,28
 171 64 171 64 118 118 c 0,29,30
 64 172 64 172 32 246 c 0,31,32
 0 321 0 321 0 402 c 0,33,34
 0 484 0 484 32 558 c 0,35,36
 64 633 64 633 118 687 c 0,37,38
 172 741 172 741 246 773 c 0,39,40
 321 805 321 805 402 805 c 0,41,42
 484 805 484 805 558 773 c 0,43,44
 633 741 633 741 687 687 c 0,45,46
 741 633 741 633 773 558 c 0,47,48
 805 483 805 483 805 402 c 0,49,50
 805 276 805 276 734 174 c 1,51,-1
 930 -22 l 2,52,53
 951 -42 951 -42 951 -73 c 0,16,17
EndSplineSet
Validated: 33
EndChar

StartChar: uniF003
Encoding: 9 61443 4
Width: 1024
Flags: W
LayerCount: 2
Fore
SplineSet
951 18 m 2,0,-1
 951 457 l 1,1,2
 933 437 933 437 911 420 c 1,3,4
 757 302 757 302 668 226 c 0,5,6
 639 201 639 201 621 188 c 0,7,8
 603 175 603 175 571 161 c 0,9,10
 540 147 540 147 513 146 c 2,11,-1
 512 146 l 1,12,-1
 511 146 l 2,13,14
 483 146 483 146 453 161 c 0,15,16
 422 175 422 175 403 188 c 0,17,18
 385 201 385 201 356 226 c 0,19,20
 266 302 266 302 113 420 c 1,21,22
 91 437 91 437 73 457 c 1,23,-1
 73 18 l 2,24,25
 73 11 73 11 79 5 c 0,26,27
 84 0 84 0 91 0 c 2,28,-1
 933 0 l 2,29,30
 940 0 940 0 945 5 c 0,31,32
 951 11 951 11 951 18 c 2,0,-1
951 618 m 2,33,-1
 951 625 l 1,34,-1
 951 633 l 1,35,-1
 951 640 l 1,36,-1
 948 647 l 1,37,-1
 946 652 l 1,38,-1
 941 657 l 1,39,-1
 933 658 l 1,40,-1
 91 658 l 2,41,42
 84 658 84 658 79 653 c 0,43,44
 74 648 74 648 73 640 c 0,45,46
 73 544 73 544 157 478 c 0,47,48
 268 391 268 391 386 297 c 0,49,50
 389 294 389 294 407 280 c 0,51,52
 423 266 423 266 432 258 c 0,53,54
 441 251 441 251 458 241 c 0,55,56
 473 231 473 231 486 224 c 0,57,58
 499 219 499 219 511 219 c 2,59,-1
 512 219 l 1,60,-1
 513 219 l 2,61,62
 524 219 524 219 538 224 c 0,63,64
 551 229 551 229 566 241 c 0,65,66
 581 251 581 251 592 258 c 0,67,68
 601 265 601 265 617 280 c 0,69,70
 633 294 633 294 638 297 c 0,71,72
 757 391 757 391 867 478 c 0,73,74
 898 503 898 503 925 544 c 0,75,76
 951 584 951 584 951 618 c 2,33,-1
1024 640 m 2,77,-1
 1024 18 l 2,78,79
 1024 -20 1024 -20 997 -46 c 0,80,81
 970 -73 970 -73 933 -73 c 2,82,-1
 91 -73 l 2,83,84
 53 -73 53 -73 27 -46 c 0,85,86
 0 -19 0 -19 0 18 c 2,87,-1
 0 640 l 2,88,89
 0 678 0 678 27 705 c 0,90,91
 54 732 54 732 91 731 c 2,92,-1
 933 731 l 2,93,94
 971 731 971 731 997 705 c 0,95,96
 1024 678 1024 678 1024 640 c 2,77,-1
EndSplineSet
Validated: 33
EndChar

StartChar: uniF004
Encoding: 10 61444 5
Width: 1024
Flags: W
LayerCount: 2
Fore
SplineSet
512 -73 m 0,0,1
 497 -73 497 -73 486 -62 c 2,2,-1
 130 282 l 1,3,4
 124 286 124 286 115 296 c 0,5,6
 105 306 105 306 83 334 c 0,7,8
 61 362 61 362 44 389 c 0,9,10
 27 418 27 418 13 459 c 0,11,12
 0 500 0 500 0 538 c 0,13,14
 0 664 0 664 73 734 c 0,15,16
 146 805 146 805 273 805 c 0,17,18
 309 805 309 805 345 793 c 0,19,20
 382 781 382 781 414 759 c 0,21,22
 446 739 446 739 469 720 c 0,23,24
 492 702 492 702 512 681 c 1,25,26
 532 701 532 701 555 720 c 0,27,28
 578 738 578 738 610 759 c 0,29,30
 642 779 642 779 679 793 c 0,31,32
 716 805 716 805 751 805 c 0,33,34
 879 805 879 805 951 734 c 0,35,36
 1024 663 1024 663 1024 538 c 0,37,38
 1024 412 1024 412 893 280 c 1,39,-1
 538 -62 l 2,40,41
 527 -73 527 -73 512 -73 c 0,0,1
EndSplineSet
Validated: 1
EndChar

StartChar: uniF005
Encoding: 11 61445 6
Width: 950
Flags: W
LayerCount: 2
Fore
SplineSet
951 508 m 0,0,1
 951 496 951 496 936 480 c 2,2,-1
 728 279 l 1,3,-1
 777 -7 l 2,4,5
 778 -11 778 -11 778 -18 c 0,6,7
 778 -30 778 -30 772 -39 c 0,8,9
 766 -47 766 -47 755 -47 c 0,10,11
 744 -47 744 -47 732 -41 c 2,12,-1
 475 94 l 1,13,-1
 219 -41 l 2,14,15
 207 -48 207 -48 196 -47 c 0,16,17
 184 -47 184 -47 178 -39 c 0,18,19
 172 -31 172 -31 172 -18 c 0,20,21
 172 -15 172 -15 173 -7 c 2,22,-1
 222 279 l 1,23,-1
 14 480 l 1,24,25
 0 495 0 495 0 508 c 0,26,27
 0 530 0 530 32 535 c 2,28,-1
 318 575 l 1,29,-1
 447 836 l 1,30,31
 458 860 458 860 475 859 c 0,32,33
 492 859 492 859 504 836 c 1,34,-1
 632 575 l 1,35,-1
 919 535 l 2,36,37
 951 530 951 530 951 508 c 0,0,1
EndSplineSet
Validated: 33
EndChar

StartChar: uniF006
Encoding: 12 61446 7
Width: 950
Flags: W
LayerCount: 2
Fore
SplineSet
649 304 m 1,0,-1
 824 474 l 1,1,-1
 584 509 l 1,2,-1
 475 727 l 1,3,-1
 368 509 l 1,4,-1
 126 474 l 1,5,-1
 301 304 l 1,6,-1
 259 63 l 1,7,-1
 475 177 l 1,8,-1
 691 63 l 1,9,-1
 649 304 l 1,0,-1
951 508 m 0,10,11
 951 496 951 496 936 480 c 2,12,-1
 728 279 l 1,13,-1
 777 -7 l 2,14,15
 778 -11 778 -11 778 -18 c 0,16,17
 778 -47 778 -47 755 -47 c 0,18,19
 744 -47 744 -47 732 -41 c 2,20,-1
 475 94 l 1,21,-1
 219 -41 l 2,22,23
 207 -48 207 -48 196 -47 c 0,24,25
 184 -47 184 -47 178 -39 c 0,26,27
 172 -31 172 -31 172 -18 c 0,28,29
 172 -15 172 -15 173 -7 c 2,30,-1
 222 279 l 1,31,-1
 14 480 l 1,32,33
 0 495 0 495 0 508 c 0,34,35
 0 530 0 530 32 535 c 2,36,-1
 318 575 l 1,37,-1
 447 836 l 1,38,39
 458 860 458 860 475 859 c 0,40,41
 492 859 492 859 504 836 c 1,42,-1
 632 575 l 1,43,-1
 919 535 l 2,44,45
 951 530 951 530 951 508 c 0,10,11
EndSplineSet
Validated: 33
EndChar

StartChar: uniF007
Encoding: 13 61447 8
Width: 803
Flags: W
LayerCount: 2
Fore
SplineSet
805 75 m 0,0,1
 805 6 805 6 763 -34 c 0,2,3
 721 -74 721 -74 652 -73 c 2,4,-1
 153 -73 l 2,5,6
 83 -73 83 -73 42 -34 c 0,7,8
 0 6 0 6 0 75 c 0,9,10
 0 106 0 106 2 134 c 0,11,12
 4 163 4 163 10 197 c 0,13,14
 16 231 16 231 26 258 c 0,15,16
 35 287 35 287 50 314 c 0,17,18
 65 342 65 342 85 360 c 0,19,20
 105 379 105 379 134 391 c 0,21,22
 163 402 163 402 198 402 c 0,23,24
 203 402 203 402 222 390 c 0,25,26
 240 378 240 378 264 362 c 0,27,28
 288 347 288 347 326 335 c 0,29,30
 364 323 364 323 402 323 c 0,31,32
 440 323 440 323 478 335 c 0,33,34
 516 347 516 347 541 362 c 0,35,36
 565 377 565 377 583 390 c 0,37,38
 601 402 601 402 607 402 c 0,39,40
 642 402 642 402 671 391 c 0,41,42
 700 380 700 380 720 360 c 0,43,44
 740 341 740 341 755 314 c 0,45,46
 770 286 770 286 779 258 c 0,47,48
 788 229 788 229 795 197 c 0,49,50
 801 163 801 163 803 134 c 0,51,52
 805 106 805 106 805 75 c 0,0,1
622 585 m 0,53,54
 622 494 622 494 557 430 c 0,55,56
 492 365 492 365 402 366 c 0,57,58
 311 366 311 366 247 430 c 0,59,60
 182 495 182 495 183 585 c 0,61,62
 183 676 183 676 247 740 c 0,63,64
 312 805 312 805 402 805 c 0,65,66
 493 805 493 805 557 740 c 0,67,68
 622 676 622 676 622 585 c 0,53,54
EndSplineSet
Validated: 33
EndChar

StartChar: uniF008
Encoding: 14 61448 9
Width: 1096
Flags: W
LayerCount: 2
Fore
SplineSet
219 -37 m 2,0,-1
 219 37 l 2,1,2
 219 52 219 52 209 62 c 0,3,4
 198 73 198 73 183 73 c 2,5,-1
 110 73 l 2,6,7
 95 73 95 73 84 62 c 0,8,9
 73 51 73 51 73 37 c 2,10,-1
 73 -37 l 2,11,12
 73 -52 73 -52 84 -62 c 0,13,14
 95 -73 95 -73 110 -73 c 2,15,-1
 183 -73 l 2,16,17
 198 -73 198 -73 209 -62 c 0,18,19
 219 -52 219 -52 219 -37 c 2,0,-1
219 183 m 2,20,-1
 219 256 l 2,21,22
 219 271 219 271 209 282 c 0,23,24
 198 293 198 293 183 293 c 2,25,-1
 110 293 l 2,26,27
 95 293 95 293 84 282 c 0,28,29
 73 271 73 271 73 256 c 2,30,-1
 73 183 l 2,31,32
 73 168 73 168 84 157 c 0,33,34
 95 146 95 146 110 146 c 2,35,-1
 183 146 l 2,36,37
 198 146 198 146 209 157 c 0,38,39
 219 168 219 168 219 183 c 2,20,-1
219 402 m 2,40,-1
 219 475 l 2,41,42
 219 490 219 490 209 501 c 0,43,44
 198 512 198 512 183 512 c 2,45,-1
 110 512 l 2,46,47
 95 512 95 512 84 501 c 0,48,49
 73 490 73 490 73 475 c 2,50,-1
 73 402 l 2,51,52
 73 387 73 387 84 377 c 0,53,54
 95 366 95 366 110 366 c 2,55,-1
 183 366 l 2,56,57
 198 366 198 366 209 377 c 0,58,59
 219 387 219 387 219 402 c 2,40,-1
805 -37 m 2,60,-1
 805 256 l 2,61,62
 805 271 805 271 794 282 c 0,63,64
 783 293 783 293 768 293 c 2,65,-1
 329 293 l 2,66,67
 314 293 314 293 303 282 c 0,68,69
 292 271 292 271 293 256 c 2,70,-1
 293 -37 l 2,71,72
 293 -52 293 -52 303 -62 c 0,73,74
 314 -73 314 -73 329 -73 c 2,75,-1
 768 -73 l 2,76,77
 783 -73 783 -73 794 -62 c 0,78,79
 805 -52 805 -52 805 -37 c 2,60,-1
219 622 m 2,80,-1
 219 695 l 2,81,82
 219 710 219 710 209 721 c 0,83,84
 198 732 198 732 183 731 c 2,85,-1
 110 731 l 2,86,87
 95 731 95 731 84 721 c 0,88,89
 73 710 73 710 73 695 c 2,90,-1
 73 622 l 2,91,92
 73 607 73 607 84 596 c 0,93,94
 95 585 95 585 110 585 c 2,95,-1
 183 585 l 2,96,97
 198 585 198 585 209 596 c 0,98,99
 219 607 219 607 219 622 c 2,80,-1
1024 -37 m 2,100,-1
 1024 37 l 2,101,102
 1024 52 1024 52 1013 62 c 0,103,104
 1002 73 1002 73 987 73 c 2,105,-1
 914 73 l 2,106,107
 899 73 899 73 889 62 c 0,108,109
 878 51 878 51 878 37 c 2,110,-1
 878 -37 l 2,111,112
 878 -52 878 -52 889 -62 c 0,113,114
 900 -73 900 -73 914 -73 c 2,115,-1
 987 -73 l 2,116,117
 1002 -73 1002 -73 1013 -62 c 0,118,119
 1024 -52 1024 -52 1024 -37 c 2,100,-1
805 402 m 2,120,-1
 805 695 l 2,121,122
 805 710 805 710 794 721 c 0,123,124
 783 732 783 732 768 731 c 2,125,-1
 329 731 l 2,126,127
 314 731 314 731 303 721 c 0,128,129
 292 710 292 710 293 695 c 2,130,-1
 293 402 l 2,131,132
 293 387 293 387 303 377 c 0,133,134
 314 366 314 366 329 366 c 2,135,-1
 768 366 l 2,136,137
 783 366 783 366 794 377 c 0,138,139
 805 387 805 387 805 402 c 2,120,-1
1024 183 m 2,140,-1
 1024 256 l 2,141,142
 1024 271 1024 271 1013 282 c 0,143,144
 1002 293 1002 293 987 293 c 2,145,-1
 914 293 l 2,146,147
 899 293 899 293 889 282 c 0,148,149
 878 271 878 271 878 256 c 2,150,-1
 878 183 l 2,151,152
 878 168 878 168 889 157 c 0,153,154
 900 146 900 146 914 146 c 2,155,-1
 987 146 l 2,156,157
 1002 146 1002 146 1013 157 c 0,158,159
 1024 168 1024 168 1024 183 c 2,140,-1
1024 402 m 2,160,-1
 1024 475 l 2,161,162
 1024 490 1024 490 1013 501 c 0,163,164
 1002 512 1002 512 987 512 c 2,165,-1
 914 512 l 2,166,167
 899 512 899 512 889 501 c 0,168,169
 878 490 878 490 878 475 c 2,170,-1
 878 402 l 2,171,172
 878 387 878 387 889 377 c 0,173,174
 900 366 900 366 914 366 c 2,175,-1
 987 366 l 2,176,177
 1002 366 1002 366 1013 377 c 0,178,179
 1024 387 1024 387 1024 402 c 2,160,-1
1024 622 m 2,180,-1
 1024 695 l 2,181,182
 1024 710 1024 710 1013 721 c 0,183,184
 1002 732 1002 732 987 731 c 2,185,-1
 914 731 l 2,186,187
 899 731 899 731 889 721 c 0,188,189
 878 710 878 710 878 695 c 2,190,-1
 878 622 l 2,191,192
 878 607 878 607 889 596 c 0,193,194
 900 585 900 585 914 585 c 2,195,-1
 987 585 l 2,196,197
 1002 585 1002 585 1013 596 c 0,198,199
 1024 607 1024 607 1024 622 c 2,180,-1
1097 713 m 2,200,-1
 1097 -55 l 2,201,202
 1097 -93 1097 -93 1070 -120 c 0,203,204
 1043 -147 1043 -147 1006 -146 c 2,205,-1
 91 -146 l 2,206,207
 53 -146 53 -146 27 -120 c 0,208,209
 0 -93 0 -93 0 -55 c 2,210,-1
 0 713 l 2,211,212
 0 751 0 751 27 777 c 0,213,214
 54 804 54 804 91 805 c 2,215,-1
 1006 805 l 2,216,217
 1044 805 1044 805 1070 777 c 0,218,219
 1097 751 1097 751 1097 713 c 2,200,-1
EndSplineSet
Validated: 33
EndChar

StartChar: uniF009
Encoding: 15 61449 10
Width: 950
Flags: W
LayerCount: 2
Fore
SplineSet
439 293 m 2,0,-1
 439 73 l 2,1,2
 439 43 439 43 417 22 c 0,3,4
 395 0 395 0 366 0 c 2,5,-1
 73 0 l 2,6,7
 43 0 43 0 22 22 c 0,8,9
 0 44 0 44 0 73 c 2,10,-1
 0 293 l 2,11,12
 0 323 0 323 22 344 c 0,13,14
 44 366 44 366 73 366 c 2,15,-1
 366 366 l 2,16,17
 396 366 396 366 417 344 c 0,18,19
 439 323 439 323 439 293 c 2,0,-1
439 731 m 2,20,-1
 439 512 l 2,21,22
 439 482 439 482 417 461 c 0,23,24
 395 439 395 439 366 439 c 2,25,-1
 73 439 l 2,26,27
 43 439 43 439 22 461 c 0,28,29
 0 483 0 483 0 512 c 2,30,-1
 0 731 l 2,31,32
 0 761 0 761 22 783 c 0,33,34
 44 805 44 805 73 805 c 2,35,-1
 366 805 l 2,36,37
 396 805 396 805 417 783 c 0,38,39
 439 761 439 761 439 731 c 2,20,-1
951 293 m 2,40,-1
 951 73 l 2,41,42
 951 43 951 43 929 22 c 0,43,44
 907 0 907 0 878 0 c 2,45,-1
 585 0 l 2,46,47
 555 0 555 0 534 22 c 0,48,49
 512 44 512 44 512 73 c 2,50,-1
 512 293 l 2,51,52
 512 323 512 323 534 344 c 0,53,54
 556 366 556 366 585 366 c 2,55,-1
 878 366 l 2,56,57
 908 366 908 366 929 344 c 0,58,59
 951 323 951 323 951 293 c 2,40,-1
951 731 m 2,60,-1
 951 512 l 2,61,62
 951 482 951 482 929 461 c 0,63,64
 907 439 907 439 878 439 c 2,65,-1
 585 439 l 2,66,67
 555 439 555 439 534 461 c 0,68,69
 512 483 512 483 512 512 c 2,70,-1
 512 731 l 2,71,72
 512 761 512 761 534 783 c 0,73,74
 556 805 556 805 585 805 c 2,75,-1
 878 805 l 2,76,77
 908 805 908 805 929 783 c 0,78,79
 951 761 951 761 951 731 c 2,60,-1
EndSplineSet
Validated: 1
EndChar

StartChar: uniF00A
Encoding: 16 61450 11
Width: 1024
Flags: W
LayerCount: 2
Fore
SplineSet
293 165 m 2,0,-1
 293 55 l 2,1,2
 293 32 293 32 276 16 c 0,3,4
 260 0 260 0 238 0 c 2,5,-1
 55 0 l 2,6,7
 32 0 32 0 16 16 c 0,8,9
 0 32 0 32 0 55 c 2,10,-1
 0 165 l 2,11,12
 0 188 0 188 16 204 c 0,13,14
 32 220 32 220 55 219 c 2,15,-1
 238 219 l 2,16,17
 261 219 261 219 276 204 c 0,18,19
 293 188 293 188 293 165 c 2,0,-1
293 457 m 2,20,-1
 293 347 l 2,21,22
 293 324 293 324 276 308 c 0,23,24
 260 292 260 292 238 293 c 2,25,-1
 55 293 l 2,26,27
 32 293 32 293 16 308 c 0,28,29
 0 324 0 324 0 347 c 2,30,-1
 0 457 l 2,31,32
 0 480 0 480 16 496 c 0,33,34
 32 512 32 512 55 512 c 2,35,-1
 238 512 l 2,36,37
 261 512 261 512 276 496 c 0,38,39
 293 480 293 480 293 457 c 2,20,-1
658 165 m 2,40,-1
 658 55 l 2,41,42
 658 32 658 32 642 16 c 0,43,44
 626 0 626 0 603 0 c 2,45,-1
 421 0 l 2,46,47
 398 0 398 0 382 16 c 0,48,49
 366 32 366 32 366 55 c 2,50,-1
 366 165 l 2,51,52
 366 188 366 188 382 204 c 0,53,54
 398 220 398 220 421 219 c 2,55,-1
 603 219 l 2,56,57
 626 219 626 219 642 204 c 0,58,59
 658 188 658 188 658 165 c 2,40,-1
293 750 m 2,60,-1
 293 640 l 2,61,62
 293 617 293 617 276 601 c 0,63,64
 260 585 260 585 238 585 c 2,65,-1
 55 585 l 2,66,67
 32 585 32 585 16 601 c 0,68,69
 0 617 0 617 0 640 c 2,70,-1
 0 750 l 2,71,72
 0 773 0 773 16 788 c 0,73,74
 32 804 32 804 55 805 c 2,75,-1
 238 805 l 2,76,77
 261 805 261 805 276 788 c 0,78,79
 293 773 293 773 293 750 c 2,60,-1
658 457 m 2,80,-1
 658 347 l 2,81,82
 658 324 658 324 642 308 c 0,83,84
 626 292 626 292 603 293 c 2,85,-1
 421 293 l 2,86,87
 398 293 398 293 382 308 c 0,88,89
 366 324 366 324 366 347 c 2,90,-1
 366 457 l 2,91,92
 366 480 366 480 382 496 c 0,93,94
 398 512 398 512 421 512 c 2,95,-1
 603 512 l 2,96,97
 626 512 626 512 642 496 c 0,98,99
 658 480 658 480 658 457 c 2,80,-1
1024 165 m 2,100,-1
 1024 55 l 2,101,102
 1024 32 1024 32 1008 16 c 0,103,104
 992 0 992 0 969 0 c 2,105,-1
 786 0 l 2,106,107
 763 0 763 0 748 16 c 0,108,109
 732 32 732 32 731 55 c 2,110,-1
 731 165 l 2,111,112
 731 188 731 188 748 204 c 0,113,114
 764 220 764 220 786 219 c 2,115,-1
 969 219 l 2,116,117
 992 219 992 219 1008 204 c 0,118,119
 1024 188 1024 188 1024 165 c 2,100,-1
658 750 m 2,120,-1
 658 640 l 2,121,122
 658 617 658 617 642 601 c 0,123,124
 626 585 626 585 603 585 c 2,125,-1
 421 585 l 2,126,127
 398 585 398 585 382 601 c 0,128,129
 366 617 366 617 366 640 c 2,130,-1
 366 750 l 2,131,132
 366 773 366 773 382 788 c 0,133,134
 398 804 398 804 421 805 c 2,135,-1
 603 805 l 2,136,137
 626 805 626 805 642 788 c 0,138,139
 658 773 658 773 658 750 c 2,120,-1
1024 457 m 2,140,-1
 1024 347 l 2,141,142
 1024 324 1024 324 1008 308 c 0,143,144
 992 292 992 292 969 293 c 2,145,-1
 786 293 l 2,146,147
 763 293 763 293 748 308 c 0,148,149
 732 324 732 324 731 347 c 2,150,-1
 731 457 l 2,151,152
 731 480 731 480 748 496 c 0,153,154
 764 512 764 512 786 512 c 2,155,-1
 969 512 l 2,156,157
 992 512 992 512 1008 496 c 0,158,159
 1024 480 1024 480 1024 457 c 2,140,-1
1024 750 m 2,160,-1
 1024 640 l 2,161,162
 1024 617 1024 617 1008 601 c 0,163,164
 992 585 992 585 969 585 c 2,165,-1
 786 585 l 2,166,167
 763 585 763 585 748 601 c 0,168,169
 732 617 732 617 731 640 c 2,170,-1
 731 750 l 2,171,172
 731 773 731 773 748 788 c 0,173,174
 764 804 764 804 786 805 c 2,175,-1
 969 805 l 2,176,177
 992 805 992 805 1008 788 c 0,178,179
 1024 773 1024 773 1024 750 c 2,160,-1
EndSplineSet
Validated: 33
EndChar

StartChar: uniF00B
Encoding: 17 61451 12
Width: 1024
Flags: W
LayerCount: 2
Fore
SplineSet
293 165 m 2,0,-1
 293 55 l 2,1,2
 293 32 293 32 276 16 c 0,3,4
 260 0 260 0 238 0 c 2,5,-1
 55 0 l 2,6,7
 32 0 32 0 16 16 c 0,8,9
 0 32 0 32 0 55 c 2,10,-1
 0 165 l 2,11,12
 0 188 0 188 16 204 c 0,13,14
 32 220 32 220 55 219 c 2,15,-1
 238 219 l 2,16,17
 261 219 261 219 276 204 c 0,18,19
 293 188 293 188 293 165 c 2,0,-1
293 457 m 2,20,-1
 293 347 l 2,21,22
 293 324 293 324 276 308 c 0,23,24
 260 292 260 292 238 293 c 2,25,-1
 55 293 l 2,26,27
 32 293 32 293 16 308 c 0,28,29
 0 324 0 324 0 347 c 2,30,-1
 0 457 l 2,31,32
 0 480 0 480 16 496 c 0,33,34
 32 512 32 512 55 512 c 2,35,-1
 238 512 l 2,36,37
 261 512 261 512 276 496 c 0,38,39
 293 480 293 480 293 457 c 2,20,-1
1024 165 m 2,40,-1
 1024 55 l 2,41,42
 1024 32 1024 32 1008 16 c 0,43,44
 992 0 992 0 969 0 c 2,45,-1
 421 0 l 2,46,47
 398 0 398 0 382 16 c 0,48,49
 366 32 366 32 366 55 c 2,50,-1
 366 165 l 2,51,52
 366 188 366 188 382 204 c 0,53,54
 398 220 398 220 421 219 c 2,55,-1
 969 219 l 2,56,57
 992 219 992 219 1008 204 c 0,58,59
 1024 188 1024 188 1024 165 c 2,40,-1
293 750 m 2,60,-1
 293 640 l 2,61,62
 293 617 293 617 276 601 c 0,63,64
 260 585 260 585 238 585 c 2,65,-1
 55 585 l 2,66,67
 32 585 32 585 16 601 c 0,68,69
 0 617 0 617 0 640 c 2,70,-1
 0 750 l 2,71,72
 0 773 0 773 16 788 c 0,73,74
 32 804 32 804 55 805 c 2,75,-1
 238 805 l 2,76,77
 261 805 261 805 276 788 c 0,78,79
 293 773 293 773 293 750 c 2,60,-1
1024 457 m 2,80,-1
 1024 347 l 2,81,82
 1024 324 1024 324 1008 308 c 0,83,84
 992 292 992 292 969 293 c 2,85,-1
 421 293 l 2,86,87
 398 293 398 293 382 308 c 0,88,89
 366 324 366 324 366 347 c 2,90,-1
 366 457 l 2,91,92
 366 480 366 480 382 496 c 0,93,94
 398 512 398 512 421 512 c 2,95,-1
 969 512 l 2,96,97
 992 512 992 512 1008 496 c 0,98,99
 1024 480 1024 480 1024 457 c 2,80,-1
1024 750 m 2,100,-1
 1024 640 l 2,101,102
 1024 617 1024 617 1008 601 c 0,103,104
 992 585 992 585 969 585 c 2,105,-1
 421 585 l 2,106,107
 398 585 398 585 382 601 c 0,108,109
 366 617 366 617 366 640 c 2,110,-1
 366 750 l 2,111,112
 366 773 366 773 382 788 c 0,113,114
 398 804 398 804 421 805 c 2,115,-1
 969 805 l 2,116,117
 992 805 992 805 1008 788 c 0,118,119
 1024 773 1024 773 1024 750 c 2,100,-1
EndSplineSet
Validated: 33
EndChar

StartChar: uniF00C
Encoding: 18 61452 13
Width: 1024
Flags: W
LayerCount: 2
Fore
SplineSet
954 554 m 0,0,1
 954 531 954 531 939 515 c 2,2,-1
 525 101 l 1,3,-1
 447 24 l 2,4,5
 431 8 431 8 409 8 c 0,6,7
 386 8 386 8 370 24 c 2,8,-1
 292 101 l 1,9,-1
 85 308 l 2,10,11
 69 324 69 324 70 347 c 0,12,13
 70 370 70 370 85 386 c 2,14,-1
 163 464 l 2,15,16
 179 480 179 480 202 480 c 0,17,18
 225 480 225 480 241 464 c 2,19,-1
 409 296 l 1,20,-1
 783 671 l 2,21,22
 799 687 799 687 822 687 c 0,23,24
 845 687 845 687 861 671 c 2,25,-1
 939 593 l 2,26,27
 954 577 954 577 954 554 c 0,0,1
EndSplineSet
Validated: 33
EndChar

StartChar: uniF00D
Encoding: 19 61453 14
Width: 803
Flags: W
LayerCount: 2
Fore
SplineSet
741 122 m 0,0,1
 741 99 741 99 726 83 c 2,2,-1
 648 6 l 2,3,4
 632 -10 632 -10 609 -10 c 0,5,6
 586 -10 586 -10 570 6 c 2,7,-1
 402 174 l 1,8,-1
 234 6 l 2,9,10
 218 -10 218 -10 196 -10 c 0,11,12
 173 -10 173 -10 157 6 c 2,13,-1
 79 83 l 2,14,15
 63 99 63 99 62 122 c 0,16,17
 62 145 62 145 79 161 c 2,18,-1
 247 329 l 1,19,-1
 79 497 l 2,20,21
 63 513 63 513 62 536 c 0,22,23
 62 559 62 559 79 574 c 2,24,-1
 157 652 l 2,25,26
 173 668 173 668 196 669 c 0,27,28
 219 669 219 669 234 652 c 2,29,-1
 402 484 l 1,30,-1
 570 652 l 2,31,32
 586 668 586 668 609 669 c 0,33,34
 632 669 632 669 648 652 c 2,35,-1
 726 574 l 2,36,37
 742 558 742 558 741 536 c 0,38,39
 741 513 741 513 726 497 c 2,40,-1
 558 329 l 1,41,-1
 726 161 l 2,42,43
 741 145 741 145 741 122 c 0,0,1
EndSplineSet
Validated: 33
EndChar

StartChar: uniF00E
Encoding: 20 61454 15
Width: 950
Flags: W
LayerCount: 2
Fore
SplineSet
585 421 m 2,0,-1
 585 384 l 2,1,2
 585 377 585 377 580 371 c 0,3,4
 575 366 575 366 567 366 c 2,5,-1
 439 366 l 1,6,-1
 439 238 l 2,7,8
 439 231 439 231 433 225 c 0,9,10
 428 220 428 220 421 219 c 2,11,-1
 384 219 l 2,12,13
 377 219 377 219 371 225 c 0,14,15
 366 230 366 230 366 238 c 2,16,-1
 366 366 l 1,17,-1
 238 366 l 2,18,19
 231 366 231 366 225 371 c 0,20,21
 220 376 220 376 219 384 c 2,22,-1
 219 421 l 2,23,24
 219 428 219 428 225 433 c 0,25,26
 230 438 230 438 238 439 c 2,27,-1
 366 439 l 1,28,-1
 366 567 l 2,29,30
 366 574 366 574 371 580 c 0,31,32
 376 585 376 585 384 585 c 2,33,-1
 421 585 l 2,34,35
 428 585 428 585 433 580 c 0,36,37
 438 575 438 575 439 567 c 2,38,-1
 439 439 l 1,39,-1
 567 439 l 2,40,41
 574 439 574 439 580 433 c 0,42,43
 585 428 585 428 585 421 c 2,0,-1
658 402 m 0,44,45
 658 507 658 507 583 583 c 0,46,47
 508 658 508 658 402 658 c 0,48,49
 297 658 297 658 221 583 c 0,50,51
 146 508 146 508 146 402 c 0,52,53
 146 297 146 297 221 221 c 0,54,55
 296 146 296 146 402 146 c 0,56,57
 507 146 507 146 583 221 c 0,58,59
 658 297 658 297 658 402 c 0,44,45
951 -73 m 0,60,61
 951 -104 951 -104 930 -125 c 0,62,63
 908 -147 908 -147 878 -146 c 0,64,65
 847 -146 847 -146 826 -125 c 1,66,-1
 631 71 l 1,67,68
 529 0 529 0 402 0 c 0,69,70
 320 0 320 0 246 32 c 0,71,72
 171 64 171 64 118 118 c 0,73,74
 64 172 64 172 32 246 c 0,75,76
 0 321 0 321 0 402 c 0,77,78
 0 484 0 484 32 558 c 0,79,80
 64 633 64 633 118 687 c 0,81,82
 172 741 172 741 246 773 c 0,83,84
 321 805 321 805 402 805 c 0,85,86
 484 805 484 805 558 773 c 0,87,88
 633 741 633 741 687 687 c 0,89,90
 741 633 741 633 773 558 c 0,91,92
 805 483 805 483 805 402 c 0,93,94
 805 276 805 276 734 174 c 1,95,-1
 930 -22 l 2,96,97
 951 -42 951 -42 951 -73 c 0,60,61
EndSplineSet
Validated: 33
EndChar

StartChar: uniF010
Encoding: 21 61456 16
Width: 950
Flags: W
LayerCount: 2
Fore
SplineSet
585 421 m 2,0,-1
 585 384 l 2,1,2
 585 377 585 377 580 371 c 0,3,4
 575 366 575 366 567 366 c 2,5,-1
 238 366 l 2,6,7
 231 366 231 366 225 371 c 0,8,9
 220 376 220 376 219 384 c 2,10,-1
 219 421 l 2,11,12
 219 428 219 428 225 433 c 0,13,14
 230 438 230 438 238 439 c 2,15,-1
 567 439 l 2,16,17
 574 439 574 439 580 433 c 0,18,19
 585 428 585 428 585 421 c 2,0,-1
658 402 m 0,20,21
 658 507 658 507 583 583 c 0,22,23
 508 658 508 658 402 658 c 0,24,25
 297 658 297 658 221 583 c 0,26,27
 146 508 146 508 146 402 c 0,28,29
 146 297 146 297 221 221 c 0,30,31
 296 146 296 146 402 146 c 0,32,33
 507 146 507 146 583 221 c 0,34,35
 658 297 658 297 658 402 c 0,20,21
951 -73 m 0,36,37
 951 -104 951 -104 930 -125 c 0,38,39
 908 -147 908 -147 878 -146 c 0,40,41
 847 -146 847 -146 826 -125 c 1,42,-1
 631 71 l 1,43,44
 529 0 529 0 402 0 c 0,45,46
 320 0 320 0 246 32 c 0,47,48
 171 64 171 64 118 118 c 0,49,50
 64 172 64 172 32 246 c 0,51,52
 0 321 0 321 0 402 c 0,53,54
 0 484 0 484 32 558 c 0,55,56
 64 633 64 633 118 687 c 0,57,58
 172 741 172 741 246 773 c 0,59,60
 321 805 321 805 402 805 c 0,61,62
 484 805 484 805 558 773 c 0,63,64
 633 741 633 741 687 687 c 0,65,66
 741 633 741 633 773 558 c 0,67,68
 805 483 805 483 805 402 c 0,69,70
 805 276 805 276 734 174 c 1,71,-1
 930 -22 l 2,72,73
 951 -42 951 -42 951 -73 c 0,36,37
EndSplineSet
Validated: 33
EndChar

StartChar: uniF011
Encoding: 22 61457 17
Width: 877
Flags: W
LayerCount: 2
Fore
SplineSet
878 366 m 0,0,1
 878 277 878 277 843 196 c 0,2,3
 808 115 808 115 750 55 c 0,4,5
 692 -3 692 -3 609 -38 c 0,6,7
 528 -73 528 -73 439 -73 c 0,8,9
 350 -73 350 -73 268 -38 c 0,10,11
 187 -3 187 -3 129 55 c 0,12,13
 71 113 71 113 35 196 c 0,14,15
 0 277 0 277 0 366 c 0,16,17
 0 470 0 470 46 562 c 0,18,19
 92 654 92 654 175 716 c 0,20,21
 200 734 200 734 230 730 c 0,22,23
 260 726 260 726 278 701 c 1,24,25
 296 677 296 677 292 648 c 0,26,27
 288 618 288 618 263 599 c 0,28,29
 207 557 207 557 177 496 c 0,30,31
 146 435 146 435 146 366 c 0,32,33
 146 307 146 307 169 252 c 0,34,35
 193 198 193 198 232 159 c 0,36,37
 272 119 272 119 326 96 c 0,38,39
 380 72 380 72 439 73 c 0,40,41
 498 73 498 73 552 96 c 0,42,43
 606 120 606 120 646 159 c 0,44,45
 686 199 686 199 709 252 c 0,46,47
 733 306 733 306 731 366 c 0,48,49
 731 436 731 436 700 496 c 0,50,51
 669 557 669 557 614 599 c 0,52,53
 590 617 590 617 586 648 c 0,54,55
 582 678 582 678 600 701 c 1,56,57
 617 726 617 726 648 730 c 0,58,59
 679 734 679 734 702 716 c 0,60,61
 785 654 785 654 831 562 c 0,62,63
 878 470 878 470 878 366 c 0,0,1
512 805 m 2,64,-1
 512 439 l 2,65,66
 512 409 512 409 490 387 c 0,67,68
 468 365 468 365 439 366 c 0,69,70
 409 366 409 366 387 387 c 0,71,72
 365 409 365 409 366 439 c 2,73,-1
 366 805 l 2,74,75
 366 835 366 835 387 856 c 0,76,77
 409 878 409 878 439 878 c 0,78,79
 469 878 469 878 490 856 c 0,80,81
 512 835 512 835 512 805 c 2,64,-1
EndSplineSet
Validated: 33
EndChar

StartChar: uniF012
Encoding: 23 61458 18
Width: 1024
Flags: W
LayerCount: 2
Fore
SplineSet
146 55 m 2,0,-1
 146 -55 l 2,1,2
 146 -63 146 -63 141 -68 c 0,3,4
 136 -73 136 -73 128 -73 c 2,5,-1
 18 -73 l 2,6,7
 10 -73 10 -73 5 -68 c 0,8,9
 0 -63 0 -63 0 -55 c 2,10,-1
 0 55 l 2,11,12
 0 63 0 63 5 68 c 0,13,14
 10 73 10 73 18 73 c 2,15,-1
 128 73 l 2,16,17
 136 73 136 73 141 68 c 0,18,19
 146 63 146 63 146 55 c 2,0,-1
366 128 m 2,20,-1
 366 -55 l 2,21,22
 366 -63 366 -63 360 -68 c 0,23,24
 355 -73 355 -73 347 -73 c 2,25,-1
 238 -73 l 2,26,27
 230 -73 230 -73 224 -68 c 0,28,29
 219 -63 219 -63 219 -55 c 2,30,-1
 219 128 l 2,31,32
 219 136 219 136 224 141 c 0,33,34
 229 146 229 146 238 146 c 2,35,-1
 347 146 l 2,36,37
 355 146 355 146 360 141 c 0,38,39
 366 136 366 136 366 128 c 2,20,-1
585 274 m 2,40,-1
 585 -55 l 2,41,42
 585 -63 585 -63 580 -68 c 0,43,44
 575 -73 575 -73 567 -73 c 2,45,-1
 457 -73 l 2,46,47
 449 -73 449 -73 444 -68 c 0,48,49
 439 -63 439 -63 439 -55 c 2,50,-1
 439 274 l 2,51,52
 439 282 439 282 444 288 c 0,53,54
 449 293 449 293 457 293 c 2,55,-1
 567 293 l 2,56,57
 575 293 575 293 580 288 c 0,58,59
 585 282 585 282 585 274 c 2,40,-1
805 494 m 2,60,-1
 805 -55 l 2,61,62
 805 -63 805 -63 800 -68 c 0,63,64
 795 -73 795 -73 786 -73 c 2,65,-1
 677 -73 l 2,66,67
 669 -73 669 -73 664 -68 c 0,68,69
 659 -63 659 -63 658 -55 c 2,70,-1
 658 494 l 2,71,72
 658 502 658 502 664 507 c 0,73,74
 669 512 669 512 677 512 c 2,75,-1
 786 512 l 2,76,77
 794 512 794 512 800 507 c 0,78,79
 805 502 805 502 805 494 c 2,60,-1
1024 786 m 2,80,-1
 1024 -55 l 2,81,82
 1024 -63 1024 -63 1019 -68 c 0,83,84
 1014 -73 1014 -73 1006 -73 c 2,85,-1
 896 -73 l 2,86,87
 888 -73 888 -73 883 -68 c 0,88,89
 878 -63 878 -63 878 -55 c 2,90,-1
 878 786 l 2,91,92
 878 794 878 794 883 800 c 0,93,94
 888 805 888 805 896 805 c 2,95,-1
 1006 805 l 2,96,97
 1014 805 1014 805 1019 800 c 0,98,99
 1024 794 1024 794 1024 786 c 2,80,-1
EndSplineSet
Validated: 1
EndChar

StartChar: uniF013
Encoding: 24 61459 19
Width: 877
Flags: W
LayerCount: 2
Fore
SplineSet
585 366 m 0,0,1
 585 426 585 426 543 469 c 0,2,3
 500 512 500 512 439 512 c 0,4,5
 379 512 379 512 336 469 c 0,6,7
 293 426 293 426 293 366 c 0,8,9
 293 306 293 306 336 262 c 0,10,11
 379 219 379 219 439 219 c 0,12,13
 499 219 499 219 543 262 c 0,14,15
 585 306 585 306 585 366 c 0,0,1
878 428 m 2,16,-1
 878 301 l 2,17,18
 878 294 878 294 873 288 c 0,19,20
 869 282 869 282 862 281 c 2,21,-1
 756 264 l 1,22,23
 745 233 745 233 734 213 c 1,24,25
 754 184 754 184 795 134 c 0,26,27
 801 127 801 127 801 120 c 0,28,29
 801 113 801 113 796 106 c 1,30,31
 781 84 781 84 739 45 c 0,32,33
 698 4 698 4 685 4 c 0,34,35
 678 4 678 4 671 9 c 1,36,-1
 592 71 l 1,37,38
 566 58 566 58 540 49 c 1,39,40
 531 -29 531 -29 523 -57 c 0,41,42
 519 -73 519 -73 503 -73 c 2,43,-1
 376 -73 l 2,44,45
 368 -73 368 -73 361 -69 c 0,46,47
 355 -64 355 -64 355 -56 c 2,48,-1
 339 49 l 1,49,50
 311 58 311 58 288 71 c 1,51,-1
 207 9 l 1,52,53
 201 4 201 4 193 4 c 0,54,55
 185 4 185 4 178 10 c 0,56,57
 106 76 106 76 84 106 c 0,58,59
 80 112 80 112 80 120 c 0,60,61
 80 127 80 127 85 132 c 0,62,63
 93 144 93 144 114 171 c 0,64,65
 134 197 134 197 144 211 c 1,66,67
 129 240 129 240 121 267 c 1,68,-1
 16 283 l 2,69,70
 9 284 9 284 4 290 c 0,71,72
 0 296 0 296 0 303 c 2,73,-1
 0 430 l 2,74,75
 0 437 0 437 4 443 c 0,76,77
 8 449 8 449 15 451 c 2,78,-1
 122 467 l 1,79,80
 130 494 130 494 144 519 c 1,81,82
 121 552 121 552 83 598 c 0,83,84
 77 605 77 605 77 612 c 0,85,86
 77 618 77 618 82 625 c 0,87,88
 97 645 97 645 138 686 c 0,89,90
 179 727 179 727 193 727 c 0,91,92
 200 727 200 727 208 722 c 2,93,-1
 287 660 l 1,94,95
 313 673 313 673 338 682 c 1,96,97
 347 760 347 760 355 788 c 0,98,99
 359 804 359 804 376 805 c 2,100,-1
 503 805 l 2,101,102
 511 805 511 805 516 800 c 0,103,104
 522 795 522 795 523 787 c 2,105,-1
 539 682 l 1,106,107
 567 673 567 673 590 662 c 1,108,-1
 672 722 l 1,109,110
 677 727 677 727 685 727 c 0,111,112
 692 727 692 727 699 722 c 0,113,114
 773 654 773 654 794 625 c 1,115,116
 798 621 798 621 798 612 c 0,117,118
 798 605 798 605 794 599 c 0,119,120
 786 587 786 587 764 561 c 0,121,122
 744 535 744 535 733 520 c 1,123,124
 748 491 748 491 757 465 c 1,125,-1
 861 449 l 2,126,127
 868 448 868 448 873 441 c 0,128,129
 878 435 878 435 878 428 c 2,16,-1
EndSplineSet
Validated: 1
EndChar

StartChar: uniF014
Encoding: 25 61460 20
Width: 803
Flags: W
LayerCount: 2
Fore
SplineSet
293 457 m 2,0,-1
 293 128 l 2,1,2
 293 120 293 120 288 115 c 0,3,4
 283 110 283 110 274 110 c 2,5,-1
 238 110 l 2,6,7
 230 110 230 110 224 115 c 0,8,9
 219 120 219 120 219 128 c 2,10,-1
 219 457 l 2,11,12
 219 465 219 465 224 470 c 0,13,14
 229 475 229 475 238 475 c 2,15,-1
 274 475 l 2,16,17
 282 475 282 475 288 470 c 0,18,19
 293 465 293 465 293 457 c 2,0,-1
439 457 m 2,20,-1
 439 128 l 2,21,22
 439 120 439 120 434 115 c 0,23,24
 429 110 429 110 421 110 c 2,25,-1
 384 110 l 2,26,27
 376 110 376 110 371 115 c 0,28,29
 366 120 366 120 366 128 c 2,30,-1
 366 457 l 2,31,32
 366 465 366 465 371 470 c 0,33,34
 376 475 376 475 384 475 c 2,35,-1
 421 475 l 2,36,37
 429 475 429 475 434 470 c 0,38,39
 439 465 439 465 439 457 c 2,20,-1
585 457 m 2,40,-1
 585 128 l 2,41,42
 585 120 585 120 580 115 c 0,43,44
 575 110 575 110 567 110 c 2,45,-1
 530 110 l 2,46,47
 522 110 522 110 517 115 c 0,48,49
 512 120 512 120 512 128 c 2,50,-1
 512 457 l 2,51,52
 512 465 512 465 517 470 c 0,53,54
 522 475 522 475 530 475 c 2,55,-1
 567 475 l 2,56,57
 575 475 575 475 580 470 c 0,58,59
 585 465 585 465 585 457 c 2,40,-1
658 43 m 2,60,-1
 658 585 l 1,61,-1
 146 585 l 1,62,-1
 146 43 l 2,63,64
 146 31 146 31 151 20 c 0,65,66
 155 10 155 10 159 5 c 0,67,68
 163 0 163 0 165 0 c 2,69,-1
 640 0 l 2,70,71
 642 0 642 0 646 5 c 0,72,73
 650 10 650 10 654 20 c 0,74,75
 658 31 658 31 658 43 c 2,60,-1
274 658 m 1,76,-1
 530 658 l 1,77,-1
 503 725 l 1,78,79
 499 730 499 730 494 731 c 1,80,-1
 312 731 l 1,81,82
 306 730 306 730 302 725 c 1,83,-1
 274 658 l 1,76,-1
805 640 m 2,84,-1
 805 603 l 2,85,86
 805 595 805 595 800 590 c 0,87,88
 795 585 795 585 786 585 c 2,89,-1
 731 585 l 1,90,-1
 731 43 l 2,91,92
 731 -4 731 -4 705 -39 c 0,93,94
 678 -74 678 -74 640 -73 c 2,95,-1
 165 -73 l 2,96,97
 127 -73 127 -73 100 -40 c 0,98,99
 73 -6 73 -6 73 41 c 2,100,-1
 73 585 l 1,101,-1
 18 585 l 2,102,103
 10 585 10 585 5 590 c 0,104,105
 0 595 0 595 0 603 c 2,106,-1
 0 640 l 2,107,108
 0 648 0 648 5 653 c 0,109,110
 10 658 10 658 18 658 c 2,111,-1
 195 658 l 1,112,-1
 234 754 l 2,113,114
 242 776 242 776 265 790 c 0,115,116
 288 805 288 805 311 805 c 2,117,-1
 494 805 l 2,118,119
 517 805 517 805 539 790 c 0,120,121
 562 775 562 775 569 754 c 2,122,-1
 609 658 l 1,123,-1
 786 658 l 2,124,125
 794 658 794 658 800 653 c 0,126,127
 805 648 805 648 805 640 c 2,84,-1
EndSplineSet
Validated: 33
EndChar

StartChar: uniF015
Encoding: 26 61461 21
Width: 950
Flags: W
LayerCount: 2
Fore
SplineSet
805 311 m 2,0,-1
 805 37 l 2,1,2
 805 22 805 22 794 11 c 0,3,4
 783 0 783 0 768 0 c 2,5,-1
 549 0 l 1,6,-1
 549 219 l 1,7,-1
 402 219 l 1,8,-1
 402 0 l 1,9,-1
 183 0 l 2,10,11
 168 0 168 0 157 11 c 0,12,13
 146 22 146 22 146 37 c 2,14,-1
 146 311 l 2,15,16
 146 312 l 0,17,18
 146 313 146 313 146 314 c 2,19,-1
 475 585 l 1,20,-1
 804 314 l 2,21,22
 805 313 805 313 805 311 c 2,0,-1
932 350 m 2,23,-1
 897 308 l 2,24,25
 893 303 893 303 885 302 c 1,26,-1
 883 302 l 2,27,28
 876 302 876 302 870 306 c 2,29,-1
 475 636 l 1,30,-1
 80 306 l 1,31,32
 73 302 73 302 67 302 c 0,33,34
 60 303 60 303 54 308 c 2,35,-1
 18 350 l 2,36,37
 14 356 14 356 15 364 c 0,38,39
 16 372 16 372 22 376 c 2,40,-1
 432 718 l 2,41,42
 450 733 450 733 475 733 c 0,43,44
 501 733 501 733 519 718 c 2,45,-1
 658 602 l 1,46,-1
 658 713 l 2,47,48
 658 721 658 721 664 726 c 0,49,50
 669 731 669 731 677 731 c 2,51,-1
 786 731 l 2,52,53
 794 731 794 731 800 726 c 0,54,55
 805 721 805 721 805 713 c 2,56,-1
 805 480 l 1,57,-1
 930 376 l 2,58,59
 936 372 936 372 936 364 c 0,60,61
 936 356 936 356 932 350 c 2,23,-1
EndSplineSet
Validated: 1
EndChar

StartChar: uniF016
Encoding: 27 61462 22
Width: 731
Flags: W
LayerCount: 2
Fore
SplineSet
73 0 m 1,0,-1
 658 0 l 1,1,-1
 658 439 l 1,2,-1
 421 439 l 2,3,4
 398 439 398 439 382 455 c 0,5,6
 366 471 366 471 366 494 c 2,7,-1
 366 731 l 1,8,-1
 73 731 l 1,9,-1
 73 0 l 1,0,-1
439 512 m 1,10,-1
 609 512 l 1,11,-1
 439 683 l 1,12,-1
 439 512 l 1,10,-1
731 439 m 2,13,-1
 731 -18 l 2,14,15
 731 -41 731 -41 716 -57 c 0,16,17
 700 -73 700 -73 677 -73 c 2,18,-1
 55 -73 l 2,19,20
 32 -73 32 -73 16 -57 c 0,21,22
 0 -41 0 -41 0 -18 c 2,23,-1
 0 750 l 2,24,25
 0 773 0 773 16 788 c 0,26,27
 32 804 32 804 55 805 c 2,28,-1
 366 805 l 2,29,30
 389 805 389 805 416 794 c 0,31,32
 444 783 444 783 460 766 c 2,33,-1
 692 532 l 2,34,35
 708 516 708 516 720 489 c 0,36,37
 731 462 731 462 731 439 c 2,13,-1
EndSplineSet
Validated: 1
EndChar

StartChar: uniF017
Encoding: 28 61463 23
Width: 877
Flags: W
LayerCount: 2
Fore
SplineSet
622 347 m 2,0,-1
 622 311 l 2,1,2
 622 304 622 304 616 298 c 0,3,4
 611 293 611 293 603 293 c 2,5,-1
 384 293 l 2,6,7
 377 293 377 293 371 298 c 0,8,9
 366 303 366 303 366 311 c 2,10,-1
 366 567 l 2,11,12
 366 574 366 574 371 580 c 0,13,14
 376 585 376 585 384 585 c 2,15,-1
 421 585 l 2,16,17
 428 585 428 585 433 580 c 0,18,19
 438 575 438 575 439 567 c 2,20,-1
 439 366 l 1,21,-1
 603 366 l 2,22,23
 610 366 610 366 616 360 c 0,24,25
 622 354 622 354 622 347 c 2,0,-1
731 366 m 0,26,27
 731 425 731 425 709 479 c 0,28,29
 685 533 685 533 646 572 c 0,30,31
 606 612 606 612 552 635 c 0,32,33
 498 659 498 659 439 658 c 0,34,35
 380 658 380 658 326 635 c 0,36,37
 272 611 272 611 232 572 c 0,38,39
 192 532 192 532 169 479 c 0,40,41
 145 425 145 425 146 366 c 0,42,43
 146 307 146 307 169 252 c 0,44,45
 193 198 193 198 232 159 c 0,46,47
 272 119 272 119 326 96 c 0,48,49
 380 72 380 72 439 73 c 0,50,51
 498 73 498 73 552 96 c 0,52,53
 606 120 606 120 646 159 c 0,54,55
 686 199 686 199 709 252 c 0,56,57
 731 307 731 307 731 366 c 0,26,27
878 366 m 0,58,59
 878 246 878 246 819 145 c 0,60,61
 761 45 761 45 659 -14 c 0,62,63
 559 -72 559 -72 439 -73 c 0,64,65
 319 -73 319 -73 218 -14 c 0,66,67
 118 44 118 44 58 145 c 0,68,69
 0 245 0 245 0 366 c 0,70,71
 0 486 0 486 58 586 c 0,72,73
 116 686 116 686 218 745 c 0,74,75
 318 803 318 803 439 805 c 0,76,77
 559 805 559 805 659 745 c 0,78,79
 759 687 759 687 819 586 c 0,80,81
 878 486 878 486 878 366 c 0,58,59
EndSplineSet
Validated: 33
EndChar

StartChar: uniF018
Encoding: 29 61464 24
Width: 1096
Flags: W
LayerCount: 2
Fore
SplineSet
635 308 m 1,0,-1
 635 311 l 1,1,-1
 622 494 l 2,2,3
 621 501 621 501 614 507 c 0,4,5
 608 512 608 512 602 512 c 2,6,-1
 496 512 l 2,7,8
 489 512 489 512 482 507 c 0,9,10
 476 502 476 502 476 494 c 2,11,-1
 462 311 l 1,12,-1
 462 308 l 1,13,14
 461 301 461 301 467 297 c 0,15,16
 472 293 472 293 479 293 c 2,17,-1
 618 293 l 2,18,19
 625 293 625 293 631 297 c 0,20,21
 636 301 636 301 635 308 c 1,0,-1
1069 42 m 0,22,23
 1069 0 1069 0 1042 0 c 2,24,-1
 640 0 l 2,25,26
 647 0 647 0 652 5 c 0,27,28
 657 10 657 10 657 18 c 2,29,-1
 646 165 l 2,30,31
 645 172 645 172 639 177 c 0,32,33
 633 182 633 182 627 183 c 2,34,-1
 471 183 l 2,35,36
 464 183 464 183 458 177 c 0,37,38
 452 172 452 172 452 165 c 2,39,-1
 440 18 l 2,40,41
 439 11 439 11 444 5 c 0,42,43
 449 0 449 0 457 0 c 2,44,-1
 55 0 l 2,45,46
 28 0 28 0 29 42 c 0,47,48
 29 73 29 73 43 108 c 1,49,-1
 282 705 l 2,50,51
 286 716 286 716 297 723 c 0,52,53
 307 731 307 731 318 731 c 2,54,-1
 512 731 l 2,55,56
 505 731 505 731 499 726 c 0,57,58
 493 721 493 721 493 713 c 2,59,-1
 484 603 l 2,60,61
 483 595 483 595 488 590 c 0,62,63
 493 585 493 585 501 585 c 2,64,-1
 596 585 l 2,65,66
 603 585 603 585 608 590 c 0,67,68
 613 595 613 595 613 603 c 2,69,-1
 604 713 l 2,70,71
 603 720 603 720 598 726 c 0,72,73
 592 731 592 731 585 731 c 2,74,-1
 779 731 l 2,75,76
 790 731 790 731 801 723 c 0,77,78
 811 715 811 715 815 705 c 2,79,-1
 1054 108 l 1,80,81
 1069 73 1069 73 1069 42 c 0,22,23
EndSplineSet
Validated: 33
EndChar

StartChar: uniF019
Encoding: 30 61465 25
Width: 950
Flags: W
LayerCount: 2
Fore
SplineSet
765 417 m 0,0,1
 774 393 774 393 757 377 c 1,2,-1
 501 121 l 2,3,4
 491 110 491 110 475 110 c 0,5,6
 460 110 460 110 450 121 c 2,7,-1
 194 377 l 1,8,9
 177 393 177 393 185 417 c 0,10,11
 194 440 194 440 219 439 c 2,12,-1
 366 439 l 1,13,-1
 366 695 l 2,14,15
 366 710 366 710 377 721 c 0,16,17
 388 732 388 732 402 731 c 2,18,-1
 549 731 l 2,19,20
 564 731 564 731 574 721 c 0,21,22
 585 710 585 710 585 695 c 2,23,-1
 585 439 l 1,24,-1
 731 439 l 2,25,26
 756 440 756 440 765 417 c 0,0,1
933 293 m 2,27,28
 941 293 941 293 946 288 c 0,29,30
 951 283 951 283 951 274 c 2,31,-1
 951 -55 l 2,32,33
 951 -63 951 -63 946 -68 c 0,34,35
 941 -73 941 -73 933 -73 c 2,36,-1
 18 -73 l 2,37,38
 10 -73 10 -73 5 -68 c 0,39,40
 0 -63 0 -63 0 -55 c 2,41,-1
 0 274 l 2,42,43
 0 282 0 282 5 288 c 0,44,45
 10 293 10 293 18 293 c 2,46,-1
 128 293 l 2,47,48
 136 293 136 293 141 288 c 0,49,50
 146 283 146 283 146 274 c 2,51,-1
 146 73 l 1,52,-1
 805 73 l 1,53,-1
 805 274 l 2,54,55
 805 282 805 282 810 288 c 0,56,57
 815 293 815 293 823 293 c 2,58,-1
 933 293 l 2,27,28
EndSplineSet
Validated: 33
EndChar

StartChar: uniF01A
Encoding: 31 61466 26
Width: 877
Flags: W
LayerCount: 2
Fore
SplineSet
640 347 m 0,0,1
 640 340 640 340 634 334 c 1,2,-1
 452 152 l 2,3,4
 447 147 447 147 439 146 c 0,5,6
 431 146 431 146 426 152 c 2,7,-1
 243 334 l 2,8,9
 238 339 238 339 238 347 c 0,10,11
 238 354 238 354 243 360 c 0,12,13
 248 365 248 365 256 366 c 2,14,-1
 366 366 l 1,15,-1
 366 567 l 2,16,17
 366 574 366 574 371 580 c 0,18,19
 376 585 376 585 384 585 c 2,20,-1
 494 585 l 2,21,22
 501 585 501 585 507 580 c 0,23,24
 512 575 512 575 512 567 c 2,25,-1
 512 366 l 1,26,-1
 622 366 l 2,27,28
 630 366 630 366 635 360 c 0,29,30
 640 355 640 355 640 347 c 0,0,1
731 366 m 0,31,32
 731 425 731 425 709 479 c 0,33,34
 685 533 685 533 646 572 c 0,35,36
 606 612 606 612 552 635 c 0,37,38
 498 659 498 659 439 658 c 0,39,40
 380 658 380 658 326 635 c 0,41,42
 272 611 272 611 232 572 c 0,43,44
 192 532 192 532 169 479 c 0,45,46
 145 425 145 425 146 366 c 0,47,48
 146 307 146 307 169 252 c 0,49,50
 193 198 193 198 232 159 c 0,51,52
 272 119 272 119 326 96 c 0,53,54
 380 72 380 72 439 73 c 0,55,56
 498 73 498 73 552 96 c 0,57,58
 606 120 606 120 646 159 c 0,59,60
 686 199 686 199 709 252 c 0,61,62
 731 307 731 307 731 366 c 0,31,32
878 366 m 0,63,64
 878 246 878 246 819 145 c 0,65,66
 761 45 761 45 659 -14 c 0,67,68
 559 -72 559 -72 439 -73 c 0,69,70
 319 -73 319 -73 218 -14 c 0,71,72
 118 44 118 44 58 145 c 0,73,74
 0 245 0 245 0 366 c 0,75,76
 0 486 0 486 58 586 c 0,77,78
 116 686 116 686 218 745 c 0,79,80
 318 803 318 803 439 805 c 0,81,82
 559 805 559 805 659 745 c 0,83,84
 759 687 759 687 819 586 c 0,85,86
 878 486 878 486 878 366 c 0,63,64
EndSplineSet
Validated: 33
EndChar

StartChar: uniF01B
Encoding: 32 61467 27
Width: 877
Flags: W
LayerCount: 2
Fore
SplineSet
640 384 m 0,0,1
 640 377 640 377 635 371 c 0,2,3
 630 366 630 366 622 366 c 2,4,-1
 512 366 l 1,5,-1
 512 165 l 2,6,7
 512 158 512 158 507 152 c 0,8,9
 502 147 502 147 494 146 c 2,10,-1
 384 146 l 2,11,12
 377 146 377 146 371 152 c 0,13,14
 366 157 366 157 366 165 c 2,15,-1
 366 366 l 1,16,-1
 256 366 l 2,17,18
 248 366 248 366 243 371 c 0,19,20
 238 376 238 376 238 384 c 0,21,22
 238 391 238 391 244 397 c 1,23,-1
 426 580 l 2,24,25
 431 585 431 585 439 585 c 0,26,27
 447 585 447 585 452 580 c 2,28,-1
 635 397 l 2,29,30
 640 392 640 392 640 384 c 0,0,1
731 366 m 0,31,32
 731 425 731 425 709 479 c 0,33,34
 685 533 685 533 646 572 c 0,35,36
 606 612 606 612 552 635 c 0,37,38
 498 659 498 659 439 658 c 0,39,40
 380 658 380 658 326 635 c 0,41,42
 272 611 272 611 232 572 c 0,43,44
 192 532 192 532 169 479 c 0,45,46
 145 425 145 425 146 366 c 0,47,48
 146 307 146 307 169 252 c 0,49,50
 193 198 193 198 232 159 c 0,51,52
 272 119 272 119 326 96 c 0,53,54
 380 72 380 72 439 73 c 0,55,56
 498 73 498 73 552 96 c 0,57,58
 606 120 606 120 646 159 c 0,59,60
 686 199 686 199 709 252 c 0,61,62
 731 307 731 307 731 366 c 0,31,32
878 366 m 0,63,64
 878 246 878 246 819 145 c 0,65,66
 761 45 761 45 659 -14 c 0,67,68
 559 -72 559 -72 439 -73 c 0,69,70
 319 -73 319 -73 218 -14 c 0,71,72
 118 44 118 44 58 145 c 0,73,74
 0 245 0 245 0 366 c 0,75,76
 0 486 0 486 58 586 c 0,77,78
 116 686 116 686 218 745 c 0,79,80
 318 803 318 803 439 805 c 0,81,82
 559 805 559 805 659 745 c 0,83,84
 759 687 759 687 819 586 c 0,85,86
 878 486 878 486 878 366 c 0,63,64
EndSplineSet
Validated: 33
EndChar

StartChar: uniF01C
Encoding: 33 61468 28
Width: 877
Flags: W
LayerCount: 2
Fore
SplineSet
585 329 m 1,0,-1
 765 329 l 1,1,2
 764 331 764 331 764 334 c 0,3,4
 763 337 763 337 762 338 c 2,5,-1
 641 622 l 1,6,-1
 237 622 l 1,7,-1
 116 338 l 2,8,9
 115 337 115 337 114 334 c 0,10,11
 113 331 113 331 113 329 c 1,12,-1
 293 329 l 1,13,-1
 347 219 l 1,14,-1
 530 219 l 1,15,-1
 585 329 l 1,0,-1
878 312 m 2,16,-1
 878 37 l 2,17,18
 878 22 878 22 867 11 c 0,19,20
 856 0 856 0 841 0 c 2,21,-1
 37 0 l 2,22,23
 22 0 22 0 11 11 c 0,24,25
 0 22 0 22 0 37 c 2,26,-1
 0 312 l 2,27,28
 0 348 0 348 14 382 c 1,29,-1
 151 697 l 2,30,31
 157 711 157 711 171 722 c 0,32,33
 186 731 186 731 201 731 c 2,34,-1
 677 731 l 2,35,36
 692 731 692 731 707 722 c 0,37,38
 722 713 722 713 727 697 c 2,39,-1
 863 382 l 1,40,41
 878 348 878 348 878 312 c 2,16,-1
EndSplineSet
Validated: 1
EndChar

StartChar: uniF01D
Encoding: 34 61469 29
Width: 877
Flags: W
LayerCount: 2
Fore
SplineSet
658 366 m 0,0,1
 658 344 658 344 639 334 c 2,2,-1
 347 169 l 2,3,4
 339 165 339 165 329 165 c 0,5,6
 320 165 320 165 311 170 c 0,7,8
 293 180 293 180 293 201 c 2,9,-1
 293 530 l 2,10,11
 293 552 293 552 311 562 c 1,12,13
 328 573 328 573 347 562 c 2,14,-1
 639 397 l 2,15,16
 658 388 658 388 658 366 c 0,0,1
731 366 m 0,17,18
 731 425 731 425 709 479 c 0,19,20
 685 533 685 533 646 572 c 0,21,22
 606 612 606 612 552 635 c 0,23,24
 498 659 498 659 439 658 c 0,25,26
 380 658 380 658 326 635 c 0,27,28
 272 611 272 611 232 572 c 0,29,30
 192 532 192 532 169 479 c 0,31,32
 145 425 145 425 146 366 c 0,33,34
 146 307 146 307 169 252 c 0,35,36
 193 198 193 198 232 159 c 0,37,38
 272 119 272 119 326 96 c 0,39,40
 380 72 380 72 439 73 c 0,41,42
 498 73 498 73 552 96 c 0,43,44
 606 120 606 120 646 159 c 0,45,46
 686 199 686 199 709 252 c 0,47,48
 731 307 731 307 731 366 c 0,17,18
878 366 m 0,49,50
 878 246 878 246 819 145 c 0,51,52
 761 45 761 45 659 -14 c 0,53,54
 559 -72 559 -72 439 -73 c 0,55,56
 319 -73 319 -73 218 -14 c 0,57,58
 118 44 118 44 58 145 c 0,59,60
 0 245 0 245 0 366 c 0,61,62
 0 486 0 486 58 586 c 0,63,64
 116 686 116 686 218 745 c 0,65,66
 318 803 318 803 439 805 c 0,67,68
 559 805 559 805 659 745 c 0,69,70
 759 687 759 687 819 586 c 0,71,72
 878 486 878 486 878 366 c 0,49,50
EndSplineSet
Validated: 33
EndChar

StartChar: uniF01E
Encoding: 35 61470 30
Width: 877
Flags: W
LayerCount: 2
Fore
SplineSet
878 731 m 2,0,-1
 878 475 l 2,1,2
 878 460 878 460 867 450 c 0,3,4
 856 439 856 439 841 439 c 2,5,-1
 585 439 l 2,6,7
 561 439 561 439 552 462 c 0,8,9
 543 485 543 485 559 501 c 2,10,-1
 638 580 l 1,11,12
 553 658 553 658 439 658 c 0,13,14
 380 658 380 658 326 635 c 0,15,16
 272 611 272 611 232 572 c 0,17,18
 192 532 192 532 169 479 c 0,19,20
 145 425 145 425 146 366 c 0,21,22
 146 307 146 307 169 252 c 0,23,24
 193 198 193 198 232 159 c 0,25,26
 272 119 272 119 326 96 c 0,27,28
 380 72 380 72 439 73 c 0,29,30
 535 73 535 73 612 130 c 0,31,32
 689 187 689 187 718 280 c 0,33,34
 722 293 722 293 735 293 c 2,35,-1
 849 293 l 2,36,37
 858 293 858 293 863 286 c 0,38,39
 869 279 869 279 867 270 c 0,40,41
 844 170 844 170 783 92 c 0,42,43
 721 14 721 14 631 -30 c 0,44,45
 541 -73 541 -73 439 -73 c 0,46,47
 350 -73 350 -73 268 -38 c 0,48,49
 187 -3 187 -3 129 55 c 0,50,51
 71 113 71 113 35 196 c 0,52,53
 0 277 0 277 0 366 c 0,54,55
 0 455 0 455 35 536 c 0,56,57
 70 617 70 617 129 676 c 0,58,59
 187 734 187 734 268 770 c 0,60,61
 349 805 349 805 439 805 c 0,62,63
 523 805 523 805 601 773 c 0,64,65
 680 741 680 741 741 683 c 1,66,-1
 815 757 l 1,67,68
 831 774 831 774 855 765 c 0,69,70
 878 755 878 755 878 731 c 2,0,-1
EndSplineSet
Validated: 33
EndChar

StartChar: uniF021
Encoding: 36 61473 31
Width: 877
Flags: W
LayerCount: 2
Fore
SplineSet
863 274 m 0,0,1
 863 271 863 271 863 270 c 0,2,3
 826 116 826 116 710 22 c 0,4,5
 593 -73 593 -73 436 -73 c 0,6,7
 353 -73 353 -73 275 -42 c 0,8,9
 197 -10 197 -10 136 48 c 1,10,-1
 62 -26 l 2,11,12
 51 -37 51 -37 37 -37 c 0,13,14
 22 -37 22 -37 11 -26 c 0,15,16
 0 -15 0 -15 0 0 c 2,17,-1
 0 256 l 2,18,19
 0 271 0 271 11 282 c 0,20,21
 22 293 22 293 37 293 c 2,22,-1
 293 293 l 2,23,24
 308 293 308 293 318 282 c 0,25,26
 329 271 329 271 329 256 c 0,27,28
 329 241 329 241 318 230 c 2,29,-1
 240 152 l 1,30,31
 281 114 281 114 332 94 c 0,32,33
 383 74 383 74 439 73 c 0,34,35
 516 73 516 73 582 111 c 0,36,37
 649 148 649 148 688 213 c 0,38,39
 694 222 694 222 718 280 c 1,40,41
 722 293 722 293 735 293 c 2,42,-1
 845 293 l 2,43,44
 852 293 852 293 858 287 c 0,45,46
 863 281 863 281 863 274 c 0,0,1
878 731 m 2,47,-1
 878 475 l 2,48,49
 878 460 878 460 867 450 c 0,50,51
 856 439 856 439 841 439 c 2,52,-1
 585 439 l 2,53,54
 570 439 570 439 559 450 c 0,55,56
 548 461 548 461 549 475 c 0,57,58
 549 490 549 490 559 501 c 2,59,-1
 638 580 l 1,60,61
 553 658 553 658 439 658 c 0,62,63
 362 658 362 658 296 622 c 0,64,65
 229 585 229 585 189 519 c 0,66,67
 183 510 183 510 160 452 c 1,68,69
 156 439 156 439 142 439 c 2,70,-1
 29 439 l 2,71,72
 22 439 22 439 15 444 c 0,73,74
 10 449 10 449 10 457 c 2,75,-1
 10 461 l 1,76,77
 47 615 47 615 165 710 c 0,78,79
 282 805 282 805 439 805 c 0,80,81
 522 805 522 805 601 773 c 0,82,83
 680 741 680 741 741 683 c 1,84,-1
 815 757 l 2,85,86
 826 768 826 768 841 768 c 0,87,88
 856 768 856 768 867 757 c 0,89,90
 878 746 878 746 878 731 c 2,47,-1
EndSplineSet
Validated: 1
EndChar

StartChar: uniF022
Encoding: 37 61474 32
Width: 1024
Flags: W
LayerCount: 2
Fore
SplineSet
219 201 m 2,0,-1
 219 165 l 2,1,2
 219 158 219 158 214 152 c 0,3,4
 209 147 209 147 201 146 c 2,5,-1
 165 146 l 2,6,7
 158 146 158 146 152 152 c 0,8,9
 147 157 147 157 146 165 c 2,10,-1
 146 201 l 2,11,12
 146 208 146 208 152 214 c 0,13,14
 157 219 157 219 165 219 c 2,15,-1
 201 219 l 2,16,17
 208 219 208 219 214 214 c 0,18,19
 219 208 219 208 219 201 c 2,0,-1
219 347 m 2,20,-1
 219 311 l 2,21,22
 219 304 219 304 214 298 c 0,23,24
 209 293 209 293 201 293 c 2,25,-1
 165 293 l 2,26,27
 158 293 158 293 152 298 c 0,28,29
 147 303 147 303 146 311 c 2,30,-1
 146 347 l 2,31,32
 146 354 146 354 152 360 c 0,33,34
 157 365 157 365 165 366 c 2,35,-1
 201 366 l 2,36,37
 208 366 208 366 214 360 c 0,38,39
 219 354 219 354 219 347 c 2,20,-1
219 494 m 2,40,-1
 219 457 l 2,41,42
 219 450 219 450 214 444 c 0,43,44
 209 439 209 439 201 439 c 2,45,-1
 165 439 l 2,46,47
 158 439 158 439 152 444 c 0,48,49
 147 449 147 449 146 457 c 2,50,-1
 146 494 l 2,51,52
 146 501 146 501 152 507 c 0,53,54
 157 512 157 512 165 512 c 2,55,-1
 201 512 l 2,56,57
 208 512 208 512 214 507 c 0,58,59
 219 501 219 501 219 494 c 2,40,-1
878 201 m 2,60,-1
 878 165 l 2,61,62
 878 158 878 158 872 152 c 0,63,64
 867 147 867 147 859 146 c 2,65,-1
 311 146 l 2,66,67
 304 146 304 146 298 152 c 0,68,69
 293 157 293 157 293 165 c 2,70,-1
 293 201 l 2,71,72
 293 208 293 208 298 214 c 0,73,74
 303 219 303 219 311 219 c 2,75,-1
 859 219 l 2,76,77
 866 219 866 219 872 214 c 0,78,79
 878 208 878 208 878 201 c 2,60,-1
878 347 m 2,80,-1
 878 311 l 2,81,82
 878 304 878 304 872 298 c 0,83,84
 867 293 867 293 859 293 c 2,85,-1
 311 293 l 2,86,87
 304 293 304 293 298 298 c 0,88,89
 293 303 293 303 293 311 c 2,90,-1
 293 347 l 2,91,92
 293 354 293 354 298 360 c 0,93,94
 303 365 303 365 311 366 c 2,95,-1
 859 366 l 2,96,97
 866 366 866 366 872 360 c 0,98,99
 878 354 878 354 878 347 c 2,80,-1
878 494 m 2,100,-1
 878 457 l 2,101,102
 878 450 878 450 872 444 c 0,103,104
 867 439 867 439 859 439 c 2,105,-1
 311 439 l 2,106,107
 304 439 304 439 298 444 c 0,108,109
 293 449 293 449 293 457 c 2,110,-1
 293 494 l 2,111,112
 293 501 293 501 298 507 c 0,113,114
 303 512 303 512 311 512 c 2,115,-1
 859 512 l 2,116,117
 866 512 866 512 872 507 c 0,118,119
 878 501 878 501 878 494 c 2,100,-1
951 91 m 2,120,-1
 951 567 l 2,121,122
 951 574 951 574 945 580 c 0,123,124
 940 585 940 585 933 585 c 2,125,-1
 91 585 l 2,126,127
 84 585 84 585 79 580 c 0,128,129
 74 575 74 575 73 567 c 2,130,-1
 73 91 l 2,131,132
 73 84 73 84 79 79 c 0,133,134
 84 74 84 74 91 73 c 2,135,-1
 933 73 l 2,136,137
 940 73 940 73 945 79 c 0,138,139
 951 84 951 84 951 91 c 2,120,-1
1024 713 m 2,140,-1
 1024 91 l 2,141,142
 1024 53 1024 53 997 27 c 0,143,144
 970 0 970 0 933 0 c 2,145,-1
 91 0 l 2,146,147
 53 0 53 0 27 27 c 0,148,149
 0 54 0 54 0 91 c 2,150,-1
 0 713 l 2,151,152
 0 751 0 751 27 777 c 0,153,154
 54 804 54 804 91 805 c 2,155,-1
 933 805 l 2,156,157
 971 805 971 805 997 777 c 0,158,159
 1024 751 1024 751 1024 713 c 2,140,-1
EndSplineSet
Validated: 1
EndChar

StartChar: uniF023
Encoding: 38 61475 33
Width: 657
Flags: W
LayerCount: 2
Fore
SplineSet
402 293 m 0,0,1
 402 324 402 324 381 344 c 0,2,3
 359 366 359 366 329 366 c 0,4,5
 298 366 298 366 278 344 c 0,6,7
 256 322 256 322 256 293 c 0,8,9
 256 271 256 271 267 254 c 0,10,11
 278 237 278 237 296 227 c 1,12,-1
 257 96 l 2,13,14
 254 88 254 88 259 81 c 0,15,16
 265 74 265 74 274 73 c 2,17,-1
 384 73 l 2,18,19
 393 73 393 73 399 81 c 0,20,21
 405 88 405 88 401 96 c 2,22,-1
 362 227 l 1,23,24
 380 236 380 236 391 254 c 0,25,26
 402 271 402 271 402 293 c 0,0,1
183 439 m 1,27,-1
 475 439 l 1,28,-1
 475 549 l 2,29,30
 475 609 475 609 432 652 c 0,31,32
 389 695 389 695 329 695 c 0,33,34
 269 695 269 695 225 652 c 0,35,36
 182 609 182 609 183 549 c 2,37,-1
 183 439 l 1,27,-1
658 384 m 2,38,-1
 658 55 l 2,39,40
 658 32 658 32 642 16 c 0,41,42
 626 0 626 0 603 0 c 2,43,-1
 55 0 l 2,44,45
 32 0 32 0 16 16 c 0,46,47
 0 32 0 32 0 55 c 2,48,-1
 0 384 l 2,49,50
 0 407 0 407 16 423 c 0,51,52
 32 439 32 439 55 439 c 2,53,-1
 73 439 l 1,54,-1
 73 549 l 2,55,56
 73 654 73 654 148 729 c 0,57,58
 224 805 224 805 329 805 c 0,59,60
 434 805 434 805 510 729 c 0,61,62
 586 653 586 653 585 549 c 2,63,-1
 585 439 l 1,64,-1
 603 439 l 2,65,66
 626 439 626 439 642 423 c 0,67,68
 658 407 658 407 658 384 c 2,38,-1
EndSplineSet
Validated: 33
EndChar

StartChar: uniF024
Encoding: 39 61476 34
Width: 1024
Flags: W
LayerCount: 2
Fore
SplineSet
183 731 m 0,0,1
 183 690 183 690 146 669 c 1,2,-1
 146 -55 l 2,3,4
 146 -62 146 -62 141 -68 c 0,5,6
 136 -73 136 -73 128 -73 c 2,7,-1
 91 -73 l 2,8,9
 84 -73 84 -73 79 -68 c 0,10,11
 74 -63 74 -63 73 -55 c 2,12,-1
 73 669 l 1,13,14
 36 691 36 691 37 731 c 0,15,16
 37 762 37 762 58 783 c 0,17,18
 80 805 80 805 110 805 c 0,19,20
 141 805 141 805 162 783 c 0,21,22
 183 762 183 762 183 731 c 0,0,1
1024 695 m 2,23,-1
 1024 259 l 2,24,25
 1024 245 1024 245 1017 237 c 0,26,27
 1010 229 1010 229 994 221 c 0,28,29
 871 154 871 154 783 155 c 0,30,31
 748 155 748 155 713 168 c 0,32,33
 677 180 677 180 651 195 c 0,34,35
 624 210 624 210 585 222 c 0,36,37
 545 234 545 234 504 234 c 0,38,39
 394 234 394 234 239 152 c 0,40,41
 230 147 230 147 219 146 c 0,42,43
 204 146 204 146 194 157 c 0,44,45
 183 168 183 168 183 183 c 2,46,-1
 183 607 l 2,47,48
 183 625 183 625 201 638 c 1,49,50
 213 646 213 646 246 663 c 0,51,52
 381 732 381 732 486 731 c 0,53,54
 547 731 547 731 600 715 c 0,55,56
 653 699 653 699 726 665 c 1,57,58
 748 654 748 654 776 653 c 0,59,60
 807 653 807 653 843 666 c 0,61,62
 879 678 879 678 906 692 c 0,63,64
 933 707 933 707 956 720 c 0,65,66
 980 732 980 732 987 731 c 0,67,68
 1002 731 1002 731 1013 721 c 0,69,70
 1024 710 1024 710 1024 695 c 2,23,-1
EndSplineSet
Validated: 33
EndChar

StartChar: uniF025
Encoding: 40 61477 35
Width: 950
Flags: W
LayerCount: 2
Fore
SplineSet
951 372 m 0,0,1
 951 277 951 277 916 193 c 2,2,-1
 905 164 l 1,3,-1
 800 145 l 1,4,5
 788 98 788 98 748 68 c 0,6,7
 709 37 709 37 658 37 c 1,8,-1
 658 18 l 2,9,10
 658 10 658 10 653 5 c 0,11,12
 648 0 648 0 640 0 c 2,13,-1
 603 0 l 2,14,15
 595 0 595 0 590 5 c 0,16,17
 585 10 585 10 585 18 c 2,18,-1
 585 347 l 2,19,20
 585 355 585 355 590 360 c 0,21,22
 595 365 595 365 603 366 c 2,23,-1
 640 366 l 2,24,25
 648 366 648 366 653 360 c 0,26,27
 658 355 658 355 658 347 c 2,28,-1
 658 329 l 1,29,30
 699 329 699 329 732 309 c 0,31,32
 766 289 766 289 785 254 c 1,33,-1
 824 261 l 1,34,35
 840 315 840 315 841 372 c 0,36,37
 841 457 841 457 791 530 c 0,38,39
 741 605 741 605 655 650 c 0,40,41
 570 695 570 695 475 695 c 0,42,43
 380 695 380 695 295 650 c 0,44,45
 210 605 210 605 160 530 c 0,46,47
 110 455 110 455 110 372 c 0,48,49
 110 316 110 316 126 261 c 1,50,-1
 165 254 l 1,51,52
 184 288 184 288 218 309 c 0,53,54
 252 329 252 329 293 329 c 1,55,-1
 293 347 l 2,56,57
 293 355 293 355 298 360 c 0,58,59
 303 365 303 365 311 366 c 2,60,-1
 347 366 l 2,61,62
 355 366 355 366 360 360 c 0,63,64
 365 355 365 355 366 347 c 2,65,-1
 366 18 l 2,66,67
 366 10 366 10 360 5 c 0,68,69
 355 0 355 0 347 0 c 2,70,-1
 311 0 l 2,71,72
 303 0 303 0 298 5 c 0,73,74
 293 10 293 10 293 18 c 2,75,-1
 293 37 l 1,76,77
 243 37 243 37 203 68 c 0,78,79
 164 99 164 99 152 145 c 1,80,-1
 46 164 l 1,81,-1
 34 193 l 2,82,83
 0 278 0 278 0 372 c 0,84,85
 0 458 0 458 38 538 c 0,86,87
 76 618 76 618 140 676 c 0,88,89
 203 734 203 734 293 770 c 0,90,91
 381 805 381 805 475 805 c 0,92,93
 570 805 570 805 658 770 c 0,94,95
 746 735 746 735 810 676 c 0,96,97
 873 618 873 618 912 538 c 0,98,99
 951 458 951 458 951 372 c 0,0,1
EndSplineSet
Validated: 1
EndChar

StartChar: uniF026
Encoding: 41 61478 36
Width: 438
Flags: W
LayerCount: 2
Fore
SplineSet
439 677 m 2,0,-1
 439 55 l 2,1,2
 439 40 439 40 428 29 c 0,3,4
 417 18 417 18 402 18 c 0,5,6
 387 18 387 18 377 29 c 2,7,-1
 186 219 l 1,8,-1
 37 219 l 2,9,10
 22 219 22 219 11 230 c 0,11,12
 0 241 0 241 0 256 c 2,13,-1
 0 475 l 2,14,15
 0 490 0 490 11 501 c 0,16,17
 22 512 22 512 37 512 c 2,18,-1
 186 512 l 1,19,-1
 377 702 l 2,20,21
 388 713 388 713 402 713 c 0,22,23
 417 713 417 713 428 702 c 0,24,25
 439 692 439 692 439 677 c 2,0,-1
EndSplineSet
Validated: 1
EndChar

StartChar: uniF027
Encoding: 42 61479 37
Width: 657
Flags: W
LayerCount: 2
Fore
SplineSet
439 677 m 2,0,-1
 439 55 l 2,1,2
 439 40 439 40 428 29 c 0,3,4
 417 18 417 18 402 18 c 0,5,6
 387 18 387 18 377 29 c 2,7,-1
 186 219 l 1,8,-1
 37 219 l 2,9,10
 22 219 22 219 11 230 c 0,11,12
 0 241 0 241 0 256 c 2,13,-1
 0 475 l 2,14,15
 0 490 0 490 11 501 c 0,16,17
 22 512 22 512 37 512 c 2,18,-1
 186 512 l 1,19,-1
 377 702 l 2,20,21
 388 713 388 713 402 713 c 0,22,23
 417 713 417 713 428 702 c 0,24,25
 439 692 439 692 439 677 c 2,0,-1
658 366 m 0,26,27
 658 323 658 323 634 285 c 0,28,29
 609 247 609 247 569 231 c 0,30,31
 563 228 563 228 555 228 c 0,32,33
 540 228 540 228 529 240 c 0,34,35
 518 250 518 250 519 265 c 0,36,37
 519 277 519 277 525 286 c 0,38,39
 532 294 532 294 543 300 c 0,40,41
 552 306 552 306 562 313 c 0,42,43
 571 320 571 320 579 333 c 0,44,45
 586 346 586 346 585 366 c 0,46,47
 585 385 585 385 579 398 c 0,48,49
 572 411 572 411 562 419 c 0,50,51
 553 426 553 426 543 432 c 0,52,53
 534 438 534 438 525 446 c 0,54,55
 518 454 518 454 519 466 c 0,56,57
 519 481 519 481 529 493 c 0,58,59
 540 503 540 503 555 503 c 0,60,61
 563 503 563 503 569 500 c 1,62,63
 609 485 609 485 634 446 c 0,64,65
 658 409 658 409 658 366 c 0,26,27
EndSplineSet
Validated: 33
EndChar

StartChar: uniF028
Encoding: 43 61480 38
Width: 950
Flags: W
LayerCount: 2
Fore
SplineSet
439 677 m 2,0,-1
 439 55 l 2,1,2
 439 40 439 40 428 29 c 0,3,4
 417 18 417 18 402 18 c 0,5,6
 387 18 387 18 377 29 c 2,7,-1
 186 219 l 1,8,-1
 37 219 l 2,9,10
 22 219 22 219 11 230 c 0,11,12
 0 241 0 241 0 256 c 2,13,-1
 0 475 l 2,14,15
 0 490 0 490 11 501 c 0,16,17
 22 512 22 512 37 512 c 2,18,-1
 186 512 l 1,19,-1
 377 702 l 2,20,21
 388 713 388 713 402 713 c 0,22,23
 417 713 417 713 428 702 c 0,24,25
 439 692 439 692 439 677 c 2,0,-1
658 366 m 0,26,27
 658 323 658 323 634 285 c 0,28,29
 609 247 609 247 569 231 c 0,30,31
 563 228 563 228 555 228 c 0,32,33
 540 228 540 228 529 240 c 0,34,35
 518 250 518 250 519 265 c 0,36,37
 519 277 519 277 525 286 c 0,38,39
 532 294 532 294 543 300 c 0,40,41
 552 306 552 306 562 313 c 0,42,43
 571 320 571 320 579 333 c 0,44,45
 586 346 586 346 585 366 c 0,46,47
 585 385 585 385 579 398 c 0,48,49
 572 411 572 411 562 419 c 0,50,51
 553 426 553 426 543 432 c 0,52,53
 534 438 534 438 525 446 c 0,54,55
 518 454 518 454 519 466 c 0,56,57
 519 481 519 481 529 493 c 0,58,59
 540 503 540 503 555 503 c 0,60,61
 563 503 563 503 569 500 c 1,62,63
 609 485 609 485 634 446 c 0,64,65
 658 409 658 409 658 366 c 0,26,27
805 366 m 0,66,67
 805 279 805 279 756 204 c 0,68,69
 708 130 708 130 628 96 c 0,70,71
 621 93 621 93 613 94 c 0,72,73
 598 94 598 94 587 104 c 0,74,75
 576 115 576 115 575 130 c 0,76,77
 575 153 575 153 598 164 c 0,78,79
 630 180 630 180 642 189 c 0,80,81
 684 220 684 220 708 266 c 0,82,83
 732 312 732 312 731 366 c 0,84,85
 731 418 731 418 708 465 c 0,86,87
 684 511 684 511 642 543 c 0,88,89
 631 551 631 551 598 567 c 0,90,91
 575 578 575 578 575 601 c 0,92,93
 575 616 575 616 587 627 c 0,94,95
 598 638 598 638 612 638 c 0,96,97
 619 638 619 638 628 635 c 0,98,99
 708 601 708 601 756 527 c 0,100,101
 805 453 805 453 805 366 c 0,66,67
951 366 m 0,102,103
 951 235 951 235 879 124 c 0,104,105
 806 14 806 14 685 -38 c 0,106,107
 678 -41 678 -41 671 -41 c 0,108,109
 656 -41 656 -41 644 -30 c 0,110,111
 633 -19 633 -19 634 -4 c 0,112,113
 634 16 634 16 656 30 c 0,114,115
 660 32 660 32 669 36 c 0,116,117
 678 40 678 40 682 42 c 0,118,119
 709 56 709 56 728 71 c 0,120,121
 799 123 799 123 839 201 c 0,122,123
 879 279 879 279 878 366 c 0,124,125
 878 453 878 453 839 530 c 0,126,127
 799 608 799 608 728 660 c 0,128,129
 708 675 708 675 682 690 c 0,130,131
 678 692 678 692 669 695 c 0,132,133
 660 699 660 699 656 701 c 0,134,135
 633 714 633 714 634 735 c 0,136,137
 634 750 634 750 644 761 c 0,138,139
 655 772 655 772 671 772 c 0,140,141
 678 772 678 772 685 769 c 0,142,143
 806 717 806 717 879 607 c 0,144,145
 951 497 951 497 951 366 c 0,102,103
EndSplineSet
Validated: 33
EndChar

StartChar: uniF029
Encoding: 44 61481 39
Width: 803
Flags: W
LayerCount: 2
Fore
SplineSet
219 219 m 1,0,-1
 219 146 l 1,1,-1
 146 146 l 1,2,-1
 146 219 l 1,3,-1
 219 219 l 1,0,-1
219 658 m 1,4,-1
 219 585 l 1,5,-1
 146 585 l 1,6,-1
 146 658 l 1,7,-1
 219 658 l 1,4,-1
658 658 m 1,8,-1
 658 585 l 1,9,-1
 585 585 l 1,10,-1
 585 658 l 1,11,-1
 658 658 l 1,8,-1
73 74 m 1,12,-1
 293 74 l 1,13,-1
 293 293 l 1,14,-1
 73 293 l 1,15,-1
 73 74 l 1,12,-1
73 512 m 1,16,-1
 293 512 l 1,17,-1
 293 731 l 1,18,-1
 73 731 l 1,19,-1
 73 512 l 1,16,-1
512 512 m 1,20,-1
 731 512 l 1,21,-1
 731 731 l 1,22,-1
 512 731 l 1,23,-1
 512 512 l 1,20,-1
366 366 m 1,24,-1
 366 0 l 1,25,-1
 0 0 l 1,26,-1
 0 366 l 1,27,-1
 366 366 l 1,24,-1
658 73 m 1,28,-1
 658 0 l 1,29,-1
 585 0 l 1,30,-1
 585 73 l 1,31,-1
 658 73 l 1,28,-1
805 73 m 1,32,-1
 805 0 l 1,33,-1
 731 0 l 1,34,-1
 731 73 l 1,35,-1
 805 73 l 1,32,-1
805 366 m 1,36,-1
 805 146 l 1,37,-1
 585 146 l 1,38,-1
 585 219 l 1,39,-1
 512 219 l 1,40,-1
 512 0 l 1,41,-1
 439 0 l 1,42,-1
 439 366 l 1,43,-1
 658 366 l 1,44,-1
 658 293 l 1,45,-1
 731 293 l 1,46,-1
 731 366 l 1,47,-1
 805 366 l 1,36,-1
366 805 m 1,48,-1
 366 439 l 1,49,-1
 0 439 l 1,50,-1
 0 805 l 1,51,-1
 366 805 l 1,48,-1
805 805 m 1,52,-1
 805 439 l 1,53,-1
 439 439 l 1,54,-1
 439 805 l 1,55,-1
 805 805 l 1,52,-1
EndSplineSet
Validated: 1
EndChar

StartChar: uniF02A
Encoding: 45 61482 40
Width: 1024
Flags: W
LayerCount: 2
Fore
SplineSet
384 805 m 1,0,-1
 384 -73 l 1,1,-1
 347 -73 l 1,2,-1
 347 805 l 1,3,-1
 384 805 l 1,0,-1
805 805 m 1,4,-1
 805 -73 l 1,5,-1
 768 -73 l 1,6,-1
 768 805 l 1,7,-1
 805 805 l 1,4,-1
896 805 m 1,8,-1
 896 -73 l 1,9,-1
 859 -73 l 1,10,-1
 859 805 l 1,11,-1
 896 805 l 1,8,-1
329 805 m 1,12,-1
 329 -73 l 1,13,-1
 293 -73 l 1,14,-1
 293 805 l 1,15,-1
 329 805 l 1,12,-1
731 805 m 1,16,-1
 731 -73 l 1,17,-1
 585 -73 l 1,18,-1
 585 805 l 1,19,-1
 731 805 l 1,16,-1
512 805 m 1,20,-1
 512 -73 l 1,21,-1
 439 -73 l 1,22,-1
 439 805 l 1,23,-1
 512 805 l 1,20,-1
256 805 m 1,24,-1
 256 -73 l 1,25,-1
 183 -73 l 1,26,-1
 183 805 l 1,27,-1
 256 805 l 1,24,-1
1024 805 m 1,28,-1
 1024 -73 l 1,29,-1
 951 -73 l 1,30,-1
 951 805 l 1,31,-1
 1024 805 l 1,28,-1
146 805 m 1,32,-1
 146 -73 l 1,33,-1
 0 -73 l 1,34,-1
 0 805 l 1,35,-1
 146 805 l 1,32,-1
EndSplineSet
Validated: 1
EndChar

StartChar: uniF02B
Encoding: 46 61483 41
Width: 877
Flags: W
LayerCount: 2
Fore
SplineSet
256 622 m 0,0,1
 256 653 256 653 234 674 c 0,2,3
 212 696 212 696 183 695 c 0,4,5
 152 695 152 695 131 674 c 0,6,7
 109 652 109 652 110 622 c 0,8,9
 110 591 110 591 131 570 c 0,10,11
 153 548 153 548 183 549 c 0,12,13
 214 549 214 549 234 570 c 0,14,15
 256 591 256 591 256 622 c 0,0,1
865 293 m 0,16,17
 865 262 865 262 845 241 c 2,18,-1
 564 -40 l 1,19,20
 541 -62 541 -62 512 -61 c 0,21,22
 481 -61 481 -61 461 -40 c 2,23,-1
 52 369 l 2,24,25
 30 391 30 391 15 427 c 0,26,27
 0 464 0 464 0 494 c 2,28,-1
 0 731 l 2,29,30
 0 761 0 761 22 783 c 0,31,32
 44 805 44 805 73 805 c 2,33,-1
 311 805 l 2,34,35
 342 805 342 805 378 790 c 0,36,37
 415 775 415 775 436 753 c 2,38,-1
 845 344 l 1,39,40
 865 323 865 323 865 293 c 0,16,17
EndSplineSet
Validated: 33
EndChar

StartChar: uniF02C
Encoding: 47 61484 42
Width: 1096
Flags: W
LayerCount: 2
Fore
SplineSet
256 622 m 0,0,1
 256 653 256 653 234 674 c 0,2,3
 212 696 212 696 183 695 c 0,4,5
 152 695 152 695 131 674 c 0,6,7
 109 652 109 652 110 622 c 0,8,9
 110 591 110 591 131 570 c 0,10,11
 153 548 153 548 183 549 c 0,12,13
 214 549 214 549 234 570 c 0,14,15
 256 591 256 591 256 622 c 0,0,1
865 293 m 0,16,17
 865 262 865 262 845 241 c 2,18,-1
 564 -40 l 1,19,20
 541 -62 541 -62 512 -61 c 0,21,22
 481 -61 481 -61 461 -40 c 2,23,-1
 52 369 l 2,24,25
 30 391 30 391 15 427 c 0,26,27
 0 464 0 464 0 494 c 2,28,-1
 0 731 l 2,29,30
 0 761 0 761 22 783 c 0,31,32
 44 805 44 805 73 805 c 2,33,-1
 311 805 l 2,34,35
 342 805 342 805 378 790 c 0,36,37
 415 775 415 775 436 753 c 2,38,-1
 845 344 l 1,39,40
 865 323 865 323 865 293 c 0,16,17
1085 293 m 0,41,42
 1085 262 1085 262 1064 241 c 2,43,-1
 783 -40 l 1,44,45
 760 -62 760 -62 731 -61 c 0,46,47
 711 -61 711 -61 697 -53 c 0,48,49
 684 -45 684 -45 668 -28 c 1,50,-1
 936 241 l 2,51,52
 958 263 958 263 957 293 c 0,53,54
 957 323 957 323 936 344 c 1,55,-1
 527 753 l 2,56,57
 505 775 505 775 469 790 c 0,58,59
 432 805 432 805 402 805 c 2,60,-1
 530 805 l 2,61,62
 561 805 561 805 597 790 c 0,63,64
 634 775 634 775 655 753 c 2,65,-1
 1064 344 l 1,66,67
 1085 323 1085 323 1085 293 c 0,41,42
EndSplineSet
Validated: 33
EndChar

StartChar: uniF02D
Encoding: 48 61485 43
Width: 950
Flags: W
LayerCount: 2
Fore
SplineSet
937 604 m 1,0,1
 960 571 960 571 947 530 c 2,2,-1
 790 13 l 2,3,4
 779 -24 779 -24 746 -48 c 0,5,6
 713 -73 713 -73 676 -73 c 2,7,-1
 148 -73 l 2,8,9
 104 -73 104 -73 63 -43 c 0,10,11
 22 -12 22 -12 7 33 c 0,12,13
 -6 71 -6 71 6 105 c 1,14,15
 6 107 6 107 7 121 c 0,16,17
 9 134 9 134 9 141 c 0,18,19
 10 145 10 145 8 154 c 0,20,21
 6 162 6 162 6 165 c 0,22,23
 7 171 7 171 11 177 c 0,24,25
 14 183 14 183 20 190 c 0,26,27
 26 198 26 198 30 204 c 0,28,29
 43 226 43 226 55 256 c 0,30,31
 67 287 67 287 73 308 c 0,32,33
 75 314 75 314 73 326 c 0,34,35
 72 337 72 337 73 342 c 0,36,37
 75 348 75 348 82 357 c 0,38,39
 90 366 90 366 92 371 c 0,40,41
 104 391 104 391 116 424 c 0,42,43
 128 456 128 456 130 475 c 0,44,45
 131 480 131 480 129 494 c 0,46,47
 127 507 127 507 129 509 c 1,48,49
 131 516 131 516 141 526 c 0,50,51
 151 536 151 536 155 540 c 0,52,53
 166 555 166 555 178 588 c 0,54,55
 191 622 191 622 195 643 c 0,56,57
 196 647 196 647 193 657 c 0,58,59
 191 667 191 667 191 673 c 0,60,61
 192 677 192 677 197 683 c 0,62,63
 201 689 201 689 207 696 c 0,64,65
 213 703 213 703 216 708 c 0,66,67
 220 715 220 715 226 725 c 0,68,69
 231 735 231 735 234 745 c 0,70,71
 238 754 238 754 244 766 c 0,72,73
 249 777 249 777 255 784 c 0,74,75
 261 791 261 791 270 798 c 0,76,77
 279 804 279 804 291 804 c 0,78,79
 302 804 302 804 317 801 c 1,80,-1
 317 800 l 1,81,82
 339 805 339 805 346 805 c 2,83,-1
 781 805 l 2,84,85
 823 805 823 805 846 772 c 0,86,87
 869 740 869 740 856 698 c 2,88,-1
 700 180 l 2,89,90
 680 112 680 112 659 93 c 0,91,92
 639 74 639 74 586 73 c 2,93,-1
 89 73 l 2,94,95
 74 73 74 73 68 65 c 0,96,97
 62 56 62 56 67 40 c 0,98,99
 80 0 80 0 150 0 c 2,100,-1
 677 0 l 2,101,102
 693 0 693 0 709 9 c 0,103,104
 724 18 724 18 728 33 c 2,105,-1
 900 597 l 2,106,107
 904 609 904 609 903 629 c 1,108,109
 925 620 925 620 937 604 c 1,0,1
329 603 m 2,110,111
 327 596 327 596 330 591 c 0,112,113
 333 586 333 586 341 585 c 2,114,-1
 688 585 l 2,115,116
 695 585 695 585 703 591 c 0,117,118
 710 596 710 596 713 603 c 2,119,-1
 725 640 l 2,120,121
 727 647 727 647 723 653 c 0,122,123
 720 658 720 658 712 658 c 2,124,-1
 365 658 l 2,125,126
 358 658 358 658 350 653 c 0,127,128
 343 648 343 648 341 640 c 2,129,-1
 329 603 l 2,110,111
282 457 m 2,130,131
 280 450 280 450 283 444 c 0,132,133
 286 439 286 439 294 439 c 2,134,-1
 641 439 l 2,135,136
 648 439 648 439 655 444 c 0,137,138
 662 449 662 449 666 457 c 2,139,-1
 677 494 l 2,140,141
 679 501 679 501 676 507 c 0,142,143
 673 512 673 512 665 512 c 2,144,-1
 317 512 l 2,145,146
 310 512 310 512 302 507 c 0,147,148
 295 502 295 502 293 494 c 2,149,-1
 282 457 l 2,130,131
EndSplineSet
Validated: 33
EndChar

StartChar: uniF02E
Encoding: 49 61486 44
Width: 731
Flags: W
LayerCount: 2
Fore
SplineSet
666 805 m 2,0,1
 679 805 679 805 690 800 c 0,2,3
 708 793 708 793 720 776 c 0,4,5
 731 760 731 760 731 740 c 2,6,-1
 731 4 l 2,7,8
 731 -15 731 -15 720 -32 c 0,9,10
 709 -48 709 -48 690 -55 c 0,11,12
 679 -59 679 -59 666 -59 c 0,13,14
 638 -59 638 -59 617 -41 c 1,15,-1
 366 201 l 1,16,-1
 114 -41 l 1,17,18
 94 -59 94 -59 67 -60 c 0,19,20
 54 -60 54 -60 41 -55 c 0,21,22
 23 -48 23 -48 11 -32 c 0,23,24
 0 -16 0 -16 0 4 c 2,25,-1
 0 740 l 2,26,27
 0 759 0 759 11 776 c 0,28,29
 22 792 22 792 41 800 c 0,30,31
 53 805 53 805 67 805 c 2,32,-1
 666 805 l 2,0,1
EndSplineSet
Validated: 1
EndChar

StartChar: uniF02F
Encoding: 50 61487 45
Width: 950
Flags: W
LayerCount: 2
Fore
SplineSet
219 0 m 1,0,-1
 731 0 l 1,1,-1
 731 146 l 1,2,-1
 219 146 l 1,3,-1
 219 0 l 1,0,-1
219 366 m 1,4,-1
 731 366 l 1,5,-1
 731 585 l 1,6,-1
 640 585 l 2,7,8
 617 585 617 585 601 601 c 0,9,10
 585 617 585 617 585 640 c 2,11,-1
 585 731 l 1,12,-1
 219 731 l 1,13,-1
 219 366 l 1,4,-1
878 329 m 0,14,15
 878 344 878 344 867 355 c 0,16,17
 856 366 856 366 841 366 c 0,18,19
 826 366 826 366 815 355 c 0,20,21
 804 344 804 344 805 329 c 0,22,23
 805 314 805 314 815 303 c 0,24,25
 826 292 826 292 841 293 c 0,26,27
 856 293 856 293 867 303 c 0,28,29
 878 314 878 314 878 329 c 0,14,15
951 329 m 2,30,-1
 951 91 l 2,31,32
 951 84 951 84 945 79 c 0,33,34
 940 74 940 74 933 73 c 2,35,-1
 805 73 l 1,36,-1
 805 -18 l 2,37,38
 805 -41 805 -41 788 -57 c 0,39,40
 772 -73 772 -73 750 -73 c 2,41,-1
 201 -73 l 2,42,43
 178 -73 178 -73 162 -57 c 0,44,45
 146 -41 146 -41 146 -18 c 2,46,-1
 146 73 l 1,47,-1
 18 73 l 2,48,49
 11 73 11 73 5 79 c 0,50,51
 0 84 0 84 0 91 c 2,52,-1
 0 329 l 2,53,54
 0 374 0 374 33 407 c 0,55,56
 66 440 66 440 110 439 c 2,57,-1
 146 439 l 1,58,-1
 146 750 l 2,59,60
 146 773 146 773 162 788 c 0,61,62
 178 804 178 804 201 805 c 2,63,-1
 585 805 l 2,64,65
 608 805 608 805 636 794 c 0,66,67
 664 783 664 783 679 766 c 2,68,-1
 766 679 l 2,69,70
 782 663 782 663 794 636 c 0,71,72
 805 608 805 608 805 585 c 2,73,-1
 805 439 l 1,74,-1
 841 439 l 2,75,76
 886 439 886 439 919 407 c 0,77,78
 951 374 951 374 951 329 c 2,30,-1
EndSplineSet
Validated: 33
EndChar

StartChar: uniF030
Encoding: 51 61488 46
Width: 1096
Flags: W
LayerCount: 2
Fore
SplineSet
549 494 m 0,0,1
 617 494 617 494 665 445 c 0,2,3
 713 397 713 397 713 329 c 0,4,5
 713 261 713 261 665 213 c 0,6,7
 617 165 617 165 549 165 c 0,8,9
 481 165 481 165 432 213 c 0,10,11
 384 261 384 261 384 329 c 0,12,13
 384 397 384 397 432 445 c 0,14,15
 481 494 481 494 549 494 c 0,0,1
951 731 m 2,16,17
 1011 731 1011 731 1055 688 c 0,18,19
 1098 645 1098 645 1097 585 c 2,20,-1
 1097 73 l 2,21,22
 1097 13 1097 13 1055 -31 c 0,23,24
 1012 -74 1012 -74 951 -73 c 2,25,-1
 146 -73 l 2,26,27
 86 -73 86 -73 43 -31 c 0,28,29
 0 12 0 12 0 73 c 2,30,-1
 0 585 l 2,31,32
 0 645 0 645 43 688 c 0,33,34
 86 731 86 731 146 731 c 2,35,-1
 274 731 l 1,36,-1
 303 809 l 2,37,38
 314 837 314 837 343 857 c 0,39,40
 372 877 372 877 402 878 c 2,41,-1
 695 878 l 2,42,43
 726 878 726 878 754 857 c 0,44,45
 783 837 783 837 794 809 c 2,46,-1
 823 731 l 1,47,-1
 951 731 l 2,16,17
549 73 m 0,48,49
 654 73 654 73 729 148 c 0,50,51
 804 223 804 223 805 329 c 0,52,53
 805 434 805 434 729 510 c 0,54,55
 654 585 654 585 549 585 c 0,56,57
 444 585 444 585 368 510 c 0,58,59
 293 435 293 435 293 329 c 0,60,61
 293 224 293 224 368 148 c 0,62,63
 444 73 444 73 549 73 c 0,48,49
EndSplineSet
Validated: 33
EndChar

StartChar: uniF031
Encoding: 52 61489 47
Width: 950
Flags: W
LayerCount: 2
Fore
SplineSet
415 558 m 1,0,-1
 317 301 l 1,1,2
 359 300 359 300 404 300 c 0,3,4
 450 299 450 299 473 299 c 0,5,6
 495 299 495 299 503 299 c 2,7,-1
 519 300 l 1,8,9
 501 354 501 354 467 437 c 1,10,11
 438 513 438 513 415 558 c 1,0,-1
12 -73 m 2,12,-1
 0 -73 l 1,13,-1
 1 -28 l 1,14,15
 13 -24 13 -24 47 -17 c 0,16,17
 98 -8 98 -8 110 0 c 1,18,19
 121 9 121 9 137 39 c 1,20,-1
 272 391 l 1,21,-1
 432 805 l 1,22,-1
 475 805 l 1,23,-1
 506 805 l 1,24,-1
 512 793 l 1,25,-1
 629 518 l 2,26,27
 687 380 687 380 700 348 c 0,28,29
 723 290 723 290 755 214 c 1,30,31
 770 181 770 181 792 121 c 0,32,33
 805 83 805 83 829 36 c 1,34,35
 841 8 841 8 849 3 c 1,36,37
 861 -8 861 -8 889 -10 c 1,38,39
 916 -13 916 -13 947 -26 c 1,40,41
 950 -49 950 -49 951 -58 c 0,42,43
 951 -66 951 -66 950 -73 c 1,44,45
 904 -73 904 -73 841 -69 c 1,46,47
 788 -64 788 -64 732 -63 c 0,48,49
 687 -63 687 -63 655 -66 c 1,50,-1
 541 -72 l 1,51,-1
 508 -73 l 1,52,53
 508 -47 508 -47 510 -28 c 1,54,-1
 585 -12 l 1,55,56
 617 -5 617 -5 624 1 c 1,57,58
 631 8 631 8 631 16 c 0,59,60
 631 24 631 24 628 35 c 2,61,-1
 600 100 l 1,62,-1
 548 230 l 1,63,-1
 291 231 l 1,64,65
 275 194 275 194 231 75 c 0,66,67
 218 38 218 38 218 27 c 0,68,69
 218 10 218 10 228 2 c 1,70,71
 243 -10 243 -10 287 -16 c 0,72,73
 289 -16 289 -16 295 -17 c 0,74,75
 301 -18 301 -18 311 -20 c 0,76,77
 322 -22 322 -22 335 -24 c 1,78,79
 336 -40 336 -40 336 -56 c 0,80,81
 336 -65 336 -65 334 -72 c 1,82,83
 296 -72 296 -72 135 -60 c 1,84,-1
 108 -66 l 2,85,86
 61 -73 61 -73 12 -73 c 2,12,-1
EndSplineSet
Validated: 1
EndChar

StartChar: uniF032
Encoding: 53 61490 48
Width: 803
Flags: W
LayerCount: 2
Fore
SplineSet
317 8 m 1,0,1
 360 -10 360 -10 397 -9 c 0,2,3
 472 -9 472 -9 520 13 c 0,4,5
 568 37 568 37 590 78 c 1,6,7
 612 118 612 118 612 181 c 0,8,9
 612 247 612 247 589 285 c 0,10,11
 556 338 556 338 508 356 c 1,12,13
 462 374 462 374 367 375 c 0,14,15
 325 375 325 375 309 369 c 1,16,-1
 309 287 l 1,17,-1
 308 188 l 1,18,-1
 310 34 l 2,19,20
 310 24 310 24 317 8 c 1,0,1
309 435 m 1,21,22
 334 431 334 431 372 431 c 0,23,24
 472 431 472 431 522 468 c 0,25,26
 573 505 573 505 573 596 c 0,27,28
 573 659 573 659 524 702 c 0,29,30
 476 745 476 745 379 745 c 0,31,32
 349 745 349 745 304 738 c 1,33,34
 304 712 304 712 306 694 c 0,35,36
 310 624 310 624 309 535 c 2,37,-1
 308 479 l 2,38,39
 308 454 308 454 309 435 c 1,21,22
0 -73 m 1,40,-1
 1 -19 l 1,41,42
 27 -14 27 -14 40 -12 c 0,43,44
 84 -5 84 -5 111 5 c 1,45,46
 120 20 120 20 122 34 c 0,47,48
 127 72 127 72 127 145 c 2,49,-1
 126 429 l 1,50,51
 123 575 123 575 121 660 c 1,52,53
 120 710 120 710 115 722 c 0,54,55
 114 724 114 724 108 729 c 0,56,57
 98 736 98 736 69 737 c 0,58,59
 52 738 52 738 3 745 c 1,60,-1
 1 793 l 1,61,-1
 150 796 l 1,62,-1
 367 804 l 1,63,-1
 392 804 l 2,64,65
 395 804 395 804 400 804 c 0,66,67
 405 804 405 804 409 805 c 0,68,69
 410 805 410 805 421 804 c 0,70,71
 432 804 432 804 444 804 c 2,72,-1
 486 804 l 2,73,74
 536 804 536 804 595 788 c 1,75,76
 620 781 620 781 650 766 c 0,77,78
 683 750 683 750 709 723 c 0,79,80
 735 696 735 696 745 664 c 0,81,82
 757 631 757 631 758 594 c 0,83,84
 758 554 758 554 739 520 c 0,85,86
 721 487 721 487 685 461 c 0,87,88
 670 450 670 450 599 417 c 1,89,90
 700 393 700 393 752 333 c 0,91,92
 804 273 804 273 805 199 c 0,93,94
 805 156 805 156 788 106 c 0,95,96
 776 70 776 70 748 40 c 0,97,98
 710 -1 710 -1 668 -23 c 0,99,100
 626 -43 626 -43 552 -56 c 0,101,102
 505 -64 505 -64 438 -62 c 1,103,-1
 326 -60 l 2,104,105
 278 -59 278 -59 156 -67 c 0,106,107
 136 -69 136 -69 0 -73 c 1,40,-1
EndSplineSet
Validated: 33
EndChar

StartChar: uniF033
Encoding: 54 61491 49
Width: 584
Flags: W
LayerCount: 2
Fore
SplineSet
0 -72 m 1,0,-1
 9 -24 l 1,1,2
 11 -23 11 -23 53 -12 c 0,3,4
 96 -1 96 -1 120 10 c 1,5,6
 136 32 136 32 143 68 c 2,7,-1
 159 147 l 1,8,-1
 190 301 l 1,9,-1
 198 337 l 2,10,11
 202 363 202 363 208 385 c 0,12,13
 213 409 213 409 216 424 c 0,14,15
 220 439 220 439 223 451 c 0,16,17
 226 462 226 462 228 468 c 0,18,19
 230 474 l 2,20,-1
 248 564 l 1,21,-1
 257 600 l 1,22,-1
 269 677 l 1,23,-1
 273 706 l 1,24,-1
 273 727 l 1,25,26
 249 739 249 739 191 743 c 0,27,28
 175 744 175 744 170 745 c 1,29,-1
 180 805 l 1,30,-1
 361 797 l 2,31,32
 384 796 384 796 403 796 c 0,33,34
 441 796 441 796 525 801 c 0,35,36
 543 802 543 802 564 803 c 0,37,38
 584 804 584 804 585 805 c 1,39,40
 584 794 584 794 582 783 c 0,41,42
 578 767 578 767 574 754 c 1,43,44
 542 743 542 743 512 736 c 1,45,46
 475 727 475 727 455 718 c 1,47,48
 448 701 448 701 440 668 c 0,49,50
 435 642 435 642 433 622 c 1,51,52
 407 508 407 508 395 446 c 2,53,-1
 360 268 l 1,54,-1
 339 178 l 1,55,-1
 314 44 l 1,56,-1
 307 18 l 2,57,58
 306 14 306 14 308 3 c 1,59,60
 345 -5 345 -5 376 -9 c 1,61,62
 396 -12 396 -12 414 -15 c 1,63,64
 413 -31 413 -31 410 -48 c 0,65,66
 406 -65 406 -65 404 -72 c 1,67,68
 394 -72 394 -72 391 -72 c 0,69,70
 378 -73 378 -73 368 -73 c 0,71,72
 363 -73 363 -73 351 -72 c 0,73,74
 340 -70 340 -70 268 -61 c 1,75,-1
 156 -60 l 2,76,77
 132 -59 132 -59 56 -67 c 0,78,79
 13 -71 13 -71 0 -72 c 1,0,-1
EndSplineSet
Validated: 33
EndChar

StartChar: uniF034
Encoding: 55 61492 50
Width: 1024
Flags: W
LayerCount: 2
Fore
SplineSet
46 804 m 1,0,-1
 77 788 l 1,1,2
 88 785 88 785 198 785 c 2,3,-1
 272 785 l 1,4,-1
 283 787 l 1,5,-1
 348 788 l 1,6,-1
 471 787 l 1,7,-1
 639 787 l 1,8,-1
 658 786 l 2,9,10
 666 785 666 785 674 791 c 0,11,12
 682 795 682 795 686 800 c 2,13,-1
 690 804 l 1,14,-1
 715 805 l 2,15,16
 723 805 723 805 730 804 c 1,17,-1
 730 744 l 1,18,-1
 731 669 l 1,19,-1
 731 612 l 1,20,-1
 731 579 l 2,21,22
 731 561 731 561 728 550 c 1,23,24
 705 542 705 542 690 540 c 1,25,26
 676 565 676 565 658 612 c 0,27,28
 654 625 654 625 650 648 c 0,29,30
 646 670 646 670 643 686 c 0,31,32
 641 701 641 701 640 702 c 0,33,34
 633 710 633 710 625 713 c 0,35,36
 621 714 621 714 600 715 c 0,37,38
 580 715 580 715 541 714 c 0,39,40
 502 713 502 713 478 713 c 0,41,42
 459 713 459 713 439 711 c 1,43,44
 433 656 433 656 435 633 c 1,45,-1
 435 546 l 1,46,-1
 435 356 l 1,47,-1
 437 151 l 1,48,-1
 436 67 l 2,49,50
 435 40 435 40 442 18 c 1,51,52
 470 4 470 4 494 0 c 0,53,54
 495 0 495 0 504 -3 c 0,55,56
 513 -6 513 -6 529 -10 c 0,57,58
 545 -14 545 -14 554 -17 c 0,59,60
 571 -21 571 -21 583 -28 c 1,61,62
 586 -54 586 -54 585 -56 c 0,63,64
 585 -62 585 -62 584 -73 c 1,65,66
 576 -74 576 -74 564 -73 c 0,67,68
 502 -73 502 -73 457 -68 c 1,69,70
 416 -64 416 -64 322 -62 c 0,71,72
 272 -62 272 -62 188 -71 c 0,73,74
 160 -73 160 -73 148 -73 c 1,75,76
 147 -61 147 -61 146 -58 c 2,77,-1
 146 -43 l 1,78,-1
 146 -38 l 1,79,80
 158 -20 158 -20 191 -10 c 0,81,82
 271 12 271 12 283 18 c 1,83,84
 288 30 288 30 289 50 c 1,85,86
 293 160 293 160 293 298 c 2,87,-1
 290 543 l 2,88,89
 289 579 289 579 290 610 c 0,90,91
 290 643 290 643 290 669 c 0,92,93
 290 696 290 696 289 701 c 0,94,95
 288 707 288 707 285 710 c 0,96,97
 282 713 282 713 278 713 c 0,98,99
 256 716 256 716 193 717 c 0,100,101
 168 717 168 717 135 709 c 0,102,103
 102 701 102 701 94 695 c 0,104,105
 87 690 87 690 81 676 c 0,106,107
 76 663 76 663 69 633 c 0,108,109
 62 604 62 604 55 585 c 0,110,111
 52 574 52 574 44 567 c 0,112,113
 36 560 36 560 32 559 c 1,114,115
 6 574 6 574 0 585 c 1,116,-1
 0 755 l 1,117,-1
 0 804 l 1,118,-1
 46 804 l 1,0,-1
996 73 m 2,119,120
 1014 73 1014 73 1021 62 c 0,121,122
 1026 52 1026 52 1015 37 c 2,123,-1
 942 -55 l 2,124,125
 931 -70 931 -70 914 -71 c 0,126,127
 898 -71 898 -71 887 -55 c 2,128,-1
 814 37 l 2,129,130
 803 52 803 52 808 62 c 0,131,132
 813 72 813 72 831 73 c 2,133,-1
 878 73 l 1,134,-1
 878 658 l 1,135,-1
 831 658 l 2,136,137
 813 658 813 658 808 669 c 0,138,139
 803 679 803 679 814 694 c 2,140,-1
 887 786 l 2,141,142
 898 801 898 801 914 802 c 0,143,144
 930 802 930 802 942 786 c 2,145,-1
 1015 694 l 2,146,147
 1026 679 1026 679 1021 669 c 0,148,149
 1016 659 1016 659 996 658 c 2,150,-1
 951 658 l 1,151,-1
 951 73 l 1,152,-1
 996 73 l 2,119,120
EndSplineSet
Validated: 33
EndChar

StartChar: uniF035
Encoding: 56 61493 51
Width: 877
Flags: W
LayerCount: 2
Fore
SplineSet
46 804 m 1,0,-1
 77 788 l 1,1,2
 88 785 88 785 198 785 c 2,3,-1
 272 785 l 1,4,-1
 283 787 l 1,5,-1
 348 788 l 1,6,-1
 603 787 l 1,7,-1
 785 787 l 1,8,-1
 805 786 l 2,9,10
 813 785 813 785 820 791 c 0,11,12
 828 795 828 795 833 800 c 2,13,-1
 837 804 l 1,14,-1
 860 805 l 2,15,16
 868 805 868 805 877 804 c 1,17,-1
 877 744 l 1,18,-1
 878 669 l 1,19,-1
 878 612 l 1,20,-1
 878 579 l 2,21,22
 878 561 878 561 874 550 c 1,23,24
 851 542 851 542 836 540 c 1,25,26
 822 565 822 565 805 612 c 0,27,28
 801 625 801 625 797 648 c 0,29,30
 793 670 793 670 790 686 c 0,31,32
 788 701 788 701 786 702 c 0,33,34
 779 710 779 710 771 713 c 0,35,36
 767 714 767 714 737 715 c 0,37,38
 707 715 707 715 658 714 c 0,39,40
 608 713 608 713 585 713 c 0,41,42
 532 713 532 713 513 711 c 1,43,44
 507 656 507 656 508 633 c 1,45,-1
 509 546 l 1,46,-1
 509 575 l 1,47,-1
 510 371 l 1,48,-1
 510 287 l 2,49,50
 509 260 509 260 516 238 c 1,51,52
 544 224 544 224 567 219 c 0,53,54
 568 219 568 219 578 216 c 0,55,56
 587 213 587 213 602 209 c 0,57,58
 618 205 618 205 627 203 c 0,59,60
 644 199 644 199 655 193 c 1,61,62
 658 167 658 167 658 164 c 0,63,64
 658 158 658 158 656 146 c 1,65,66
 648 145 648 145 637 146 c 0,67,68
 575 146 575 146 530 152 c 1,69,70
 489 156 489 156 394 157 c 0,71,72
 347 157 347 157 261 150 c 1,73,74
 235 147 235 147 221 146 c 1,75,76
 220 158 220 158 220 161 c 2,77,-1
 219 176 l 1,78,-1
 219 181 l 1,79,80
 231 199 231 199 264 209 c 0,81,82
 344 231 344 231 355 238 c 1,83,84
 360 250 360 250 362 269 c 1,85,86
 365 347 365 347 366 517 c 1,87,-1
 362 543 l 1,88,89
 362 695 362 695 361 701 c 0,90,91
 360 707 360 707 358 710 c 0,92,93
 355 713 355 713 350 713 c 0,94,95
 328 716 328 716 265 717 c 0,96,97
 236 717 236 717 169 709 c 0,98,99
 101 701 101 701 94 695 c 0,100,101
 87 690 87 690 81 676 c 0,102,103
 76 663 76 663 69 633 c 0,104,105
 62 604 62 604 55 585 c 0,106,107
 52 574 52 574 44 567 c 0,108,109
 36 560 36 560 32 559 c 1,110,111
 6 574 6 574 0 585 c 1,112,-1
 0 755 l 1,113,-1
 0 804 l 1,114,-1
 46 804 l 1,0,-1
860 65 m 2,115,116
 875 54 875 54 874 37 c 0,117,118
 874 21 874 21 860 8 c 2,119,-1
 767 -63 l 2,120,121
 752 -74 752 -74 742 -70 c 0,122,123
 732 -65 732 -65 731 -46 c 2,124,-1
 731 0 l 1,125,-1
 146 0 l 1,126,-1
 146 -46 l 2,127,128
 146 -64 146 -64 136 -70 c 0,129,130
 126 -75 126 -75 111 -63 c 2,131,-1
 17 8 l 2,132,133
 2 19 2 19 3 37 c 0,134,135
 3 53 3 53 17 65 c 2,136,-1
 111 136 l 2,137,138
 126 147 126 147 136 143 c 0,139,140
 146 138 146 138 146 119 c 2,141,-1
 146 73 l 1,142,-1
 731 73 l 1,143,-1
 731 119 l 2,144,145
 731 137 731 137 742 143 c 0,146,147
 752 148 752 148 767 136 c 2,148,-1
 860 65 l 2,115,116
EndSplineSet
Validated: 33
EndChar

StartChar: uniF036
Encoding: 57 61494 52
Width: 1024
Flags: W
LayerCount: 2
Fore
SplineSet
1024 110 m 2,0,-1
 1024 37 l 2,1,2
 1024 22 1024 22 1013 11 c 0,3,4
 1002 0 1002 0 987 0 c 2,5,-1
 37 0 l 2,6,7
 22 0 22 0 11 11 c 0,8,9
 0 22 0 22 0 37 c 2,10,-1
 0 110 l 2,11,12
 0 125 0 125 11 135 c 0,13,14
 22 146 22 146 37 146 c 2,15,-1
 987 146 l 2,16,17
 1002 146 1002 146 1013 135 c 0,18,19
 1024 125 1024 125 1024 110 c 2,0,-1
805 329 m 2,20,-1
 805 256 l 2,21,22
 805 241 805 241 794 230 c 0,23,24
 783 219 783 219 768 219 c 2,25,-1
 37 219 l 2,26,27
 22 219 22 219 11 230 c 0,28,29
 0 241 0 241 0 256 c 2,30,-1
 0 329 l 2,31,32
 0 344 0 344 11 355 c 0,33,34
 22 366 22 366 37 366 c 2,35,-1
 768 366 l 2,36,37
 783 366 783 366 794 355 c 0,38,39
 805 344 805 344 805 329 c 2,20,-1
951 549 m 2,40,-1
 951 475 l 2,41,42
 951 460 951 460 940 450 c 0,43,44
 929 439 929 439 914 439 c 2,45,-1
 37 439 l 2,46,47
 22 439 22 439 11 450 c 0,48,49
 0 461 0 461 0 475 c 2,50,-1
 0 549 l 2,51,52
 0 564 0 564 11 574 c 0,53,54
 22 585 22 585 37 585 c 2,55,-1
 914 585 l 2,56,57
 929 585 929 585 940 574 c 0,58,59
 951 564 951 564 951 549 c 2,40,-1
731 768 m 2,60,-1
 731 695 l 2,61,62
 731 680 731 680 721 669 c 0,63,64
 710 658 710 658 695 658 c 2,65,-1
 37 658 l 2,66,67
 22 658 22 658 11 669 c 0,68,69
 0 680 0 680 0 695 c 2,70,-1
 0 768 l 2,71,72
 0 783 0 783 11 794 c 0,73,74
 22 805 22 805 37 805 c 2,75,-1
 695 805 l 2,76,77
 710 805 710 805 721 794 c 0,78,79
 731 783 731 783 731 768 c 2,60,-1
EndSplineSet
Validated: 1
EndChar

StartChar: uniF037
Encoding: 58 61495 53
Width: 1024
Flags: W
LayerCount: 2
Fore
SplineSet
1024 110 m 2,0,-1
 1024 37 l 2,1,2
 1024 22 1024 22 1013 11 c 0,3,4
 1002 0 1002 0 987 0 c 2,5,-1
 37 0 l 2,6,7
 22 0 22 0 11 11 c 0,8,9
 0 22 0 22 0 37 c 2,10,-1
 0 110 l 2,11,12
 0 125 0 125 11 135 c 0,13,14
 22 146 22 146 37 146 c 2,15,-1
 987 146 l 2,16,17
 1002 146 1002 146 1013 135 c 0,18,19
 1024 125 1024 125 1024 110 c 2,0,-1
805 329 m 2,20,-1
 805 256 l 2,21,22
 805 241 805 241 794 230 c 0,23,24
 783 219 783 219 768 219 c 2,25,-1
 256 219 l 2,26,27
 241 219 241 219 230 230 c 0,28,29
 219 241 219 241 219 256 c 2,30,-1
 219 329 l 2,31,32
 219 344 219 344 230 355 c 0,33,34
 241 366 241 366 256 366 c 2,35,-1
 768 366 l 2,36,37
 783 366 783 366 794 355 c 0,38,39
 805 344 805 344 805 329 c 2,20,-1
951 549 m 2,40,-1
 951 475 l 2,41,42
 951 460 951 460 940 450 c 0,43,44
 929 439 929 439 914 439 c 2,45,-1
 110 439 l 2,46,47
 95 439 95 439 84 450 c 0,48,49
 73 461 73 461 73 475 c 2,50,-1
 73 549 l 2,51,52
 73 564 73 564 84 574 c 0,53,54
 95 585 95 585 110 585 c 2,55,-1
 914 585 l 2,56,57
 929 585 929 585 940 574 c 0,58,59
 951 564 951 564 951 549 c 2,40,-1
731 768 m 2,60,-1
 731 695 l 2,61,62
 731 680 731 680 721 669 c 0,63,64
 710 658 710 658 695 658 c 2,65,-1
 329 658 l 2,66,67
 314 658 314 658 303 669 c 0,68,69
 292 680 292 680 293 695 c 2,70,-1
 293 768 l 2,71,72
 293 783 293 783 303 794 c 0,73,74
 314 805 314 805 329 805 c 2,75,-1
 695 805 l 2,76,77
 710 805 710 805 721 794 c 0,78,79
 731 783 731 783 731 768 c 2,60,-1
EndSplineSet
Validated: 1
EndChar

StartChar: uniF038
Encoding: 59 61496 54
Width: 1024
Flags: W
LayerCount: 2
Fore
SplineSet
1024 110 m 2,0,-1
 1024 37 l 2,1,2
 1024 22 1024 22 1013 11 c 0,3,4
 1002 0 1002 0 987 0 c 2,5,-1
 37 0 l 2,6,7
 22 0 22 0 11 11 c 0,8,9
 0 22 0 22 0 37 c 2,10,-1
 0 110 l 2,11,12
 0 125 0 125 11 135 c 0,13,14
 22 146 22 146 37 146 c 2,15,-1
 987 146 l 2,16,17
 1002 146 1002 146 1013 135 c 0,18,19
 1024 125 1024 125 1024 110 c 2,0,-1
1024 329 m 2,20,-1
 1024 256 l 2,21,22
 1024 241 1024 241 1013 230 c 0,23,24
 1002 219 1002 219 987 219 c 2,25,-1
 256 219 l 2,26,27
 241 219 241 219 230 230 c 0,28,29
 219 241 219 241 219 256 c 2,30,-1
 219 329 l 2,31,32
 219 344 219 344 230 355 c 0,33,34
 241 366 241 366 256 366 c 2,35,-1
 987 366 l 2,36,37
 1002 366 1002 366 1013 355 c 0,38,39
 1024 344 1024 344 1024 329 c 2,20,-1
1024 549 m 2,40,-1
 1024 475 l 2,41,42
 1024 460 1024 460 1013 450 c 0,43,44
 1002 439 1002 439 987 439 c 2,45,-1
 110 439 l 2,46,47
 95 439 95 439 84 450 c 0,48,49
 73 461 73 461 73 475 c 2,50,-1
 73 549 l 2,51,52
 73 564 73 564 84 574 c 0,53,54
 95 585 95 585 110 585 c 2,55,-1
 987 585 l 2,56,57
 1002 585 1002 585 1013 574 c 0,58,59
 1024 564 1024 564 1024 549 c 2,40,-1
1024 768 m 2,60,-1
 1024 695 l 2,61,62
 1024 680 1024 680 1013 669 c 0,63,64
 1002 658 1002 658 987 658 c 2,65,-1
 329 658 l 2,66,67
 314 658 314 658 303 669 c 0,68,69
 292 680 292 680 293 695 c 2,70,-1
 293 768 l 2,71,72
 293 783 293 783 303 794 c 0,73,74
 314 805 314 805 329 805 c 2,75,-1
 987 805 l 2,76,77
 1002 805 1002 805 1013 794 c 0,78,79
 1024 783 1024 783 1024 768 c 2,60,-1
EndSplineSet
Validated: 1
EndChar

StartChar: uniF039
Encoding: 60 61497 55
Width: 1024
Flags: W
LayerCount: 2
Fore
SplineSet
1024 110 m 2,0,-1
 1024 37 l 2,1,2
 1024 22 1024 22 1013 11 c 0,3,4
 1002 0 1002 0 987 0 c 2,5,-1
 37 0 l 2,6,7
 22 0 22 0 11 11 c 0,8,9
 0 22 0 22 0 37 c 2,10,-1
 0 110 l 2,11,12
 0 125 0 125 11 135 c 0,13,14
 22 146 22 146 37 146 c 2,15,-1
 987 146 l 2,16,17
 1002 146 1002 146 1013 135 c 0,18,19
 1024 125 1024 125 1024 110 c 2,0,-1
1024 329 m 2,20,-1
 1024 256 l 2,21,22
 1024 241 1024 241 1013 230 c 0,23,24
 1002 219 1002 219 987 219 c 2,25,-1
 37 219 l 2,26,27
 22 219 22 219 11 230 c 0,28,29
 0 241 0 241 0 256 c 2,30,-1
 0 329 l 2,31,32
 0 344 0 344 11 355 c 0,33,34
 22 366 22 366 37 366 c 2,35,-1
 987 366 l 2,36,37
 1002 366 1002 366 1013 355 c 0,38,39
 1024 344 1024 344 1024 329 c 2,20,-1
1024 549 m 2,40,-1
 1024 475 l 2,41,42
 1024 460 1024 460 1013 450 c 0,43,44
 1002 439 1002 439 987 439 c 2,45,-1
 37 439 l 2,46,47
 22 439 22 439 11 450 c 0,48,49
 0 461 0 461 0 475 c 2,50,-1
 0 549 l 2,51,52
 0 564 0 564 11 574 c 0,53,54
 22 585 22 585 37 585 c 2,55,-1
 987 585 l 2,56,57
 1002 585 1002 585 1013 574 c 0,58,59
 1024 564 1024 564 1024 549 c 2,40,-1
1024 768 m 2,60,-1
 1024 695 l 2,61,62
 1024 680 1024 680 1013 669 c 0,63,64
 1002 658 1002 658 987 658 c 2,65,-1
 37 658 l 2,66,67
 22 658 22 658 11 669 c 0,68,69
 0 680 0 680 0 695 c 2,70,-1
 0 768 l 2,71,72
 0 783 0 783 11 794 c 0,73,74
 22 805 22 805 37 805 c 2,75,-1
 987 805 l 2,76,77
 1002 805 1002 805 1013 794 c 0,78,79
 1024 783 1024 783 1024 768 c 2,60,-1
EndSplineSet
Validated: 1
EndChar

StartChar: uniF03A
Encoding: 61 61498 56
Width: 1024
Flags: W
LayerCount: 2
Fore
SplineSet
146 128 m 2,0,-1
 146 18 l 2,1,2
 146 11 146 11 141 5 c 0,3,4
 136 0 136 0 128 0 c 2,5,-1
 18 0 l 2,6,7
 11 0 11 0 5 5 c 0,8,9
 0 10 0 10 0 18 c 2,10,-1
 0 128 l 2,11,12
 0 135 0 135 5 141 c 0,13,14
 10 146 10 146 18 146 c 2,15,-1
 128 146 l 2,16,17
 135 146 135 146 141 141 c 0,18,19
 146 135 146 135 146 128 c 2,0,-1
146 347 m 2,20,-1
 146 238 l 2,21,22
 146 231 146 231 141 225 c 0,23,24
 136 220 136 220 128 219 c 2,25,-1
 18 219 l 2,26,27
 11 219 11 219 5 225 c 0,28,29
 0 230 0 230 0 238 c 2,30,-1
 0 347 l 2,31,32
 0 354 0 354 5 360 c 0,33,34
 10 365 10 365 18 366 c 2,35,-1
 128 366 l 2,36,37
 135 366 135 366 141 360 c 0,38,39
 146 354 146 354 146 347 c 2,20,-1
146 567 m 2,40,-1
 146 457 l 2,41,42
 146 450 146 450 141 444 c 0,43,44
 136 439 136 439 128 439 c 2,45,-1
 18 439 l 2,46,47
 11 439 11 439 5 444 c 0,48,49
 0 449 0 449 0 457 c 2,50,-1
 0 567 l 2,51,52
 0 574 0 574 5 580 c 0,53,54
 10 585 10 585 18 585 c 2,55,-1
 128 585 l 2,56,57
 135 585 135 585 141 580 c 0,58,59
 146 574 146 574 146 567 c 2,40,-1
1024 128 m 2,60,-1
 1024 18 l 2,61,62
 1024 11 1024 11 1019 5 c 0,63,64
 1014 0 1014 0 1006 0 c 2,65,-1
 238 0 l 2,66,67
 231 0 231 0 225 5 c 0,68,69
 220 10 220 10 219 18 c 2,70,-1
 219 128 l 2,71,72
 219 135 219 135 225 141 c 0,73,74
 230 146 230 146 238 146 c 2,75,-1
 1006 146 l 2,76,77
 1013 146 1013 146 1019 141 c 0,78,79
 1024 135 1024 135 1024 128 c 2,60,-1
146 786 m 2,80,-1
 146 677 l 2,81,82
 146 670 146 670 141 664 c 0,83,84
 136 659 136 659 128 658 c 2,85,-1
 18 658 l 2,86,87
 11 658 11 658 5 664 c 0,88,89
 0 669 0 669 0 677 c 2,90,-1
 0 786 l 2,91,92
 0 793 0 793 5 799 c 0,93,94
 10 804 10 804 18 805 c 2,95,-1
 128 805 l 2,96,97
 135 805 135 805 141 799 c 0,98,99
 146 793 146 793 146 786 c 2,80,-1
1024 347 m 2,100,-1
 1024 238 l 2,101,102
 1024 231 1024 231 1019 225 c 0,103,104
 1014 220 1014 220 1006 219 c 2,105,-1
 238 219 l 2,106,107
 231 219 231 219 225 225 c 0,108,109
 220 230 220 230 219 238 c 2,110,-1
 219 347 l 2,111,112
 219 354 219 354 225 360 c 0,113,114
 230 365 230 365 238 366 c 2,115,-1
 1006 366 l 2,116,117
 1013 366 1013 366 1019 360 c 0,118,119
 1024 354 1024 354 1024 347 c 2,100,-1
1024 567 m 2,120,-1
 1024 457 l 2,121,122
 1024 450 1024 450 1019 444 c 0,123,124
 1014 439 1014 439 1006 439 c 2,125,-1
 238 439 l 2,126,127
 231 439 231 439 225 444 c 0,128,129
 220 449 220 449 219 457 c 2,130,-1
 219 567 l 2,131,132
 219 574 219 574 225 580 c 0,133,134
 230 585 230 585 238 585 c 2,135,-1
 1006 585 l 2,136,137
 1013 585 1013 585 1019 580 c 0,138,139
 1024 574 1024 574 1024 567 c 2,120,-1
1024 786 m 2,140,-1
 1024 677 l 2,141,142
 1024 670 1024 670 1019 664 c 0,143,144
 1014 659 1014 659 1006 658 c 2,145,-1
 238 658 l 2,146,147
 231 658 231 658 225 664 c 0,148,149
 220 669 220 669 219 677 c 2,150,-1
 219 786 l 2,151,152
 219 793 219 793 225 799 c 0,153,154
 230 804 230 804 238 805 c 2,155,-1
 1006 805 l 2,156,157
 1013 805 1013 805 1019 799 c 0,158,159
 1024 793 1024 793 1024 786 c 2,140,-1
EndSplineSet
Validated: 1
EndChar

StartChar: uniF03B
Encoding: 62 61499 57
Width: 1024
Flags: W
LayerCount: 2
Fore
SplineSet
219 567 m 2,0,-1
 219 238 l 2,1,2
 219 231 219 231 214 225 c 0,3,4
 209 220 209 220 201 219 c 0,5,6
 193 219 193 219 188 224 c 2,7,-1
 24 389 l 2,8,9
 19 394 19 394 18 402 c 0,10,11
 18 410 18 410 24 416 c 2,12,-1
 188 580 l 2,13,14
 193 585 193 585 201 585 c 0,15,16
 208 585 208 585 214 580 c 0,17,18
 219 574 219 574 219 567 c 2,0,-1
1024 128 m 2,19,-1
 1024 18 l 2,20,21
 1024 11 1024 11 1019 5 c 0,22,23
 1014 0 1014 0 1006 0 c 2,24,-1
 18 0 l 2,25,26
 11 0 11 0 5 5 c 0,27,28
 0 10 0 10 0 18 c 2,29,-1
 0 128 l 2,30,31
 0 135 0 135 5 141 c 0,32,33
 10 146 10 146 18 146 c 2,34,-1
 1006 146 l 2,35,36
 1013 146 1013 146 1019 141 c 0,37,38
 1024 135 1024 135 1024 128 c 2,19,-1
1024 347 m 2,39,-1
 1024 238 l 2,40,41
 1024 231 1024 231 1019 225 c 0,42,43
 1014 220 1014 220 1006 219 c 2,44,-1
 384 219 l 2,45,46
 377 219 377 219 371 225 c 0,47,48
 366 230 366 230 366 238 c 2,49,-1
 366 347 l 2,50,51
 366 354 366 354 371 360 c 0,52,53
 376 365 376 365 384 366 c 2,54,-1
 1006 366 l 2,55,56
 1013 366 1013 366 1019 360 c 0,57,58
 1024 354 1024 354 1024 347 c 2,39,-1
1024 567 m 2,59,-1
 1024 457 l 2,60,61
 1024 450 1024 450 1019 444 c 0,62,63
 1014 439 1014 439 1006 439 c 2,64,-1
 384 439 l 2,65,66
 377 439 377 439 371 444 c 0,67,68
 366 449 366 449 366 457 c 2,69,-1
 366 567 l 2,70,71
 366 574 366 574 371 580 c 0,72,73
 376 585 376 585 384 585 c 2,74,-1
 1006 585 l 2,75,76
 1013 585 1013 585 1019 580 c 0,77,78
 1024 574 1024 574 1024 567 c 2,59,-1
1024 786 m 2,79,-1
 1024 677 l 2,80,81
 1024 670 1024 670 1019 664 c 0,82,83
 1014 659 1014 659 1006 658 c 2,84,-1
 18 658 l 2,85,86
 11 658 11 658 5 664 c 0,87,88
 0 669 0 669 0 677 c 2,89,-1
 0 786 l 2,90,91
 0 793 0 793 5 799 c 0,92,93
 10 804 10 804 18 805 c 2,94,-1
 1006 805 l 2,95,96
 1013 805 1013 805 1019 799 c 0,97,98
 1024 793 1024 793 1024 786 c 2,79,-1
EndSplineSet
Validated: 1
EndChar

StartChar: uniF03C
Encoding: 63 61500 58
Width: 1024
Flags: W
LayerCount: 2
Fore
SplineSet
201 402 m 0,0,1
 201 394 201 394 196 389 c 2,2,-1
 32 224 l 2,3,4
 27 219 27 219 18 219 c 0,5,6
 11 219 11 219 5 225 c 0,7,8
 0 230 0 230 0 238 c 2,9,-1
 0 567 l 2,10,11
 0 574 0 574 5 580 c 0,12,13
 10 585 10 585 18 585 c 0,14,15
 26 585 26 585 32 580 c 2,16,-1
 196 416 l 2,17,18
 201 410 201 410 201 402 c 0,0,1
1024 128 m 2,19,-1
 1024 18 l 2,20,21
 1024 11 1024 11 1019 5 c 0,22,23
 1014 0 1014 0 1006 0 c 2,24,-1
 18 0 l 2,25,26
 11 0 11 0 5 5 c 0,27,28
 0 10 0 10 0 18 c 2,29,-1
 0 128 l 2,30,31
 0 135 0 135 5 141 c 0,32,33
 10 146 10 146 18 146 c 2,34,-1
 1006 146 l 2,35,36
 1013 146 1013 146 1019 141 c 0,37,38
 1024 135 1024 135 1024 128 c 2,19,-1
1024 347 m 2,39,-1
 1024 238 l 2,40,41
 1024 231 1024 231 1019 225 c 0,42,43
 1014 220 1014 220 1006 219 c 2,44,-1
 384 219 l 2,45,46
 377 219 377 219 371 225 c 0,47,48
 366 230 366 230 366 238 c 2,49,-1
 366 347 l 2,50,51
 366 354 366 354 371 360 c 0,52,53
 376 365 376 365 384 366 c 2,54,-1
 1006 366 l 2,55,56
 1013 366 1013 366 1019 360 c 0,57,58
 1024 354 1024 354 1024 347 c 2,39,-1
1024 567 m 2,59,-1
 1024 457 l 2,60,61
 1024 450 1024 450 1019 444 c 0,62,63
 1014 439 1014 439 1006 439 c 2,64,-1
 384 439 l 2,65,66
 377 439 377 439 371 444 c 0,67,68
 366 449 366 449 366 457 c 2,69,-1
 366 567 l 2,70,71
 366 574 366 574 371 580 c 0,72,73
 376 585 376 585 384 585 c 2,74,-1
 1006 585 l 2,75,76
 1013 585 1013 585 1019 580 c 0,77,78
 1024 574 1024 574 1024 567 c 2,59,-1
1024 786 m 2,79,-1
 1024 677 l 2,80,81
 1024 670 1024 670 1019 664 c 0,82,83
 1014 659 1014 659 1006 658 c 2,84,-1
 18 658 l 2,85,86
 11 658 11 658 5 664 c 0,87,88
 0 669 0 669 0 677 c 2,89,-1
 0 786 l 2,90,91
 0 793 0 793 5 799 c 0,92,93
 10 804 10 804 18 805 c 2,94,-1
 1006 805 l 2,95,96
 1013 805 1013 805 1019 799 c 0,97,98
 1024 793 1024 793 1024 786 c 2,79,-1
EndSplineSet
Validated: 1
EndChar

StartChar: uniF03D
Encoding: 64 61501 59
Width: 1096
Flags: W
LayerCount: 2
Fore
SplineSet
1085 730 m 0,0,1
 1096 726 1096 726 1097 713 c 2,2,-1
 1097 18 l 2,3,4
 1097 6 1097 6 1085 1 c 1,5,6
 1081 0 1081 0 1079 0 c 0,7,8
 1072 0 1072 0 1066 5 c 1,9,-1
 731 340 l 1,10,-1
 731 165 l 2,11,12
 731 97 731 97 683 48 c 0,13,14
 635 0 635 0 567 0 c 2,15,-1
 165 0 l 2,16,17
 97 0 97 0 48 48 c 0,18,19
 0 96 0 96 0 165 c 2,20,-1
 0 567 l 2,21,22
 0 635 0 635 48 683 c 0,23,24
 96 731 96 731 165 731 c 2,25,-1
 567 731 l 2,26,27
 635 731 635 731 683 683 c 0,28,29
 731 635 731 635 731 567 c 2,30,-1
 731 391 l 1,31,-1
 1066 726 l 2,32,33
 1074 734 1074 734 1085 730 c 0,0,1
EndSplineSet
Validated: 1
EndChar

StartChar: uniF03E
Encoding: 65 61502 60
Width: 1096
Flags: W
LayerCount: 2
Fore
SplineSet
366 549 m 0,0,1
 366 503 366 503 334 471 c 0,2,3
 302 439 302 439 256 439 c 0,4,5
 210 439 210 439 178 471 c 0,6,7
 146 503 146 503 146 549 c 0,8,9
 146 595 146 595 178 627 c 0,10,11
 210 659 210 659 256 658 c 0,12,13
 302 658 302 658 334 627 c 0,14,15
 366 595 366 595 366 549 c 0,0,1
951 329 m 1,16,-1
 951 73 l 1,17,-1
 146 73 l 1,18,-1
 146 183 l 1,19,-1
 329 366 l 1,20,-1
 421 274 l 1,21,-1
 713 567 l 1,22,-1
 951 329 l 1,16,-1
1006 731 m 2,23,-1
 91 731 l 2,24,25
 84 731 84 731 79 726 c 0,26,27
 74 721 74 721 73 713 c 2,28,-1
 73 18 l 2,29,30
 73 11 73 11 79 5 c 0,31,32
 84 0 84 0 91 0 c 2,33,-1
 1006 0 l 2,34,35
 1013 0 1013 0 1019 5 c 0,36,37
 1024 10 1024 10 1024 18 c 2,38,-1
 1024 713 l 2,39,40
 1024 720 1024 720 1019 726 c 0,41,42
 1013 731 1013 731 1006 731 c 2,23,-1
1097 713 m 2,43,-1
 1097 18 l 2,44,45
 1097 -20 1097 -20 1070 -46 c 0,46,47
 1043 -73 1043 -73 1006 -73 c 2,48,-1
 91 -73 l 2,49,50
 53 -73 53 -73 27 -46 c 0,51,52
 0 -19 0 -19 0 18 c 2,53,-1
 0 713 l 2,54,55
 0 751 0 751 27 777 c 0,56,57
 54 804 54 804 91 805 c 2,58,-1
 1006 805 l 2,59,60
 1044 805 1044 805 1070 777 c 0,61,62
 1097 751 1097 751 1097 713 c 2,43,-1
EndSplineSet
Validated: 33
EndChar

StartChar: uniF040
Encoding: 66 61504 61
Width: 877
Flags: W
LayerCount: 2
Fore
SplineSet
208 0 m 1,0,-1
 259 52 l 1,1,-1
 125 186 l 1,2,-1
 73 134 l 1,3,-1
 73 73 l 1,4,-1
 146 73 l 1,5,-1
 146 0 l 1,6,-1
 208 0 l 1,0,-1
506 530 m 0,7,8
 506 542 506 542 494 543 c 0,9,10
 488 543 488 543 484 539 c 2,11,-1
 174 229 l 2,12,13
 170 225 170 225 170 219 c 0,14,15
 170 207 170 207 183 207 c 0,16,17
 189 207 189 207 193 211 c 2,18,-1
 503 520 l 2,19,20
 506 524 506 524 506 530 c 0,7,8
475 640 m 1,21,-1
 713 402 l 1,22,-1
 238 -73 l 1,23,-1
 0 -73 l 1,24,-1
 0 165 l 1,25,-1
 475 640 l 1,21,-1
865 585 m 0,26,27
 865 554 865 554 845 534 c 2,28,-1
 750 439 l 1,29,-1
 512 677 l 1,30,-1
 607 771 l 1,31,32
 627 793 627 793 658 793 c 0,33,34
 689 793 689 793 711 771 c 2,35,-1
 845 637 l 1,36,37
 865 615 865 615 865 585 c 0,26,27
EndSplineSet
Validated: 1
EndChar

StartChar: uniF041
Encoding: 67 61505 62
Width: 584
Flags: W
LayerCount: 2
Fore
SplineSet
439 512 m 0,0,1
 439 572 439 572 396 615 c 0,2,3
 353 658 353 658 293 658 c 0,4,5
 233 658 233 658 189 615 c 0,6,7
 146 572 146 572 146 512 c 0,8,9
 146 452 146 452 189 409 c 0,10,11
 232 366 232 366 293 366 c 0,12,13
 353 366 353 366 396 409 c 0,14,15
 439 452 439 452 439 512 c 0,0,1
585 512 m 0,16,17
 585 450 585 450 566 410 c 2,18,-1
 358 -33 l 2,19,20
 349 -51 349 -51 331 -62 c 0,21,22
 313 -73 313 -73 293 -73 c 0,23,24
 273 -73 273 -73 254 -62 c 0,25,26
 236 -51 236 -51 227 -33 c 2,27,-1
 18 410 l 2,28,29
 0 450 0 450 0 512 c 0,30,31
 0 633 0 633 86 719 c 0,32,33
 172 805 172 805 293 805 c 0,34,35
 414 805 414 805 500 719 c 0,36,37
 585 633 585 633 585 512 c 0,16,17
EndSplineSet
Validated: 1
EndChar

StartChar: uniF042
Encoding: 68 61506 63
Width: 877
Flags: W
LayerCount: 2
Fore
SplineSet
439 805 m 0,0,1
 559 805 559 805 659 745 c 0,2,3
 759 687 759 687 819 586 c 0,4,5
 877 486 877 486 878 366 c 0,6,7
 878 246 878 246 819 145 c 0,8,9
 761 45 761 45 659 -14 c 0,10,11
 559 -72 559 -72 439 -73 c 0,12,13
 319 -73 319 -73 218 -14 c 0,14,15
 118 44 118 44 58 145 c 0,16,17
 0 245 0 245 0 366 c 0,18,19
 0 486 0 486 58 586 c 0,20,21
 116 686 116 686 218 745 c 0,22,23
 319 805 319 805 439 805 c 0,0,1
146 366 m 0,24,25
 146 307 146 307 169 252 c 0,26,27
 193 198 193 198 232 159 c 0,28,29
 272 119 272 119 326 96 c 0,30,31
 380 72 380 72 439 73 c 1,32,-1
 439 658 l 1,33,34
 380 658 380 658 326 635 c 0,35,36
 272 611 272 611 232 572 c 0,37,38
 192 532 192 532 169 479 c 0,39,40
 146 425 146 425 146 366 c 0,24,25
EndSplineSet
Validated: 33
EndChar

StartChar: uniF043
Encoding: 69 61507 64
Width: 584
Flags: W
LayerCount: 2
Fore
SplineSet
293 219 m 0,0,1
 293 239 293 239 282 259 c 0,2,3
 281 260 281 260 272 271 c 0,4,5
 264 283 264 283 258 294 c 0,6,7
 252 303 252 303 244 318 c 0,8,9
 236 333 236 333 231 347 c 0,10,11
 229 356 229 356 219 356 c 0,12,13
 210 356 210 356 208 347 c 0,14,15
 204 334 204 334 196 318 c 0,16,17
 188 303 188 303 181 294 c 0,18,19
 175 285 175 285 167 271 c 0,20,21
 159 259 159 259 158 259 c 0,22,23
 147 241 147 241 146 219 c 0,24,25
 146 188 146 188 168 168 c 0,26,27
 190 146 190 146 219 146 c 0,28,29
 250 146 250 146 271 168 c 0,30,31
 293 188 293 188 293 219 c 0,0,1
585 293 m 0,32,33
 585 172 585 172 500 86 c 0,34,35
 414 0 414 0 293 0 c 0,36,37
 172 0 172 0 86 86 c 0,38,39
 0 172 0 172 0 293 c 0,40,41
 0 376 0 376 46 450 c 0,42,43
 49 455 49 455 82 502 c 0,44,45
 115 548 115 548 139 588 c 0,46,47
 165 628 165 628 197 689 c 0,48,49
 229 751 229 751 244 805 c 0,50,51
 249 822 249 822 263 831 c 0,52,53
 277 840 277 840 293 841 c 0,54,55
 308 841 308 841 322 831 c 0,56,57
 336 822 336 822 341 805 c 0,58,59
 357 752 357 752 388 689 c 0,60,61
 420 627 420 627 445 588 c 0,62,63
 471 548 471 548 503 502 c 0,64,65
 536 456 536 456 539 450 c 0,66,67
 585 378 585 378 585 293 c 0,32,33
EndSplineSet
Validated: 1
EndChar

StartChar: uniF044
Encoding: 70 61508 65
Width: 1024
Flags: W
LayerCount: 2
Fore
SplineSet
508 201 m 1,0,-1
 573 267 l 1,1,-1
 486 354 l 1,2,-1
 421 288 l 1,3,-1
 421 256 l 1,4,-1
 475 256 l 1,5,-1
 475 201 l 1,6,-1
 508 201 l 1,0,-1
759 612 m 0,7,8
 750 621 750 621 740 612 c 2,9,-1
 540 412 l 2,10,11
 531 403 531 403 540 393 c 0,12,13
 549 384 549 384 558 393 c 2,14,-1
 759 594 l 2,15,16
 768 603 768 603 759 612 c 0,7,8
805 273 m 2,17,-1
 805 165 l 2,18,19
 805 97 805 97 757 48 c 0,20,21
 709 0 709 0 640 0 c 2,22,-1
 165 0 l 2,23,24
 97 0 97 0 48 48 c 0,25,26
 0 96 0 96 0 165 c 2,27,-1
 0 640 l 2,28,29
 0 708 0 708 48 757 c 0,30,31
 96 805 96 805 165 805 c 2,32,-1
 640 805 l 2,33,34
 676 805 676 805 707 791 c 0,35,36
 715 787 715 787 717 777 c 0,37,38
 719 768 719 768 712 761 c 2,39,-1
 684 732 l 2,40,41
 676 724 676 724 666 728 c 1,42,43
 653 731 653 731 640 731 c 2,44,-1
 165 731 l 2,45,46
 127 731 127 731 100 705 c 0,47,48
 73 678 73 678 73 640 c 2,49,-1
 73 165 l 2,50,51
 73 127 73 127 100 100 c 0,52,53
 127 73 127 73 165 73 c 2,54,-1
 640 73 l 2,55,56
 678 73 678 73 705 100 c 0,57,58
 732 127 732 127 731 165 c 2,59,-1
 731 237 l 2,60,61
 731 244 731 244 736 249 c 2,62,-1
 773 286 l 2,63,64
 781 294 781 294 794 290 c 0,65,66
 805 285 805 285 805 273 c 2,17,-1
750 695 m 1,67,-1
 914 530 l 1,68,-1
 530 146 l 1,69,-1
 366 146 l 1,70,-1
 366 311 l 1,71,-1
 750 695 l 1,67,-1
1004 620 m 2,72,-1
 951 567 l 1,73,-1
 786 731 l 1,74,-1
 839 784 l 2,75,76
 855 800 855 800 878 800 c 0,77,78
 901 800 901 800 916 784 c 2,79,-1
 1004 697 l 2,80,81
 1020 681 1020 681 1020 658 c 0,82,83
 1020 636 1020 636 1004 620 c 2,72,-1
EndSplineSet
Validated: 33
EndChar

StartChar: uniF045
Encoding: 71 61509 66
Width: 950
Flags: W
LayerCount: 2
Fore
SplineSet
805 312 m 2,0,-1
 805 165 l 2,1,2
 805 97 805 97 757 48 c 0,3,4
 709 0 709 0 640 0 c 2,5,-1
 165 0 l 2,6,7
 97 0 97 0 48 48 c 0,8,9
 0 96 0 96 0 165 c 2,10,-1
 0 640 l 2,11,12
 0 708 0 708 48 757 c 0,13,14
 96 805 96 805 165 805 c 2,15,-1
 310 805 l 1,16,-1
 310 805 l 1,17,18
 317 805 317 805 324 799 c 0,19,20
 329 794 329 794 329 786 c 0,21,22
 329 771 329 771 313 768 c 1,23,24
 269 753 269 753 238 734 c 1,25,26
 232 732 232 732 228 731 c 2,27,-1
 165 731 l 2,28,29
 127 731 127 731 100 705 c 0,30,31
 73 678 73 678 73 640 c 2,32,-1
 73 165 l 2,33,34
 73 127 73 127 100 100 c 0,35,36
 127 73 127 73 165 73 c 2,37,-1
 640 73 l 2,38,39
 678 73 678 73 705 100 c 0,40,41
 732 127 732 127 731 165 c 2,42,-1
 731 287 l 2,43,44
 731 298 731 298 741 303 c 1,45,46
 757 310 757 310 772 325 c 0,47,48
 781 334 781 334 793 329 c 0,49,50
 805 323 805 323 805 312 c 2,0,-1
940 596 m 2,51,-1
 721 377 l 2,52,53
 711 366 711 366 695 366 c 0,54,55
 688 366 688 366 681 369 c 0,56,57
 658 378 658 378 658 402 c 2,58,-1
 658 512 l 1,59,-1
 567 512 l 2,60,61
 383 512 383 512 316 437 c 0,62,63
 248 359 248 359 274 167 c 0,64,65
 276 154 276 154 263 147 c 1,66,67
 259 146 259 146 256 146 c 0,68,69
 247 146 247 146 241 154 c 0,70,71
 235 162 235 162 229 171 c 0,72,73
 223 180 223 180 207 211 c 0,74,75
 191 241 191 241 178 267 c 0,76,77
 166 295 166 295 157 333 c 0,78,79
 147 371 147 371 146 402 c 0,80,81
 146 430 146 430 148 455 c 0,82,83
 150 479 150 479 157 506 c 0,84,85
 163 534 163 534 172 556 c 0,86,87
 182 579 182 579 199 602 c 0,88,89
 215 626 215 626 239 645 c 0,90,91
 262 663 262 663 292 680 c 0,92,93
 324 696 324 696 364 708 c 0,94,95
 404 719 404 719 455 725 c 0,96,97
 507 731 507 731 567 731 c 2,98,-1
 658 731 l 1,99,-1
 658 841 l 2,100,101
 658 865 658 865 681 874 c 0,102,103
 688 877 688 877 695 878 c 0,104,105
 710 878 710 878 721 867 c 2,106,-1
 940 647 l 2,107,108
 951 636 951 636 951 622 c 0,109,110
 951 607 951 607 940 596 c 2,51,-1
EndSplineSet
Validated: 37
EndChar

StartChar: uniF046
Encoding: 72 61510 67
Width: 950
Flags: W
LayerCount: 2
Fore
SplineSet
805 346 m 2,0,-1
 805 165 l 2,1,2
 805 97 805 97 757 48 c 0,3,4
 709 0 709 0 640 0 c 2,5,-1
 165 0 l 2,6,7
 97 0 97 0 48 48 c 0,8,9
 0 96 0 96 0 165 c 2,10,-1
 0 640 l 2,11,12
 0 708 0 708 48 757 c 0,13,14
 96 805 96 805 165 805 c 2,15,-1
 640 805 l 2,16,17
 676 805 676 805 707 791 c 0,18,19
 715 787 715 787 717 777 c 0,20,21
 719 768 719 768 712 761 c 2,22,-1
 684 732 l 2,23,24
 678 726 678 726 671 727 c 0,25,26
 669 727 669 727 666 728 c 0,27,28
 653 731 653 731 640 731 c 2,29,-1
 165 731 l 2,30,31
 127 731 127 731 100 705 c 0,32,33
 73 678 73 678 73 640 c 2,34,-1
 73 165 l 2,35,36
 73 127 73 127 100 100 c 0,37,38
 127 73 127 73 165 73 c 2,39,-1
 640 73 l 2,40,41
 678 73 678 73 705 100 c 0,42,43
 732 127 732 127 731 165 c 2,44,-1
 731 309 l 2,45,46
 731 316 731 316 736 323 c 2,47,-1
 773 358 l 2,48,49
 779 364 779 364 786 365 c 0,50,51
 789 365 789 365 794 362 c 0,52,53
 805 358 805 358 805 346 c 2,0,-1
937 626 m 2,54,-1
 471 161 l 2,55,56
 458 148 458 148 439 146 c 0,57,58
 421 146 421 146 407 161 c 2,59,-1
 161 407 l 2,60,61
 148 420 148 420 146 439 c 0,62,63
 146 457 146 457 161 471 c 2,64,-1
 223 535 l 2,65,66
 236 548 236 548 256 548 c 0,67,68
 274 548 274 548 289 535 c 2,69,-1
 439 384 l 1,70,-1
 809 754 l 2,71,72
 822 767 822 767 841 767 c 0,73,74
 859 767 859 767 873 754 c 2,75,-1
 937 691 l 2,76,77
 950 678 950 678 950 658 c 0,78,79
 950 639 950 639 937 626 c 2,54,-1
EndSplineSet
Validated: 33
EndChar

StartChar: uniF047
Encoding: 73 61511 68
Width: 1024
Flags: W
LayerCount: 2
Fore
SplineSet
1024 366 m 0,0,1
 1024 351 1024 351 1013 340 c 2,2,-1
 867 194 l 2,3,4
 856 183 856 183 841 183 c 0,5,6
 826 183 826 183 815 194 c 0,7,8
 804 205 804 205 805 219 c 2,9,-1
 805 293 l 1,10,-1
 585 293 l 1,11,-1
 585 73 l 1,12,-1
 658 73 l 2,13,14
 673 73 673 73 684 62 c 0,15,16
 695 51 695 51 695 37 c 0,17,18
 695 22 695 22 684 11 c 2,19,-1
 538 -135 l 2,20,21
 527 -146 527 -146 512 -146 c 0,22,23
 497 -146 497 -146 486 -135 c 2,24,-1
 340 11 l 2,25,26
 329 22 329 22 329 37 c 0,27,28
 329 52 329 52 340 62 c 0,29,30
 351 73 351 73 366 73 c 2,31,-1
 439 73 l 1,32,-1
 439 293 l 1,33,-1
 219 293 l 1,34,-1
 219 219 l 2,35,36
 219 204 219 204 209 194 c 0,37,38
 198 183 198 183 183 183 c 0,39,40
 168 183 168 183 157 194 c 2,41,-1
 11 340 l 2,42,43
 0 351 0 351 0 366 c 0,44,45
 0 381 0 381 11 391 c 2,46,-1
 157 538 l 2,47,48
 168 549 168 549 183 549 c 0,49,50
 198 549 198 549 209 538 c 0,51,52
 220 527 220 527 219 512 c 2,53,-1
 219 439 l 1,54,-1
 439 439 l 1,55,-1
 439 658 l 1,56,-1
 366 658 l 2,57,58
 351 658 351 658 340 669 c 0,59,60
 329 680 329 680 329 695 c 0,61,62
 329 710 329 710 340 721 c 2,63,-1
 486 867 l 2,64,65
 497 878 497 878 512 878 c 0,66,67
 527 878 527 878 538 867 c 2,68,-1
 684 721 l 2,69,70
 695 710 695 710 695 695 c 0,71,72
 695 680 695 680 684 669 c 0,73,74
 673 658 673 658 658 658 c 2,75,-1
 585 658 l 1,76,-1
 585 439 l 1,77,-1
 805 439 l 1,78,-1
 805 512 l 2,79,80
 805 527 805 527 815 538 c 0,81,82
 826 549 826 549 841 549 c 0,83,84
 856 549 856 549 867 538 c 2,85,-1
 1013 391 l 2,86,87
 1024 381 1024 381 1024 366 c 0,0,1
EndSplineSet
Validated: 1
EndChar

StartChar: uniF048
Encoding: 74 61512 69
Width: 584
Flags: W
LayerCount: 2
Fore
SplineSet
559 797 m 2,0,1
 570 808 570 808 578 805 c 0,2,3
 585 802 585 802 585 786 c 2,4,-1
 585 -55 l 2,5,6
 585 -70 585 -70 578 -73 c 0,7,8
 571 -76 571 -76 559 -66 c 2,9,-1
 154 340 l 2,10,11
 149 345 149 345 146 351 c 1,12,-1
 146 -37 l 2,13,14
 146 -52 146 -52 135 -62 c 0,15,16
 124 -73 124 -73 110 -73 c 2,17,-1
 37 -73 l 2,18,19
 22 -73 22 -73 11 -62 c 0,20,21
 0 -51 0 -51 0 -37 c 2,22,-1
 0 768 l 2,23,24
 0 783 0 783 11 794 c 0,25,26
 22 805 22 805 37 805 c 2,27,-1
 110 805 l 2,28,29
 125 805 125 805 135 794 c 0,30,31
 146 783 146 783 146 768 c 2,32,-1
 146 381 l 1,33,34
 148 387 148 387 154 391 c 2,35,-1
 559 797 l 2,0,1
EndSplineSet
Validated: 1
EndChar

StartChar: uniF049
Encoding: 75 61513 70
Width: 1024
Flags: W
LayerCount: 2
Fore
SplineSet
998 797 m 2,0,1
 1009 808 1009 808 1017 805 c 0,2,3
 1024 802 1024 802 1024 786 c 2,4,-1
 1024 -55 l 2,5,6
 1024 -70 1024 -70 1017 -73 c 0,7,8
 1010 -76 1010 -76 998 -66 c 2,9,-1
 593 340 l 2,10,11
 588 345 588 345 585 351 c 1,12,-1
 585 -55 l 2,13,14
 585 -70 585 -70 578 -73 c 0,15,16
 571 -76 571 -76 559 -66 c 2,17,-1
 154 340 l 2,18,19
 149 345 149 345 146 351 c 1,20,-1
 146 -37 l 2,21,22
 146 -52 146 -52 135 -62 c 0,23,24
 124 -73 124 -73 110 -73 c 2,25,-1
 37 -73 l 2,26,27
 22 -73 22 -73 11 -62 c 0,28,29
 0 -51 0 -51 0 -37 c 2,30,-1
 0 768 l 2,31,32
 0 783 0 783 11 794 c 0,33,34
 22 805 22 805 37 805 c 2,35,-1
 110 805 l 2,36,37
 125 805 125 805 135 794 c 0,38,39
 146 783 146 783 146 768 c 2,40,-1
 146 381 l 1,41,42
 148 387 148 387 154 391 c 2,43,-1
 559 797 l 2,44,45
 570 808 570 808 578 805 c 0,46,47
 585 802 585 802 585 786 c 2,48,-1
 585 381 l 1,49,50
 587 387 587 387 593 391 c 2,51,-1
 998 797 l 2,0,1
EndSplineSet
Validated: 1
EndChar

StartChar: uniF04A
Encoding: 76 61514 71
Width: 950
Flags: W
LayerCount: 2
Fore
SplineSet
925 797 m 2,0,1
 936 808 936 808 943 805 c 0,2,3
 950 802 950 802 951 786 c 2,4,-1
 951 -55 l 2,5,6
 951 -70 951 -70 943 -73 c 0,7,8
 936 -76 936 -76 925 -66 c 2,9,-1
 519 340 l 2,10,11
 515 345 515 345 512 351 c 1,12,-1
 512 -55 l 2,13,14
 512 -70 512 -70 505 -73 c 0,15,16
 498 -76 498 -76 486 -66 c 2,17,-1
 81 340 l 2,18,19
 70 351 70 351 70 366 c 0,20,21
 70 381 70 381 81 391 c 2,22,-1
 486 797 l 2,23,24
 497 808 497 808 505 805 c 0,25,26
 512 802 512 802 512 786 c 2,27,-1
 512 381 l 1,28,29
 515 387 515 387 519 391 c 2,30,-1
 925 797 l 2,0,1
EndSplineSet
Validated: 1
EndChar

StartChar: uniF04B
Encoding: 77 61515 72
Width: 803
Flags: W
LayerCount: 2
Fore
SplineSet
791 348 m 2,0,-1
 32 -74 l 2,1,2
 19 -81 19 -81 9 -76 c 0,3,4
 0 -70 0 -70 0 -55 c 2,5,-1
 0 786 l 2,6,7
 0 801 0 801 9 807 c 0,8,9
 18 813 18 813 32 805 c 2,10,-1
 791 383 l 2,11,12
 804 376 804 376 804 366 c 0,13,14
 804 355 804 355 791 348 c 2,0,-1
EndSplineSet
Validated: 1
EndChar

StartChar: uniF04C
Encoding: 78 61516 73
Width: 877
Flags: W
LayerCount: 2
Fore
SplineSet
878 768 m 2,0,-1
 878 -37 l 2,1,2
 878 -52 878 -52 867 -62 c 0,3,4
 856 -73 856 -73 841 -73 c 2,5,-1
 549 -73 l 2,6,7
 534 -73 534 -73 523 -62 c 0,8,9
 512 -51 512 -51 512 -37 c 2,10,-1
 512 768 l 2,11,12
 512 783 512 783 523 794 c 0,13,14
 534 805 534 805 549 805 c 2,15,-1
 841 805 l 2,16,17
 856 805 856 805 867 794 c 0,18,19
 878 783 878 783 878 768 c 2,0,-1
366 768 m 2,20,-1
 366 -37 l 2,21,22
 366 -52 366 -52 355 -62 c 0,23,24
 344 -73 344 -73 329 -73 c 2,25,-1
 37 -73 l 2,26,27
 22 -73 22 -73 11 -62 c 0,28,29
 0 -51 0 -51 0 -37 c 2,30,-1
 0 768 l 2,31,32
 0 783 0 783 11 794 c 0,33,34
 22 805 22 805 37 805 c 2,35,-1
 329 805 l 2,36,37
 344 805 344 805 355 794 c 0,38,39
 366 783 366 783 366 768 c 2,20,-1
EndSplineSet
Validated: 1
EndChar

StartChar: uniF04D
Encoding: 79 61517 74
Width: 877
Flags: W
LayerCount: 2
Fore
SplineSet
878 768 m 2,0,-1
 878 -37 l 2,1,2
 878 -52 878 -52 867 -62 c 0,3,4
 856 -73 856 -73 841 -73 c 2,5,-1
 37 -73 l 2,6,7
 22 -73 22 -73 11 -62 c 0,8,9
 0 -51 0 -51 0 -37 c 2,10,-1
 0 768 l 2,11,12
 0 783 0 783 11 794 c 0,13,14
 22 805 22 805 37 805 c 2,15,-1
 841 805 l 2,16,17
 856 805 856 805 867 794 c 0,18,19
 878 783 878 783 878 768 c 2,0,-1
EndSplineSet
Validated: 1
EndChar

StartChar: uniF04E
Encoding: 80 61518 75
Width: 950
Flags: W
LayerCount: 2
Fore
SplineSet
26 -66 m 2,0,1
 15 -77 15 -77 7 -73 c 0,2,3
 0 -70 0 -70 0 -55 c 2,4,-1
 0 786 l 2,5,6
 0 801 0 801 7 805 c 0,7,8
 14 808 14 808 26 797 c 2,9,-1
 431 391 l 2,10,11
 435 387 435 387 439 381 c 1,12,-1
 439 786 l 2,13,14
 439 801 439 801 446 805 c 0,15,16
 453 808 453 808 465 797 c 2,17,-1
 870 391 l 2,18,19
 881 380 881 380 881 366 c 0,20,21
 881 351 881 351 870 340 c 2,22,-1
 465 -66 l 2,23,24
 454 -77 454 -77 446 -73 c 0,25,26
 439 -70 439 -70 439 -55 c 2,27,-1
 439 351 l 1,28,29
 436 345 436 345 431 340 c 2,30,-1
 26 -66 l 2,0,1
EndSplineSet
Validated: 1
EndChar

StartChar: uniF050
Encoding: 81 61520 76
Width: 1024
Flags: W
LayerCount: 2
Fore
SplineSet
26 -66 m 2,0,1
 15 -77 15 -77 7 -73 c 0,2,3
 0 -70 0 -70 0 -55 c 2,4,-1
 0 786 l 2,5,6
 0 801 0 801 7 805 c 0,7,8
 14 808 14 808 26 797 c 2,9,-1
 431 391 l 2,10,11
 435 387 435 387 439 381 c 1,12,-1
 439 786 l 2,13,14
 439 801 439 801 446 805 c 0,15,16
 453 808 453 808 465 797 c 2,17,-1
 870 391 l 2,18,19
 874 387 874 387 878 381 c 1,20,-1
 878 768 l 2,21,22
 878 783 878 783 889 794 c 0,23,24
 900 805 900 805 914 805 c 2,25,-1
 987 805 l 2,26,27
 1002 805 1002 805 1013 794 c 0,28,29
 1024 783 1024 783 1024 768 c 2,30,-1
 1024 -37 l 2,31,32
 1024 -52 1024 -52 1013 -62 c 0,33,34
 1002 -73 1002 -73 987 -73 c 2,35,-1
 914 -73 l 2,36,37
 899 -73 899 -73 889 -62 c 0,38,39
 878 -51 878 -51 878 -37 c 2,40,-1
 878 351 l 1,41,42
 875 345 875 345 870 340 c 2,43,-1
 465 -66 l 2,44,45
 454 -77 454 -77 446 -73 c 0,46,47
 439 -70 439 -70 439 -55 c 2,48,-1
 439 351 l 1,49,50
 436 345 436 345 431 340 c 2,51,-1
 26 -66 l 2,0,1
EndSplineSet
Validated: 1
EndChar

StartChar: uniF051
Encoding: 82 61521 77
Width: 584
Flags: W
LayerCount: 2
Fore
SplineSet
26 -66 m 2,0,1
 15 -77 15 -77 7 -73 c 0,2,3
 0 -70 0 -70 0 -55 c 2,4,-1
 0 786 l 2,5,6
 0 801 0 801 7 805 c 0,7,8
 14 808 14 808 26 797 c 2,9,-1
 431 391 l 2,10,11
 435 387 435 387 439 381 c 1,12,-1
 439 768 l 2,13,14
 439 783 439 783 450 794 c 0,15,16
 461 805 461 805 475 805 c 2,17,-1
 549 805 l 2,18,19
 564 805 564 805 574 794 c 0,20,21
 585 783 585 783 585 768 c 2,22,-1
 585 -37 l 2,23,24
 585 -52 585 -52 574 -62 c 0,25,26
 563 -73 563 -73 549 -73 c 2,27,-1
 475 -73 l 2,28,29
 460 -73 460 -73 450 -62 c 0,30,31
 439 -51 439 -51 439 -37 c 2,32,-1
 439 351 l 1,33,34
 436 345 436 345 431 340 c 2,35,-1
 26 -66 l 2,0,1
EndSplineSet
Validated: 1
EndChar

StartChar: uniF052
Encoding: 83 61522 78
Width: 878
Flags: W
LayerCount: 2
Fore
SplineSet
8 318 m 2,0,-1
 414 724 l 2,1,2
 425 735 425 735 439 735 c 0,3,4
 454 735 454 735 465 724 c 2,5,-1
 870 318 l 2,6,7
 881 307 881 307 879 300 c 0,8,9
 876 293 876 293 860 293 c 2,10,-1
 18 293 l 2,11,12
 3 293 3 293 1 300 c 0,13,14
 -3 307 -3 307 8 318 c 2,0,-1
842 0 m 2,15,-1
 37 0 l 2,16,17
 22 0 22 0 11 11 c 0,18,19
 0 22 0 22 1 37 c 2,20,-1
 1 183 l 2,21,22
 1 198 1 198 11 209 c 0,23,24
 22 220 22 220 37 219 c 2,25,-1
 842 219 l 2,26,27
 857 219 857 219 867 209 c 0,28,29
 878 198 878 198 879 183 c 2,30,-1
 879 37 l 2,31,32
 879 22 879 22 867 11 c 0,33,34
 857 0 857 0 842 0 c 2,15,-1
EndSplineSet
Validated: 1
EndChar

StartChar: uniF053
Encoding: 84 61523 79
Width: 657
Flags: W
LayerCount: 2
Fore
SplineSet
424 -22 m 2,0,-1
 51 351 l 2,1,2
 29 373 29 373 31 402 c 0,3,4
 31 433 31 433 51 455 c 2,5,-1
 424 826 l 2,6,7
 446 848 446 848 476 848 c 0,8,9
 507 848 507 848 527 826 c 2,10,-1
 570 783 l 2,11,12
 592 761 592 761 592 732 c 0,13,14
 592 701 592 701 570 680 c 2,15,-1
 293 402 l 1,16,-1
 570 125 l 2,17,18
 592 103 592 103 592 73 c 0,19,20
 592 42 592 42 570 22 c 2,21,-1
 527 -22 l 2,22,23
 505 -44 505 -44 476 -42 c 0,24,25
 446 -44 446 -44 424 -22 c 2,0,-1
EndSplineSet
Validated: 33
EndChar

StartChar: uniF054
Encoding: 85 61524 80
Width: 657
Flags: W
LayerCount: 2
Fore
SplineSet
628 402 m 0,0,1
 628 372 628 372 607 350 c 1,2,-1
 234 -22 l 2,3,4
 212 -44 212 -44 183 -43 c 0,5,6
 152 -43 152 -43 131 -22 c 2,7,-1
 88 22 l 1,8,9
 66 45 66 45 67 73 c 0,10,11
 67 104 67 104 88 125 c 2,12,-1
 366 402 l 1,13,-1
 88 680 l 1,14,15
 66 703 66 703 67 731 c 0,16,17
 67 762 67 762 88 783 c 2,18,-1
 131 825 l 1,19,20
 151 847 151 847 183 848 c 0,21,22
 214 848 214 848 234 825 c 1,23,-1
 607 454 l 2,24,25
 628 433 628 433 628 402 c 0,0,1
EndSplineSet
Validated: 33
EndChar

StartChar: uniF055
Encoding: 86 61525 81
Width: 877
Flags: W
LayerCount: 2
Fore
SplineSet
695 329 m 2,0,-1
 695 402 l 2,1,2
 695 417 695 417 684 428 c 0,3,4
 673 439 673 439 658 439 c 2,5,-1
 512 439 l 1,6,-1
 512 585 l 2,7,8
 512 600 512 600 501 611 c 0,9,10
 490 622 490 622 475 622 c 2,11,-1
 402 622 l 2,12,13
 387 622 387 622 377 611 c 0,14,15
 366 600 366 600 366 585 c 2,16,-1
 366 439 l 1,17,-1
 219 439 l 2,18,19
 204 439 204 439 194 428 c 0,20,21
 183 417 183 417 183 402 c 2,22,-1
 183 329 l 2,23,24
 183 314 183 314 194 303 c 0,25,26
 205 292 205 292 219 293 c 2,27,-1
 366 293 l 1,28,-1
 366 146 l 2,29,30
 366 131 366 131 377 121 c 0,31,32
 388 110 388 110 402 110 c 2,33,-1
 475 110 l 2,34,35
 490 110 490 110 501 121 c 0,36,37
 512 132 512 132 512 146 c 2,38,-1
 512 293 l 1,39,-1
 658 293 l 2,40,41
 673 293 673 293 684 303 c 0,42,43
 695 314 695 314 695 329 c 2,0,-1
878 366 m 0,44,45
 878 246 878 246 819 145 c 0,46,47
 761 45 761 45 659 -14 c 0,48,49
 559 -72 559 -72 439 -73 c 0,50,51
 319 -73 319 -73 218 -14 c 0,52,53
 118 44 118 44 58 145 c 0,54,55
 0 245 0 245 0 366 c 0,56,57
 0 486 0 486 58 586 c 0,58,59
 116 686 116 686 218 745 c 0,60,61
 318 803 318 803 439 805 c 0,62,63
 559 805 559 805 659 745 c 0,64,65
 759 687 759 687 819 586 c 0,66,67
 878 486 878 486 878 366 c 0,44,45
EndSplineSet
Validated: 1
EndChar

StartChar: uniF056
Encoding: 87 61526 82
Width: 877
Flags: W
LayerCount: 2
Fore
SplineSet
695 329 m 2,0,-1
 695 402 l 2,1,2
 695 417 695 417 684 428 c 0,3,4
 673 439 673 439 658 439 c 2,5,-1
 219 439 l 2,6,7
 204 439 204 439 194 428 c 0,8,9
 183 417 183 417 183 402 c 2,10,-1
 183 329 l 2,11,12
 183 314 183 314 194 303 c 0,13,14
 205 292 205 292 219 293 c 2,15,-1
 658 293 l 2,16,17
 673 293 673 293 684 303 c 0,18,19
 695 314 695 314 695 329 c 2,0,-1
878 366 m 0,20,21
 878 246 878 246 819 145 c 0,22,23
 761 45 761 45 659 -14 c 0,24,25
 559 -72 559 -72 439 -73 c 0,26,27
 319 -73 319 -73 218 -14 c 0,28,29
 118 44 118 44 58 145 c 0,30,31
 0 245 0 245 0 366 c 0,32,33
 0 486 0 486 58 586 c 0,34,35
 116 686 116 686 218 745 c 0,36,37
 318 803 318 803 439 805 c 0,38,39
 559 805 559 805 659 745 c 0,40,41
 759 687 759 687 819 586 c 0,42,43
 878 486 878 486 878 366 c 0,20,21
EndSplineSet
Validated: 1
EndChar

StartChar: uniF057
Encoding: 88 61527 83
Width: 877
Flags: W
LayerCount: 2
Fore
SplineSet
656 237 m 0,0,1
 656 252 656 252 646 262 c 2,2,-1
 543 366 l 1,3,-1
 646 469 l 2,4,5
 657 480 657 480 656 495 c 0,6,7
 656 510 656 510 646 521 c 2,8,-1
 594 572 l 2,9,10
 583 583 583 583 568 584 c 0,11,12
 553 584 553 584 543 572 c 2,13,-1
 439 469 l 1,14,-1
 336 572 l 2,15,16
 325 583 325 583 309 584 c 0,17,18
 294 584 294 584 284 572 c 2,19,-1
 232 521 l 2,20,21
 221 510 221 510 221 495 c 0,22,23
 221 480 221 480 232 469 c 2,24,-1
 336 366 l 1,25,-1
 232 262 l 2,26,27
 221 251 221 251 221 237 c 0,28,29
 221 222 221 222 232 210 c 2,30,-1
 284 159 l 2,31,32
 295 148 295 148 309 148 c 0,33,34
 324 148 324 148 336 159 c 2,35,-1
 439 262 l 1,36,-1
 543 159 l 2,37,38
 554 148 554 148 568 148 c 0,39,40
 583 148 583 148 594 159 c 2,41,-1
 646 210 l 2,42,43
 656 222 656 222 656 237 c 0,0,1
878 366 m 0,44,45
 878 246 878 246 819 145 c 0,46,47
 761 45 761 45 659 -14 c 0,48,49
 559 -72 559 -72 439 -73 c 0,50,51
 319 -73 319 -73 218 -14 c 0,52,53
 118 44 118 44 58 145 c 0,54,55
 0 245 0 245 0 366 c 0,56,57
 0 486 0 486 58 586 c 0,58,59
 116 686 116 686 218 745 c 0,60,61
 318 803 318 803 439 805 c 0,62,63
 559 805 559 805 659 745 c 0,64,65
 759 687 759 687 819 586 c 0,66,67
 878 486 878 486 878 366 c 0,44,45
EndSplineSet
Validated: 1
EndChar

StartChar: uniF058
Encoding: 89 61528 84
Width: 877
Flags: W
LayerCount: 2
Fore
SplineSet
734 459 m 0,0,1
 734 475 734 475 723 484 c 2,2,-1
 672 536 l 2,3,4
 661 547 661 547 646 547 c 0,5,6
 631 547 631 547 620 536 c 2,7,-1
 387 303 l 1,8,-1
 258 432 l 2,9,10
 247 443 247 443 232 443 c 0,11,12
 217 443 217 443 206 432 c 2,13,-1
 155 381 l 2,14,15
 145 371 145 371 144 355 c 0,16,17
 144 340 144 340 155 329 c 2,18,-1
 361 122 l 2,19,20
 372 111 372 111 387 112 c 0,21,22
 402 112 402 112 413 122 c 2,23,-1
 723 432 l 2,24,25
 734 444 734 444 734 459 c 0,0,1
878 366 m 0,26,27
 878 246 878 246 819 145 c 0,28,29
 761 45 761 45 659 -14 c 0,30,31
 559 -72 559 -72 439 -73 c 0,32,33
 319 -73 319 -73 218 -14 c 0,34,35
 118 44 118 44 58 145 c 0,36,37
 0 245 0 245 0 366 c 0,38,39
 0 486 0 486 58 586 c 0,40,41
 116 686 116 686 218 745 c 0,42,43
 318 803 318 803 439 805 c 0,44,45
 559 805 559 805 659 745 c 0,46,47
 759 687 759 687 819 586 c 0,48,49
 878 486 878 486 878 366 c 0,26,27
EndSplineSet
Validated: 1
EndChar

StartChar: uniF059
Encoding: 90 61529 85
Width: 877
Flags: W
LayerCount: 2
Fore
SplineSet
512 91 m 2,0,-1
 512 201 l 2,1,2
 512 208 512 208 507 214 c 0,3,4
 502 219 502 219 494 219 c 2,5,-1
 384 219 l 2,6,7
 377 219 377 219 371 214 c 0,8,9
 366 209 366 209 366 201 c 2,10,-1
 366 91 l 2,11,12
 366 84 366 84 371 79 c 0,13,14
 376 74 376 74 384 73 c 2,15,-1
 494 73 l 2,16,17
 501 73 501 73 507 79 c 0,18,19
 512 84 512 84 512 91 c 2,0,-1
658 475 m 0,20,21
 658 530 658 530 625 573 c 0,22,23
 591 616 591 616 543 637 c 0,24,25
 494 657 494 657 439 658 c 0,26,27
 385 658 385 658 336 637 c 0,28,29
 287 617 287 617 253 573 c 0,30,31
 219 530 219 530 219 475 c 2,32,-1
 219 469 l 1,33,-1
 219 462 l 1,34,-1
 220 455 l 1,35,-1
 222 449 l 1,36,-1
 225 444 l 1,37,-1
 229 440 l 1,38,-1
 238 439 l 1,39,-1
 347 439 l 2,40,41
 355 439 355 439 360 444 c 0,42,43
 365 449 365 449 366 457 c 0,44,45
 366 464 366 464 372 472 c 1,46,47
 383 489 383 489 400 501 c 0,48,49
 418 512 418 512 439 512 c 0,50,51
 462 512 462 512 486 500 c 0,52,53
 512 488 512 488 511 467 c 0,54,55
 511 449 511 449 497 434 c 0,56,57
 482 420 482 420 460 409 c 0,58,59
 438 398 438 398 418 385 c 0,60,61
 396 372 396 372 381 348 c 0,62,63
 366 324 366 324 366 293 c 2,64,-1
 366 287 l 1,65,-1
 366 279 l 1,66,-1
 367 272 l 1,67,-1
 368 265 l 1,68,-1
 372 261 l 1,69,-1
 376 257 l 1,70,-1
 384 256 l 1,71,-1
 494 256 l 2,72,73
 503 256 503 256 508 262 c 0,74,75
 512 268 512 268 512 276 c 0,76,77
 513 284 513 284 520 295 c 0,78,79
 527 306 527 306 541 313 c 0,80,81
 575 331 575 331 582 336 c 0,82,83
 618 362 618 362 637 397 c 0,84,85
 658 433 658 433 658 475 c 0,20,21
878 366 m 0,86,87
 878 246 878 246 819 145 c 0,88,89
 761 45 761 45 659 -14 c 0,90,91
 559 -72 559 -72 439 -73 c 0,92,93
 319 -73 319 -73 218 -14 c 0,94,95
 118 44 118 44 58 145 c 0,96,97
 0 245 0 245 0 366 c 0,98,99
 0 486 0 486 58 586 c 0,100,101
 116 686 116 686 218 745 c 0,102,103
 318 803 318 803 439 805 c 0,104,105
 559 805 559 805 659 745 c 0,106,107
 759 687 759 687 819 586 c 0,108,109
 878 486 878 486 878 366 c 0,86,87
EndSplineSet
Validated: 33
EndChar

StartChar: uniF05A
Encoding: 91 61530 86
Width: 877
Flags: W
LayerCount: 2
Fore
SplineSet
585 91 m 2,0,-1
 585 128 l 2,1,2
 585 136 585 136 580 141 c 0,3,4
 575 146 575 146 567 146 c 2,5,-1
 512 146 l 1,6,-1
 512 421 l 2,7,8
 512 429 512 429 507 434 c 0,9,10
 502 439 502 439 494 439 c 2,11,-1
 311 439 l 2,12,13
 303 439 303 439 298 434 c 0,14,15
 293 429 293 429 293 421 c 2,16,-1
 293 384 l 2,17,18
 293 376 293 376 298 371 c 0,19,20
 303 366 303 366 311 366 c 2,21,-1
 366 366 l 1,22,-1
 366 146 l 1,23,-1
 311 146 l 2,24,25
 303 146 303 146 298 141 c 0,26,27
 293 136 293 136 293 128 c 2,28,-1
 293 91 l 2,29,30
 293 83 293 83 298 78 c 0,31,32
 303 73 303 73 311 73 c 2,33,-1
 567 73 l 2,34,35
 575 73 575 73 580 78 c 0,36,37
 585 83 585 83 585 91 c 2,0,-1
512 530 m 2,38,-1
 512 640 l 2,39,40
 512 648 512 648 507 653 c 0,41,42
 502 658 502 658 494 658 c 2,43,-1
 384 658 l 2,44,45
 376 658 376 658 371 653 c 0,46,47
 366 648 366 648 366 640 c 2,48,-1
 366 530 l 2,49,50
 366 522 366 522 371 517 c 0,51,52
 376 512 376 512 384 512 c 2,53,-1
 494 512 l 2,54,55
 502 512 502 512 507 517 c 0,56,57
 512 522 512 522 512 530 c 2,38,-1
878 366 m 0,58,59
 878 246 878 246 819 145 c 0,60,61
 761 45 761 45 659 -14 c 0,62,63
 559 -72 559 -72 439 -73 c 0,64,65
 319 -73 319 -73 218 -14 c 0,66,67
 118 44 118 44 58 145 c 0,68,69
 0 245 0 245 0 366 c 0,70,71
 0 486 0 486 58 586 c 0,72,73
 116 686 116 686 218 745 c 0,74,75
 318 803 318 803 439 805 c 0,76,77
 559 805 559 805 659 745 c 0,78,79
 759 687 759 687 819 586 c 0,80,81
 878 486 878 486 878 366 c 0,58,59
EndSplineSet
Validated: 1
EndChar

StartChar: uniF05B
Encoding: 92 61531 87
Width: 877
Flags: W
LayerCount: 2
Fore
SplineSet
684 293 m 1,0,-1
 622 293 l 2,1,2
 607 293 607 293 596 303 c 0,3,4
 585 314 585 314 585 329 c 2,5,-1
 585 402 l 2,6,7
 585 417 585 417 596 428 c 0,8,9
 607 439 607 439 622 439 c 2,10,-1
 684 439 l 1,11,12
 666 500 666 500 620 547 c 0,13,14
 574 593 574 593 512 611 c 1,15,-1
 512 549 l 2,16,17
 512 534 512 534 501 523 c 0,18,19
 490 512 490 512 475 512 c 2,20,-1
 402 512 l 2,21,22
 387 512 387 512 377 523 c 0,23,24
 366 534 366 534 366 549 c 2,25,-1
 366 611 l 1,26,27
 305 593 305 593 258 547 c 0,28,29
 212 501 212 501 194 439 c 1,30,-1
 256 439 l 2,31,32
 271 439 271 439 282 428 c 0,33,34
 293 417 293 417 293 402 c 2,35,-1
 293 329 l 2,36,37
 293 314 293 314 282 303 c 0,38,39
 271 292 271 292 256 293 c 2,40,-1
 194 293 l 1,41,42
 212 232 212 232 258 185 c 0,43,44
 304 139 304 139 366 121 c 1,45,-1
 366 183 l 2,46,47
 366 198 366 198 377 209 c 0,48,49
 388 220 388 220 402 219 c 2,50,-1
 475 219 l 2,51,52
 490 219 490 219 501 209 c 0,53,54
 512 198 512 198 512 183 c 2,55,-1
 512 121 l 1,56,57
 573 139 573 139 620 185 c 0,58,59
 666 232 666 232 684 293 c 1,0,-1
878 402 m 2,60,-1
 878 329 l 2,61,62
 878 314 878 314 867 303 c 0,63,64
 856 292 856 292 841 293 c 2,65,-1
 760 293 l 1,66,67
 738 201 738 201 671 133 c 0,68,69
 603 65 603 65 512 45 c 1,70,-1
 512 -37 l 2,71,72
 512 -52 512 -52 501 -62 c 0,73,74
 490 -73 490 -73 475 -73 c 2,75,-1
 402 -73 l 2,76,77
 387 -73 387 -73 377 -62 c 0,78,79
 366 -51 366 -51 366 -37 c 2,80,-1
 366 45 l 1,81,82
 274 67 274 67 207 133 c 0,83,84
 139 201 139 201 119 293 c 1,85,-1
 37 293 l 2,86,87
 22 293 22 293 11 303 c 0,88,89
 0 314 0 314 0 329 c 2,90,-1
 0 402 l 2,91,92
 0 417 0 417 11 428 c 0,93,94
 22 439 22 439 37 439 c 2,95,-1
 119 439 l 1,96,97
 141 531 141 531 207 598 c 0,98,99
 275 666 275 666 366 686 c 1,100,-1
 366 768 l 2,101,102
 366 783 366 783 377 794 c 0,103,104
 388 805 388 805 402 805 c 2,105,-1
 475 805 l 2,106,107
 490 805 490 805 501 794 c 0,108,109
 512 783 512 783 512 768 c 2,110,-1
 512 686 l 1,111,112
 604 664 604 664 671 598 c 0,113,114
 739 530 739 530 760 439 c 1,115,-1
 841 439 l 2,116,117
 856 439 856 439 867 428 c 0,118,119
 878 417 878 417 878 402 c 2,60,-1
EndSplineSet
Validated: 1
EndChar

StartChar: uniF05C
Encoding: 93 61532 88
Width: 877
Flags: W
LayerCount: 2
Fore
SplineSet
643 256 m 0,0,1
 643 241 643 241 633 230 c 2,2,-1
 574 172 l 2,3,4
 564 162 564 162 549 162 c 0,5,6
 534 162 534 162 523 172 c 2,7,-1
 439 256 l 1,8,-1
 355 172 l 2,9,10
 345 162 345 162 329 162 c 0,11,12
 314 162 314 162 303 172 c 2,13,-1
 245 230 l 2,14,15
 235 240 235 240 234 256 c 0,16,17
 234 271 234 271 245 282 c 2,18,-1
 329 366 l 1,19,-1
 245 450 l 2,20,21
 235 460 235 460 234 475 c 0,22,23
 234 490 234 490 245 501 c 2,24,-1
 303 559 l 2,25,26
 313 569 313 569 329 569 c 0,27,28
 344 569 344 569 355 559 c 2,29,-1
 439 475 l 1,30,-1
 523 559 l 2,31,32
 533 569 533 569 549 569 c 0,33,34
 564 569 564 569 574 559 c 2,35,-1
 633 501 l 2,36,37
 643 491 643 491 643 475 c 0,38,39
 643 460 643 460 633 450 c 2,40,-1
 549 366 l 1,41,-1
 633 282 l 2,42,43
 643 271 643 271 643 256 c 0,0,1
731 366 m 0,44,45
 731 425 731 425 709 479 c 0,46,47
 685 533 685 533 646 572 c 0,48,49
 606 612 606 612 552 635 c 0,50,51
 498 659 498 659 439 658 c 0,52,53
 380 658 380 658 326 635 c 0,54,55
 272 611 272 611 232 572 c 0,56,57
 192 532 192 532 169 479 c 0,58,59
 145 425 145 425 146 366 c 0,60,61
 146 307 146 307 169 252 c 0,62,63
 193 198 193 198 232 159 c 0,64,65
 272 119 272 119 326 96 c 0,66,67
 380 72 380 72 439 73 c 0,68,69
 498 73 498 73 552 96 c 0,70,71
 606 120 606 120 646 159 c 0,72,73
 686 199 686 199 709 252 c 0,74,75
 731 307 731 307 731 366 c 0,44,45
878 366 m 0,76,77
 878 246 878 246 819 145 c 0,78,79
 761 45 761 45 659 -14 c 0,80,81
 559 -72 559 -72 439 -73 c 0,82,83
 319 -73 319 -73 218 -14 c 0,84,85
 118 44 118 44 58 145 c 0,86,87
 0 245 0 245 0 366 c 0,88,89
 0 486 0 486 58 586 c 0,90,91
 116 686 116 686 218 745 c 0,92,93
 318 803 318 803 439 805 c 0,94,95
 559 805 559 805 659 745 c 0,96,97
 759 687 759 687 819 586 c 0,98,99
 878 486 878 486 878 366 c 0,76,77
EndSplineSet
Validated: 33
EndChar

StartChar: uniF05D
Encoding: 94 61533 89
Width: 877
Flags: W
LayerCount: 2
Fore
SplineSet
680 439 m 0,0,1
 680 424 680 424 669 413 c 2,2,-1
 486 230 l 1,3,-1
 428 172 l 2,4,5
 418 162 418 162 402 162 c 0,6,7
 387 162 387 162 377 172 c 2,8,-1
 318 230 l 1,9,-1
 209 340 l 2,10,11
 199 350 199 350 199 366 c 0,12,13
 199 381 199 381 209 391 c 2,14,-1
 267 450 l 2,15,16
 277 460 277 460 293 460 c 0,17,18
 308 460 308 460 318 450 c 2,19,-1
 402 366 l 1,20,-1
 559 523 l 2,21,22
 569 533 569 533 585 534 c 0,23,24
 600 534 600 534 611 523 c 2,25,-1
 669 465 l 2,26,27
 680 454 680 454 680 439 c 0,0,1
731 366 m 0,28,29
 731 425 731 425 709 479 c 0,30,31
 685 533 685 533 646 572 c 0,32,33
 606 612 606 612 552 635 c 0,34,35
 498 659 498 659 439 658 c 0,36,37
 380 658 380 658 326 635 c 0,38,39
 272 611 272 611 232 572 c 0,40,41
 192 532 192 532 169 479 c 0,42,43
 145 425 145 425 146 366 c 0,44,45
 146 307 146 307 169 252 c 0,46,47
 193 198 193 198 232 159 c 0,48,49
 272 119 272 119 326 96 c 0,50,51
 380 72 380 72 439 73 c 0,52,53
 498 73 498 73 552 96 c 0,54,55
 606 120 606 120 646 159 c 0,56,57
 686 199 686 199 709 252 c 0,58,59
 731 307 731 307 731 366 c 0,28,29
878 366 m 0,60,61
 878 246 878 246 819 145 c 0,62,63
 761 45 761 45 659 -14 c 0,64,65
 559 -72 559 -72 439 -73 c 0,66,67
 319 -73 319 -73 218 -14 c 0,68,69
 118 44 118 44 58 145 c 0,70,71
 0 245 0 245 0 366 c 0,72,73
 0 486 0 486 58 586 c 0,74,75
 116 686 116 686 218 745 c 0,76,77
 318 803 318 803 439 805 c 0,78,79
 559 805 559 805 659 745 c 0,80,81
 759 687 759 687 819 586 c 0,82,83
 878 486 878 486 878 366 c 0,60,61
EndSplineSet
Validated: 33
EndChar

StartChar: uniF05E
Encoding: 95 61534 90
Width: 877
Flags: W
LayerCount: 2
Fore
SplineSet
731 366 m 0,0,1
 731 446 731 446 691 514 c 1,2,-1
 290 114 l 1,3,4
 360 73 360 73 439 73 c 0,5,6
 498 73 498 73 552 96 c 0,7,8
 606 120 606 120 646 159 c 0,9,10
 686 199 686 199 709 252 c 0,11,12
 731 307 731 307 731 366 c 0,0,1
186 217 m 1,13,-1
 588 617 l 1,14,15
 518 658 518 658 439 658 c 0,16,17
 380 658 380 658 326 635 c 0,18,19
 272 611 272 611 232 572 c 0,20,21
 192 532 192 532 169 479 c 0,22,23
 145 425 145 425 146 366 c 0,24,25
 145 287 145 287 186 217 c 1,13,-1
878 366 m 0,26,27
 878 246 878 246 819 145 c 0,28,29
 761 45 761 45 659 -14 c 0,30,31
 559 -72 559 -72 439 -73 c 0,32,33
 319 -73 319 -73 218 -14 c 0,34,35
 118 44 118 44 58 145 c 0,36,37
 0 245 0 245 0 366 c 0,38,39
 0 486 0 486 58 586 c 0,40,41
 116 686 116 686 218 745 c 0,42,43
 318 803 318 803 439 805 c 0,44,45
 559 805 559 805 659 745 c 0,46,47
 759 687 759 687 819 586 c 0,48,49
 878 486 878 486 878 366 c 0,26,27
EndSplineSet
Validated: 33
EndChar

StartChar: uniF060
Encoding: 96 61536 91
Width: 877
Flags: W
LayerCount: 2
Fore
SplineSet
878 366 m 2,0,-1
 878 293 l 2,1,2
 878 262 878 262 859 241 c 0,3,4
 841 219 841 219 811 219 c 2,5,-1
 409 219 l 1,6,-1
 575 51 l 1,7,8
 597 31 597 31 598 0 c 0,9,10
 598 -31 598 -31 575 -51 c 1,11,-1
 534 -95 l 2,12,13
 512 -117 512 -117 481 -116 c 0,14,15
 451 -116 451 -116 430 -95 c 1,16,-1
 57 278 l 2,17,18
 35 300 35 300 37 329 c 0,19,20
 37 359 37 359 57 381 c 1,21,-1
 430 753 l 2,22,23
 452 775 452 775 481 774 c 0,24,25
 511 774 511 774 534 753 c 2,26,-1
 575 711 l 2,27,28
 597 689 597 689 598 658 c 0,29,30
 598 627 598 627 575 606 c 2,31,-1
 409 439 l 1,32,-1
 811 439 l 2,33,34
 841 439 841 439 859 418 c 0,35,36
 878 397 878 397 878 366 c 2,0,-1
EndSplineSet
Validated: 33
EndChar

StartChar: uniF061
Encoding: 97 61537 92
Width: 877
Flags: W
LayerCount: 2
Fore
SplineSet
841 329 m 0,0,1
 841 298 841 298 820 278 c 2,2,-1
 449 -95 l 1,3,4
 426 -117 426 -117 396 -116 c 0,5,6
 367 -116 367 -116 344 -95 c 1,7,-1
 302 -52 l 2,8,9
 280 -30 280 -30 280 0 c 0,10,11
 280 31 280 31 302 52 c 2,12,-1
 469 219 l 1,13,-1
 67 219 l 2,14,15
 37 219 37 219 18 241 c 0,16,17
 0 263 0 263 0 293 c 2,18,-1
 0 366 l 2,19,20
 0 397 0 397 18 418 c 0,21,22
 36 440 36 440 67 439 c 2,23,-1
 469 439 l 1,24,-1
 302 607 l 1,25,26
 280 627 280 627 280 658 c 0,27,28
 280 689 280 689 302 710 c 1,29,-1
 344 753 l 2,30,31
 366 775 366 775 396 774 c 0,32,33
 428 774 428 774 449 753 c 2,34,-1
 820 381 l 1,35,36
 841 361 841 361 841 329 c 0,0,1
EndSplineSet
Validated: 33
EndChar

StartChar: uniF062
Encoding: 98 61538 93
Width: 950
Flags: W
LayerCount: 2
Fore
SplineSet
921 323 m 0,0,1
 921 294 921 294 899 271 c 1,2,-1
 856 228 l 2,3,4
 834 206 834 206 805 207 c 0,5,6
 774 207 774 207 753 228 c 1,7,-1
 585 396 l 1,8,-1
 585 -6 l 2,9,10
 585 -36 585 -36 564 -54 c 0,11,12
 542 -72 542 -72 512 -73 c 2,13,-1
 439 -73 l 2,14,15
 408 -73 408 -73 387 -54 c 0,16,17
 365 -36 365 -36 366 -6 c 2,18,-1
 366 396 l 1,19,-1
 198 228 l 1,20,21
 178 206 178 206 146 207 c 0,22,23
 115 207 115 207 95 228 c 1,24,-1
 52 271 l 2,25,26
 30 293 30 293 31 323 c 0,27,28
 31 354 31 354 52 375 c 2,29,-1
 424 746 l 1,30,31
 444 768 444 768 475 768 c 0,32,33
 506 768 506 768 527 746 c 2,34,-1
 899 375 l 1,35,36
 921 353 921 353 921 323 c 0,0,1
EndSplineSet
Validated: 33
EndChar

StartChar: uniF063
Encoding: 99 61539 94
Width: 950
Flags: W
LayerCount: 2
Fore
SplineSet
921 402 m 0,0,1
 921 371 921 371 899 351 c 2,2,-1
 527 -22 l 1,3,4
 504 -44 504 -44 475 -43 c 0,5,6
 444 -43 444 -43 424 -22 c 2,7,-1
 52 351 l 1,8,9
 30 371 30 371 31 402 c 0,10,11
 31 433 31 433 52 455 c 2,12,-1
 94 497 l 1,13,14
 117 519 117 519 146 518 c 0,15,16
 177 518 177 518 198 497 c 2,17,-1
 366 329 l 1,18,-1
 366 731 l 2,19,20
 366 761 366 761 387 783 c 0,21,22
 409 805 409 805 439 805 c 2,23,-1
 512 805 l 2,24,25
 542 805 542 805 563 783 c 0,26,27
 585 761 585 761 585 731 c 2,28,-1
 585 329 l 1,29,-1
 753 497 l 2,30,31
 775 519 775 519 805 518 c 0,32,33
 835 518 835 518 856 497 c 1,34,-1
 899 455 l 1,35,36
 921 432 921 432 921 402 c 0,0,1
EndSplineSet
Validated: 33
EndChar

StartChar: uniF064
Encoding: 100 61540 95
Width: 1024
Flags: W
LayerCount: 2
Fore
SplineSet
1024 512 m 0,0,1
 1024 497 1024 497 1013 486 c 2,2,-1
 721 194 l 2,3,4
 710 183 710 183 695 183 c 0,5,6
 680 183 680 183 669 194 c 0,7,8
 658 205 658 205 658 219 c 2,9,-1
 658 366 l 1,10,-1
 530 366 l 2,11,12
 474 366 474 366 430 362 c 0,13,14
 386 359 386 359 342 350 c 0,15,16
 298 341 298 341 266 326 c 0,17,18
 233 311 233 311 206 286 c 0,19,20
 178 261 178 261 160 228 c 0,21,22
 143 194 143 194 132 150 c 0,23,24
 122 104 122 104 122 46 c 0,25,26
 122 14 122 14 125 -25 c 0,27,28
 125 -28 125 -28 127 -38 c 0,29,30
 128 -48 128 -48 128 -53 c 0,31,32
 128 -61 128 -61 123 -68 c 0,33,34
 118 -74 118 -74 110 -73 c 0,35,36
 101 -73 101 -73 94 -63 c 0,37,38
 90 -58 90 -58 86 -51 c 0,39,40
 83 -44 83 -44 79 -34 c 0,41,42
 75 -25 75 -25 73 -20 c 0,43,44
 0 143 0 143 0 238 c 0,45,46
 0 352 0 352 31 428 c 0,47,48
 123 658 123 658 530 658 c 2,49,-1
 658 658 l 1,50,-1
 658 805 l 2,51,52
 658 820 658 820 669 830 c 0,53,54
 680 841 680 841 695 841 c 0,55,56
 710 841 710 841 721 830 c 2,57,-1
 1013 538 l 2,58,59
 1024 527 1024 527 1024 512 c 0,0,1
EndSplineSet
Validated: 1
EndChar

StartChar: uniF065
Encoding: 101 61541 96
Width: 877
Flags: W
LayerCount: 2
Fore
SplineSet
431 274 m 0,0,1
 431 267 431 267 426 261 c 2,2,-1
 236 72 l 1,3,-1
 318 -11 l 2,4,5
 329 -22 329 -22 329 -37 c 0,6,7
 329 -52 329 -52 318 -62 c 0,8,9
 307 -73 307 -73 293 -73 c 2,10,-1
 37 -73 l 2,11,12
 22 -73 22 -73 11 -62 c 0,13,14
 0 -51 0 -51 0 -37 c 2,15,-1
 0 219 l 2,16,17
 0 234 0 234 11 245 c 0,18,19
 22 256 22 256 37 256 c 0,20,21
 52 256 52 256 62 245 c 2,22,-1
 144 163 l 1,23,-1
 334 352 l 2,24,25
 340 358 340 358 347 358 c 0,26,27
 354 358 354 358 360 352 c 2,28,-1
 426 288 l 2,29,30
 431 281 431 281 431 274 c 0,0,1
878 768 m 2,31,-1
 878 512 l 2,32,33
 878 497 878 497 867 486 c 0,34,35
 856 475 856 475 841 475 c 0,36,37
 826 475 826 475 815 486 c 2,38,-1
 733 568 l 1,39,-1
 544 379 l 2,40,41
 538 373 538 373 530 373 c 0,42,43
 523 373 523 373 517 379 c 2,44,-1
 452 444 l 2,45,46
 446 450 446 450 446 457 c 0,47,48
 446 464 446 464 452 470 c 2,49,-1
 642 660 l 1,50,-1
 559 742 l 2,51,52
 548 753 548 753 549 768 c 0,53,54
 549 783 549 783 559 794 c 0,55,56
 570 805 570 805 585 805 c 2,57,-1
 841 805 l 2,58,59
 856 805 856 805 867 794 c 0,60,61
 878 783 878 783 878 768 c 2,31,-1
EndSplineSet
Validated: 1
EndChar

StartChar: uniF066
Encoding: 102 61542 97
Width: 877
Flags: W
LayerCount: 2
Fore
SplineSet
439 329 m 2,0,-1
 439 73 l 2,1,2
 439 58 439 58 428 47 c 0,3,4
 417 36 417 36 402 37 c 0,5,6
 387 37 387 37 377 47 c 2,7,-1
 294 130 l 1,8,-1
 104 -60 l 2,9,10
 98 -66 98 -66 91 -66 c 0,11,12
 84 -66 84 -66 78 -60 c 2,13,-1
 13 5 l 2,14,15
 7 11 7 11 7 18 c 0,16,17
 7 25 7 25 13 32 c 2,18,-1
 203 221 l 1,19,-1
 121 303 l 2,20,21
 110 314 110 314 110 329 c 0,22,23
 110 344 110 344 121 355 c 0,24,25
 132 366 132 366 146 366 c 2,26,-1
 402 366 l 2,27,28
 417 366 417 366 428 355 c 0,29,30
 439 344 439 344 439 329 c 2,0,-1
870 713 m 0,31,32
 870 706 870 706 864 700 c 2,33,-1
 675 510 l 1,34,-1
 757 428 l 2,35,36
 768 417 768 417 768 402 c 0,37,38
 768 387 768 387 757 377 c 0,39,40
 746 366 746 366 731 366 c 2,41,-1
 475 366 l 2,42,43
 460 366 460 366 450 377 c 0,44,45
 439 388 439 388 439 402 c 2,46,-1
 439 658 l 2,47,48
 439 673 439 673 450 684 c 0,49,50
 461 695 461 695 475 695 c 0,51,52
 490 695 490 695 501 684 c 2,53,-1
 584 602 l 1,54,-1
 773 792 l 2,55,56
 779 798 779 798 786 797 c 0,57,58
 793 797 793 797 800 792 c 2,59,-1
 864 726 l 2,60,61
 870 720 870 720 870 713 c 0,31,32
EndSplineSet
Validated: 1
EndChar

StartChar: uniF067
Encoding: 103 61543 98
Width: 803
Flags: W
LayerCount: 2
Fore
SplineSet
805 457 m 2,0,-1
 805 347 l 2,1,2
 805 324 805 324 788 308 c 0,3,4
 772 292 772 292 750 293 c 2,5,-1
 512 293 l 1,6,-1
 512 55 l 2,7,8
 512 32 512 32 496 16 c 0,9,10
 480 0 480 0 457 0 c 2,11,-1
 347 0 l 2,12,13
 324 0 324 0 308 16 c 0,14,15
 292 32 292 32 293 55 c 2,16,-1
 293 293 l 1,17,-1
 55 293 l 2,18,19
 32 293 32 293 16 308 c 0,20,21
 0 324 0 324 0 347 c 2,22,-1
 0 457 l 2,23,24
 0 480 0 480 16 496 c 0,25,26
 32 512 32 512 55 512 c 2,27,-1
 293 512 l 1,28,-1
 293 750 l 2,29,30
 293 773 293 773 308 788 c 0,31,32
 324 804 324 804 347 805 c 2,33,-1
 457 805 l 2,34,35
 480 805 480 805 496 788 c 0,36,37
 512 772 512 772 512 750 c 2,38,-1
 512 512 l 1,39,-1
 750 512 l 2,40,41
 773 512 773 512 788 496 c 0,42,43
 805 480 805 480 805 457 c 2,0,-1
EndSplineSet
Validated: 33
EndChar

StartChar: uniF068
Encoding: 104 61544 99
Width: 803
Flags: W
LayerCount: 2
Fore
SplineSet
805 457 m 2,0,-1
 805 347 l 2,1,2
 805 324 805 324 788 308 c 0,3,4
 772 292 772 292 750 293 c 2,5,-1
 55 293 l 2,6,7
 32 293 32 293 16 308 c 0,8,9
 0 324 0 324 0 347 c 2,10,-1
 0 457 l 2,11,12
 0 480 0 480 16 496 c 0,13,14
 32 512 32 512 55 512 c 2,15,-1
 750 512 l 2,16,17
 773 512 773 512 788 496 c 0,18,19
 805 480 805 480 805 457 c 2,0,-1
EndSplineSet
Validated: 33
EndChar

StartChar: uniF069
Encoding: 105 61545 100
Width: 950
Flags: W
LayerCount: 2
Fore
SplineSet
847 278 m 2,0,1
 874 263 874 263 881 233 c 0,2,3
 889 203 889 203 873 178 c 2,4,-1
 838 115 l 2,5,6
 823 88 823 88 793 81 c 0,7,8
 763 73 763 73 737 88 c 2,9,-1
 585 175 l 1,10,-1
 585 0 l 2,11,12
 585 -30 585 -30 563 -51 c 0,13,14
 541 -73 541 -73 512 -73 c 2,15,-1
 439 -73 l 2,16,17
 409 -73 409 -73 387 -51 c 0,18,19
 365 -29 365 -29 366 0 c 2,20,-1
 366 175 l 1,21,-1
 214 88 l 2,22,23
 187 73 187 73 158 81 c 0,24,25
 128 89 128 89 114 115 c 2,26,-1
 77 178 l 2,27,28
 62 205 62 205 70 233 c 0,29,30
 78 263 78 263 104 278 c 2,31,-1
 256 366 l 1,32,-1
 104 454 l 2,33,34
 77 469 77 469 70 498 c 0,35,36
 62 528 62 528 77 554 c 2,37,-1
 114 616 l 2,38,39
 129 643 129 643 158 650 c 0,40,41
 188 658 188 658 214 643 c 2,42,-1
 366 556 l 1,43,-1
 366 731 l 2,44,45
 366 761 366 761 387 783 c 0,46,47
 409 805 409 805 439 805 c 2,48,-1
 512 805 l 2,49,50
 542 805 542 805 563 783 c 0,51,52
 585 761 585 761 585 731 c 2,53,-1
 585 556 l 1,54,-1
 737 643 l 2,55,56
 764 658 764 658 793 650 c 0,57,58
 823 642 823 642 838 616 c 2,59,-1
 873 554 l 2,60,61
 888 527 888 527 881 498 c 0,62,63
 873 468 873 468 847 454 c 2,64,-1
 695 366 l 1,65,-1
 847 278 l 2,0,1
EndSplineSet
Validated: 33
EndChar

StartChar: uniF06A
Encoding: 106 61546 101
Width: 877
Flags: W
LayerCount: 2
Fore
SplineSet
439 805 m 0,0,1
 559 805 559 805 659 745 c 0,2,3
 759 687 759 687 819 586 c 0,4,5
 877 486 877 486 878 366 c 0,6,7
 878 246 878 246 819 145 c 0,8,9
 761 45 761 45 659 -14 c 0,10,11
 559 -72 559 -72 439 -73 c 0,12,13
 319 -73 319 -73 218 -14 c 0,14,15
 118 44 118 44 58 145 c 0,16,17
 0 245 0 245 0 366 c 0,18,19
 0 486 0 486 58 586 c 0,20,21
 116 686 116 686 218 745 c 0,22,23
 319 805 319 805 439 805 c 0,0,1
512 92 m 2,24,-1
 512 201 l 2,25,26
 512 209 512 209 507 214 c 0,27,28
 502 219 502 219 495 219 c 2,29,-1
 385 219 l 2,30,31
 378 219 378 219 372 214 c 0,32,33
 366 208 366 208 366 201 c 2,34,-1
 366 92 l 2,35,36
 366 85 366 85 372 79 c 0,37,38
 378 73 378 73 385 73 c 2,39,-1
 495 73 l 2,40,41
 502 73 502 73 507 79 c 0,42,43
 512 84 512 84 512 92 c 2,24,-1
511 289 m 2,44,-1
 521 643 l 2,45,46
 521 650 521 650 515 653 c 1,47,48
 509 657 509 657 502 658 c 2,49,-1
 376 658 l 2,50,51
 368 658 368 658 362 653 c 1,52,53
 356 650 356 650 356 643 c 2,54,-1
 367 289 l 2,55,56
 367 283 367 283 372 279 c 0,57,58
 378 275 378 275 386 274 c 2,59,-1
 492 274 l 2,60,61
 500 274 500 274 505 279 c 0,62,63
 510 283 510 283 511 289 c 2,44,-1
EndSplineSet
Validated: 1
EndChar

StartChar: uniF06B
Encoding: 107 61547 102
Width: 877
Flags: W
LayerCount: 2
Fore
SplineSet
530 102 m 2,0,-1
 530 512 l 1,1,-1
 347 512 l 1,2,-1
 347 102 l 2,3,4
 347 88 347 88 358 81 c 0,5,6
 368 73 368 73 384 73 c 2,7,-1
 494 73 l 2,8,9
 509 73 509 73 520 81 c 0,10,11
 530 88 530 88 530 102 c 2,0,-1
269 585 m 2,12,-1
 381 585 l 1,13,-1
 309 677 l 2,14,15
 296 694 296 694 269 695 c 0,16,17
 246 695 246 695 230 679 c 0,18,19
 214 663 214 663 215 640 c 0,20,21
 215 617 215 617 230 601 c 0,22,23
 246 585 246 585 269 585 c 2,12,-1
663 640 m 0,24,25
 663 663 663 663 647 679 c 0,26,27
 631 695 631 695 608 695 c 0,28,29
 582 695 582 695 568 677 c 2,30,-1
 497 585 l 1,31,-1
 608 585 l 2,32,33
 631 585 631 585 647 601 c 0,34,35
 663 617 663 617 663 640 c 0,24,25
878 494 m 2,36,-1
 878 311 l 2,37,38
 878 303 878 303 872 298 c 0,39,40
 866 294 866 294 856 292 c 0,41,42
 847 291 847 291 839 291 c 0,43,44
 831 291 831 291 818 292 c 0,45,46
 807 293 807 293 805 293 c 1,47,-1
 805 55 l 2,48,49
 805 32 805 32 788 16 c 0,50,51
 772 0 772 0 750 0 c 2,52,-1
 128 0 l 2,53,54
 105 0 105 0 89 16 c 0,55,56
 73 32 73 32 73 55 c 2,57,-1
 73 293 l 1,58,59
 70 293 70 293 59 292 c 0,60,61
 48 291 48 291 40 291 c 0,62,63
 32 291 32 291 22 292 c 0,64,65
 13 293 13 293 6 298 c 0,66,67
 0 302 0 302 0 311 c 2,68,-1
 0 494 l 2,69,70
 0 501 0 501 5 507 c 0,71,72
 10 512 10 512 18 512 c 2,73,-1
 269 512 l 2,74,75
 216 512 216 512 179 550 c 0,76,77
 141 588 141 588 141 640 c 0,78,79
 141 693 141 693 179 730 c 0,80,81
 217 768 217 768 269 768 c 0,82,83
 330 768 330 768 366 724 c 2,84,-1
 439 630 l 1,85,-1
 512 724 l 2,86,87
 546 768 546 768 608 768 c 0,88,89
 661 768 661 768 698 730 c 0,90,91
 736 692 736 692 736 640 c 0,92,93
 736 587 736 587 698 550 c 0,94,95
 660 512 660 512 608 512 c 2,96,-1
 859 512 l 2,97,98
 866 512 866 512 872 507 c 0,99,100
 878 501 878 501 878 494 c 2,36,-1
EndSplineSet
Validated: 33
EndChar

StartChar: uniF06C
Encoding: 108 61548 103
Width: 1024
Flags: W
LayerCount: 2
Fore
SplineSet
731 475 m 0,0,1
 731 490 731 490 721 501 c 0,2,3
 710 512 710 512 695 512 c 0,4,5
 597 512 597 512 513 483 c 0,6,7
 430 454 430 454 365 408 c 0,8,9
 300 360 300 360 230 282 c 0,10,11
 219 270 219 270 219 256 c 0,12,13
 219 241 219 241 230 230 c 0,14,15
 241 219 241 219 256 219 c 0,16,17
 269 219 269 219 282 230 c 0,18,19
 297 243 297 243 324 271 c 0,20,21
 351 298 351 298 362 308 c 0,22,23
 440 379 440 379 516 410 c 0,24,25
 591 440 591 440 695 439 c 0,26,27
 710 439 710 439 721 450 c 0,28,29
 731 460 731 460 731 475 c 0,0,1
1024 589 m 0,30,31
 1024 535 1024 535 1013 478 c 0,32,33
 986 350 986 350 907 259 c 0,34,35
 828 168 828 168 702 106 c 1,36,37
 580 45 580 45 453 45 c 0,38,39
 368 45 368 45 289 72 c 0,40,41
 281 75 281 75 239 95 c 0,42,43
 197 117 197 117 184 117 c 0,44,45
 175 117 175 117 162 98 c 0,46,47
 149 80 149 80 136 58 c 0,48,49
 124 36 124 36 105 18 c 0,50,51
 88 0 88 0 72 0 c 0,52,53
 55 0 55 0 42 6 c 0,54,55
 30 12 30 12 25 20 c 0,56,57
 19 27 19 27 9 44 c 0,58,59
 8 46 8 46 6 50 c 0,60,61
 4 54 4 54 3 56 c 0,62,63
 2 58 2 58 1 61 c 0,64,65
 0 65 0 65 0 70 c 0,66,67
 0 90 0 90 17 112 c 0,68,69
 34 134 34 134 56 148 c 0,70,71
 78 163 78 163 95 180 c 0,72,73
 112 196 112 196 113 208 c 0,74,75
 113 210 113 210 105 229 c 0,76,77
 97 248 97 248 96 255 c 0,78,79
 91 284 91 284 91 314 c 0,80,81
 91 380 91 380 116 440 c 0,82,83
 141 500 141 500 183 546 c 0,84,85
 226 591 226 591 282 625 c 0,86,87
 336 659 336 659 397 680 c 0,88,89
 429 690 429 690 480 694 c 0,90,91
 531 698 531 698 583 699 c 0,92,93
 634 700 634 700 685 702 c 0,94,95
 736 705 736 705 778 716 c 0,96,97
 821 727 821 727 844 749 c 1,98,-1
 860 766 l 1,99,-1
 878 781 l 1,100,-1
 893 794 l 1,101,-1
 913 802 l 1,102,-1
 938 805 l 1,103,104
 961 805 961 805 979 778 c 0,105,106
 997 751 997 751 1006 715 c 0,107,108
 1015 677 1015 677 1020 643 c 0,109,110
 1024 611 1024 611 1024 589 c 0,30,31
EndSplineSet
Validated: 33
EndChar

StartChar: uniF06D
Encoding: 109 61549 104
Width: 803
Flags: W
LayerCount: 2
Fore
SplineSet
805 -91 m 2,0,-1
 805 -128 l 2,1,2
 805 -135 805 -135 799 -141 c 0,3,4
 794 -146 794 -146 786 -146 c 2,5,-1
 18 -146 l 2,6,7
 11 -146 11 -146 5 -141 c 0,8,9
 0 -136 0 -136 0 -128 c 2,10,-1
 0 -91 l 2,11,12
 0 -84 0 -84 5 -79 c 0,13,14
 10 -74 10 -74 18 -73 c 2,15,-1
 786 -73 l 2,16,17
 793 -73 793 -73 799 -79 c 0,18,19
 805 -84 805 -84 805 -91 c 2,0,-1
658 512 m 0,20,21
 658 467 658 467 644 430 c 0,22,23
 630 392 630 392 607 366 c 0,24,25
 584 339 584 339 558 315 c 0,26,27
 530 291 530 291 503 271 c 0,28,29
 475 251 475 251 453 229 c 0,30,31
 430 209 430 209 417 183 c 0,32,33
 403 157 403 157 402 128 c 0,34,35
 402 73 402 73 440 0 c 1,36,-1
 438 1 l 1,37,-1
 439 0 l 1,38,39
 388 24 388 24 347 47 c 0,40,41
 307 71 307 71 268 104 c 0,42,43
 229 137 229 137 204 174 c 0,44,45
 178 211 178 211 162 260 c 0,46,47
 147 309 147 309 146 366 c 0,48,49
 146 412 146 412 161 449 c 0,50,51
 175 487 175 487 197 512 c 0,52,53
 220 539 220 539 247 562 c 0,54,55
 275 586 275 586 302 607 c 0,56,57
 330 627 330 627 351 648 c 0,58,59
 374 668 374 668 388 694 c 0,60,61
 402 720 402 720 402 750 c 0,62,63
 402 803 402 803 365 878 c 1,64,-1
 367 878 l 1,65,-1
 366 878 l 1,66,67
 417 854 417 854 457 830 c 0,68,69
 497 806 497 806 537 773 c 0,70,71
 576 740 576 740 601 703 c 0,72,73
 627 666 627 666 643 617 c 0,74,75
 658 568 658 568 658 512 c 0,20,21
EndSplineSet
Validated: 5
EndChar

StartChar: uniF06E
Encoding: 110 61550 105
Width: 1024
Flags: W
LayerCount: 2
Fore
SplineSet
951 329 m 1,0,1
 864 464 864 464 733 530 c 1,2,3
 768 471 768 471 768 402 c 0,4,5
 768 297 768 297 693 221 c 0,6,7
 618 146 618 146 512 146 c 0,8,9
 407 146 407 146 331 221 c 0,10,11
 256 296 256 296 256 402 c 0,12,13
 256 472 256 472 291 530 c 1,14,15
 160 463 160 463 73 329 c 1,16,17
 149 212 149 212 264 142 c 0,18,19
 379 72 379 72 512 73 c 0,20,21
 646 73 646 73 760 142 c 0,22,23
 875 212 875 212 951 329 c 1,0,1
540 549 m 0,24,25
 540 560 540 560 531 568 c 0,26,27
 523 575 523 575 512 575 c 0,28,29
 440 575 440 575 389 525 c 0,30,31
 338 474 338 474 338 402 c 0,32,33
 338 391 338 391 346 383 c 0,34,35
 354 375 354 375 366 375 c 0,36,37
 377 375 377 375 385 383 c 0,38,39
 393 391 393 391 393 402 c 0,40,41
 393 451 393 451 428 486 c 0,42,43
 463 521 463 521 512 521 c 0,44,45
 523 521 523 521 531 529 c 0,46,47
 540 538 540 538 540 549 c 0,24,25
1024 329 m 0,48,49
 1024 310 1024 310 1013 290 c 1,50,51
 933 159 933 159 798 79 c 0,52,53
 663 0 663 0 512 0 c 0,54,55
 361 0 361 0 226 80 c 0,56,57
 91 160 91 160 11 290 c 1,58,59
 0 310 0 310 0 329 c 0,60,61
 0 348 0 348 11 369 c 1,62,63
 91 500 91 500 226 579 c 0,64,65
 361 659 361 659 512 658 c 0,66,67
 663 658 663 658 798 579 c 0,68,69
 933 499 933 499 1013 369 c 1,70,71
 1024 348 1024 348 1024 329 c 0,48,49
EndSplineSet
Validated: 33
EndChar

StartChar: uniF070
Encoding: 111 61552 106
Width: 1024
Flags: W
LayerCount: 2
Fore
SplineSet
317 115 m 1,0,-1
 361 196 l 1,1,2
 311 232 311 232 284 287 c 0,3,4
 256 342 256 342 256 402 c 0,5,6
 256 472 256 472 291 530 c 1,7,8
 160 463 160 463 73 329 c 1,9,10
 169 182 169 182 317 115 c 1,0,-1
540 549 m 0,11,12
 540 560 540 560 531 568 c 0,13,14
 523 575 523 575 512 575 c 0,15,16
 440 575 440 575 389 525 c 0,17,18
 338 474 338 474 338 402 c 0,19,20
 338 391 338 391 346 383 c 0,21,22
 354 375 354 375 366 375 c 0,23,24
 377 375 377 375 385 383 c 0,25,26
 393 391 393 391 393 402 c 0,27,28
 393 451 393 451 428 486 c 0,29,30
 463 521 463 521 512 521 c 0,31,32
 523 521 523 521 531 529 c 0,33,34
 540 538 540 538 540 549 c 0,11,12
746 657 m 0,35,36
 746 653 746 653 746 652 c 0,37,38
 686 544 686 544 566 329 c 0,39,40
 446 113 446 113 386 5 c 1,41,-1
 357 -46 l 1,42,43
 351 -55 351 -55 342 -55 c 0,44,45
 335 -55 335 -55 265 -15 c 0,46,47
 256 -9 256 -9 256 1 c 0,48,49
 256 8 256 8 282 51 c 1,50,51
 200 88 200 88 131 150 c 0,52,53
 62 211 62 211 11 290 c 0,54,55
 0 307 0 307 0 329 c 0,56,57
 0 351 0 351 11 369 c 0,58,59
 98 503 98 503 228 581 c 0,60,61
 358 659 358 659 512 658 c 0,62,63
 563 658 563 658 614 648 c 1,64,-1
 646 705 l 2,65,66
 652 714 652 714 662 713 c 0,67,68
 665 713 665 713 672 710 c 0,69,70
 679 707 679 707 690 700 c 0,71,72
 700 695 700 695 709 690 c 0,73,74
 717 685 717 685 727 680 c 0,75,76
 736 675 736 675 737 673 c 0,77,78
 746 666 746 666 746 657 c 0,35,36
768 402 m 0,79,80
 768 322 768 322 723 257 c 0,81,82
 678 191 678 191 603 164 c 1,83,-1
 764 451 l 1,84,85
 768 425 768 425 768 402 c 0,79,80
1024 329 m 0,86,87
 1024 309 1024 309 1013 290 c 0,88,89
 990 253 990 253 950 207 c 0,90,91
 864 109 864 109 752 54 c 0,92,93
 639 0 639 0 512 0 c 1,94,-1
 554 76 l 1,95,96
 675 86 675 86 778 154 c 0,97,98
 881 222 881 222 951 329 c 1,99,100
 885 431 885 431 790 497 c 1,101,-1
 825 561 l 1,102,103
 879 524 879 524 930 474 c 0,104,105
 980 423 980 423 1013 369 c 0,106,107
 1024 349 1024 349 1024 329 c 0,86,87
EndSplineSet
Validated: 33
EndChar

StartChar: uniF071
Encoding: 112 61553 107
Width: 1024
Flags: W
LayerCount: 2
Fore
SplineSet
585 92 m 2,0,-1
 585 201 l 2,1,2
 585 209 585 209 580 214 c 0,3,4
 575 219 575 219 567 219 c 2,5,-1
 457 219 l 2,6,7
 450 219 450 219 444 214 c 0,8,9
 439 209 439 209 439 201 c 2,10,-1
 439 92 l 2,11,12
 439 84 439 84 444 79 c 0,13,14
 449 74 449 74 457 73 c 2,15,-1
 567 73 l 2,16,17
 574 73 574 73 580 79 c 0,18,19
 585 84 585 84 585 92 c 2,0,-1
584 306 m 2,20,-1
 594 568 l 2,21,22
 594 575 594 575 589 579 c 1,23,24
 582 585 582 585 574 585 c 2,25,-1
 450 585 l 2,26,27
 444 585 444 585 435 579 c 1,28,29
 429 575 429 575 430 567 c 2,30,-1
 439 306 l 2,31,32
 439 300 439 300 445 296 c 0,33,34
 451 292 451 292 459 293 c 2,35,-1
 564 293 l 2,36,37
 572 293 572 293 578 296 c 0,38,39
 583 300 583 300 584 306 c 2,20,-1
575 840 m 2,40,-1
 1015 35 l 2,41,42
 1035 -1 1035 -1 1014 -37 c 0,43,44
 1005 -53 1005 -53 987 -63 c 0,45,46
 971 -72 971 -72 951 -73 c 2,47,-1
 73 -73 l 2,48,49
 54 -73 54 -73 37 -63 c 0,50,51
 21 -54 21 -54 10 -37 c 0,52,53
 -12 -1 -12 -1 9 35 c 2,54,-1
 449 840 l 2,55,56
 458 857 458 857 475 867 c 0,57,58
 492 877 492 877 512 878 c 0,59,60
 532 878 532 878 549 867 c 0,61,62
 566 857 566 857 575 840 c 2,40,-1
EndSplineSet
Validated: 33
EndChar

StartChar: uniF072
Encoding: 113 61554 108
Width: 803
Flags: W
LayerCount: 2
Fore
SplineSet
799 757 m 0,0,1
 799 707 799 707 713 622 c 2,2,-1
 575 484 l 1,3,-1
 657 58 l 1,4,-1
 658 55 l 1,5,6
 658 47 658 47 653 42 c 2,7,-1
 616 5 l 2,8,9
 611 0 611 0 603 0 c 0,10,11
 591 0 591 0 587 10 c 2,12,-1
 430 339 l 1,13,-1
 290 199 l 1,14,15
 329 63 329 63 329 55 c 0,16,17
 329 47 329 47 324 42 c 2,18,-1
 288 5 l 2,19,20
 283 0 283 0 274 0 c 0,21,22
 264 0 264 0 258 9 c 2,23,-1
 170 169 l 1,24,-1
 9 258 l 2,25,26
 0 263 0 263 0 273 c 0,27,28
 0 281 0 281 5 287 c 2,29,-1
 42 324 l 2,30,31
 47 329 47 329 55 329 c 0,32,33
 63 329 63 329 199 290 c 1,34,-1
 339 430 l 1,35,-1
 10 587 l 2,36,37
 0 591 0 591 0 603 c 0,38,39
 0 611 0 611 5 616 c 2,40,-1
 42 653 l 2,41,42
 47 658 47 658 55 658 c 0,43,44
 57 658 57 658 58 657 c 2,45,-1
 484 575 l 1,46,-1
 622 713 l 2,47,48
 707 798 707 798 757 799 c 0,49,50
 775 799 775 799 786 786 c 0,51,52
 799 775 799 775 799 757 c 0,0,1
EndSplineSet
Validated: 1
EndChar

StartChar: uniF073
Encoding: 114 61555 109
Width: 950
Flags: W
LayerCount: 2
Fore
SplineSet
73 -73 m 1,0,-1
 238 -73 l 1,1,-1
 238 91 l 1,2,-1
 73 91 l 1,3,-1
 73 -73 l 1,0,-1
274 -73 m 1,4,-1
 457 -73 l 1,5,-1
 457 91 l 1,6,-1
 274 91 l 1,7,-1
 274 -73 l 1,4,-1
73 128 m 1,8,-1
 238 128 l 1,9,-1
 238 311 l 1,10,-1
 73 311 l 1,11,-1
 73 128 l 1,8,-1
274 128 m 1,12,-1
 457 128 l 1,13,-1
 457 311 l 1,14,-1
 274 311 l 1,15,-1
 274 128 l 1,12,-1
73 347 m 1,16,-1
 238 347 l 1,17,-1
 238 512 l 1,18,-1
 73 512 l 1,19,-1
 73 347 l 1,16,-1
494 -73 m 1,20,-1
 677 -73 l 1,21,-1
 677 91 l 1,22,-1
 494 91 l 1,23,-1
 494 -73 l 1,20,-1
274 347 m 1,24,-1
 457 347 l 1,25,-1
 457 512 l 1,26,-1
 274 512 l 1,27,-1
 274 347 l 1,24,-1
713 -73 m 1,28,-1
 878 -73 l 1,29,-1
 878 91 l 1,30,-1
 713 91 l 1,31,-1
 713 -73 l 1,28,-1
494 128 m 1,32,-1
 677 128 l 1,33,-1
 677 311 l 1,34,-1
 494 311 l 1,35,-1
 494 128 l 1,32,-1
293 622 m 2,36,-1
 293 786 l 2,37,38
 293 793 293 793 287 799 c 0,39,40
 282 804 282 804 274 805 c 2,41,-1
 238 805 l 2,42,43
 231 805 231 805 225 799 c 0,44,45
 220 794 220 794 219 786 c 2,46,-1
 219 622 l 2,47,48
 219 615 219 615 225 609 c 0,49,50
 230 604 230 604 238 603 c 2,51,-1
 274 603 l 2,52,53
 281 603 281 603 287 609 c 0,54,55
 293 615 293 615 293 622 c 2,36,-1
713 128 m 1,56,-1
 878 128 l 1,57,-1
 878 311 l 1,58,-1
 713 311 l 1,59,-1
 713 128 l 1,56,-1
494 347 m 1,60,-1
 677 347 l 1,61,-1
 677 512 l 1,62,-1
 494 512 l 1,63,-1
 494 347 l 1,60,-1
713 347 m 1,64,-1
 878 347 l 1,65,-1
 878 512 l 1,66,-1
 713 512 l 1,67,-1
 713 347 l 1,64,-1
731 622 m 2,68,-1
 731 786 l 2,69,70
 731 793 731 793 726 799 c 0,71,72
 721 804 721 804 713 805 c 2,73,-1
 677 805 l 2,74,75
 670 805 670 805 664 799 c 0,76,77
 659 794 659 794 658 786 c 2,78,-1
 658 622 l 2,79,80
 658 615 658 615 664 609 c 0,81,82
 669 604 669 604 677 603 c 2,83,-1
 713 603 l 2,84,85
 720 603 720 603 726 609 c 0,86,87
 731 615 731 615 731 622 c 2,68,-1
951 658 m 2,88,-1
 951 -73 l 2,89,90
 951 -103 951 -103 929 -125 c 0,91,92
 907 -147 907 -147 878 -146 c 2,93,-1
 73 -146 l 2,94,95
 43 -146 43 -146 22 -125 c 0,96,97
 0 -103 0 -103 0 -73 c 2,98,-1
 0 658 l 2,99,100
 0 688 0 688 22 710 c 0,101,102
 44 732 44 732 73 731 c 2,103,-1
 146 731 l 1,104,-1
 146 786 l 2,105,106
 146 824 146 824 173 851 c 0,107,108
 200 878 200 878 238 878 c 2,109,-1
 274 878 l 2,110,111
 312 878 312 878 339 851 c 0,112,113
 366 824 366 824 366 786 c 2,114,-1
 366 731 l 1,115,-1
 585 731 l 1,116,-1
 585 786 l 2,117,118
 585 824 585 824 612 851 c 0,119,120
 639 878 639 878 677 878 c 2,121,-1
 713 878 l 2,122,123
 751 878 751 878 777 851 c 0,124,125
 804 824 804 824 805 786 c 2,126,-1
 805 731 l 1,127,-1
 878 731 l 2,128,129
 908 731 908 731 929 710 c 0,130,131
 951 688 951 688 951 658 c 2,88,-1
EndSplineSet
Validated: 33
EndChar

StartChar: uniF074
Encoding: 115 61556 110
Width: 1024
Flags: W
LayerCount: 2
Fore
SplineSet
381 603 m 1,0,1
 347 551 347 551 302 446 c 1,2,3
 290 472 290 472 282 488 c 0,4,5
 274 503 274 503 258 524 c 0,6,7
 244 544 244 544 228 557 c 0,8,9
 214 568 214 568 193 577 c 0,10,11
 171 585 171 585 146 585 c 2,12,-1
 18 585 l 2,13,14
 10 585 10 585 5 590 c 0,15,16
 0 595 0 595 0 603 c 2,17,-1
 0 713 l 2,18,19
 0 721 0 721 5 726 c 0,20,21
 10 731 10 731 18 731 c 2,22,-1
 146 731 l 2,23,24
 290 732 290 732 381 603 c 1,0,1
1024 146 m 0,25,26
 1024 138 1024 138 1019 133 c 2,27,-1
 836 -50 l 2,28,29
 831 -55 831 -55 823 -55 c 0,30,31
 816 -55 816 -55 810 -49 c 0,32,33
 805 -44 805 -44 805 -37 c 2,34,-1
 805 73 l 1,35,36
 787 73 787 73 756 73 c 0,37,38
 725 73 725 73 710 73 c 0,39,40
 694 73 694 73 668 73 c 0,41,42
 642 74 642 74 628 76 c 0,43,44
 613 78 613 78 591 82 c 0,45,46
 569 86 569 86 555 92 c 0,47,48
 541 98 541 98 521 109 c 0,49,50
 503 118 503 118 488 131 c 0,51,52
 473 144 473 144 457 162 c 0,53,54
 441 179 441 179 425 202 c 1,55,56
 459 255 459 255 503 357 c 1,57,58
 515 331 515 331 523 316 c 0,59,60
 531 301 531 301 547 280 c 0,61,62
 561 260 561 260 575 248 c 0,63,64
 589 237 589 237 611 227 c 0,65,66
 633 219 633 219 658 219 c 2,67,-1
 805 219 l 1,68,-1
 805 329 l 2,69,70
 805 337 805 337 810 342 c 0,71,72
 815 347 815 347 823 347 c 0,73,74
 830 347 830 347 837 342 c 1,75,-1
 1019 160 l 2,76,77
 1024 154 1024 154 1024 146 c 0,25,26
1024 658 m 0,78,79
 1024 650 1024 650 1019 645 c 2,80,-1
 836 462 l 2,81,82
 831 457 831 457 823 457 c 0,83,84
 816 457 816 457 810 463 c 0,85,86
 805 468 805 468 805 475 c 2,87,-1
 805 585 l 1,88,-1
 658 585 l 2,89,90
 630 585 630 585 608 577 c 0,91,92
 585 569 585 569 569 551 c 0,93,94
 552 534 552 534 540 516 c 0,95,96
 528 498 528 498 514 471 c 0,97,98
 496 435 496 435 470 374 c 1,99,100
 454 336 454 336 441 310 c 0,101,102
 430 284 430 284 411 250 c 0,103,104
 392 216 392 216 374 194 c 0,105,106
 357 171 357 171 332 145 c 0,107,108
 307 120 307 120 281 106 c 0,109,110
 254 92 254 92 219 83 c 0,111,112
 185 74 185 74 146 73 c 2,113,-1
 18 73 l 2,114,115
 10 73 10 73 5 78 c 0,116,117
 0 83 0 83 0 91 c 2,118,-1
 0 201 l 2,119,120
 0 209 0 209 5 214 c 0,121,122
 10 219 10 219 18 219 c 2,123,-1
 146 219 l 2,124,125
 174 219 174 219 196 228 c 0,126,127
 219 236 219 236 236 254 c 0,128,129
 253 271 253 271 264 289 c 0,130,131
 276 307 276 307 290 333 c 0,132,133
 308 369 308 369 335 431 c 1,134,135
 351 469 351 469 364 495 c 0,136,137
 375 521 375 521 394 554 c 0,138,139
 413 588 413 588 430 611 c 0,140,141
 447 634 447 634 473 658 c 0,142,143
 498 683 498 683 524 698 c 0,144,145
 551 712 551 712 585 722 c 0,146,147
 619 731 619 731 658 731 c 2,148,-1
 805 731 l 1,149,-1
 805 841 l 2,150,151
 805 849 805 849 810 854 c 0,152,153
 815 859 815 859 823 859 c 0,154,155
 830 859 830 859 837 854 c 1,156,-1
 1019 672 l 2,157,158
 1024 666 1024 666 1024 658 c 0,78,79
EndSplineSet
Validated: 33
EndChar

StartChar: uniF075
Encoding: 116 61557 111
Width: 1024
Flags: W
LayerCount: 2
Fore
SplineSet
1024 366 m 0,0,1
 1024 267 1024 267 955 182 c 0,2,3
 886 98 886 98 769 49 c 0,4,5
 651 0 651 0 512 0 c 0,6,7
 472 0 472 0 429 4 c 1,8,9
 316 -96 316 -96 166 -134 c 1,10,11
 138 -142 138 -142 101 -146 c 0,12,13
 92 -147 92 -147 84 -141 c 0,14,15
 76 -135 76 -135 74 -125 c 1,16,-1
 74 -124 l 1,17,18
 72 -122 72 -122 74 -117 c 0,19,20
 75 -113 75 -113 75 -112 c 0,21,22
 75 -111 75 -111 77 -106 c 2,23,-1
 81 -100 l 1,24,-1
 85 -96 l 1,25,-1
 89 -91 l 2,26,27
 93 -87 93 -87 106 -71 c 0,28,29
 119 -56 119 -56 127 -49 c 0,30,31
 133 -43 133 -43 144 -27 c 0,32,33
 155 -11 155 -11 163 2 c 0,34,35
 170 15 170 15 178 36 c 0,36,37
 186 56 186 56 194 80 c 1,38,39
 104 131 104 131 52 205 c 0,40,41
 0 280 0 280 0 366 c 0,42,43
 0 441 0 441 41 508 c 0,44,45
 82 576 82 576 150 625 c 0,46,47
 219 674 219 674 313 702 c 0,48,49
 408 731 408 731 512 731 c 0,50,51
 651 731 651 731 769 683 c 0,52,53
 887 634 887 634 955 550 c 0,54,55
 1024 465 1024 465 1024 366 c 0,0,1
EndSplineSet
Validated: 1
EndChar

StartChar: uniF076
Encoding: 117 61558 112
Width: 877
Flags: W
LayerCount: 2
Fore
SplineSet
878 402 m 2,0,-1
 878 329 l 2,1,2
 878 214 878 214 821 122 c 0,3,4
 765 30 765 30 665 -22 c 0,5,6
 565 -74 565 -74 439 -73 c 0,7,8
 313 -73 313 -73 213 -22 c 0,9,10
 113 30 113 30 56 122 c 0,11,12
 0 214 0 214 0 329 c 2,13,-1
 0 402 l 2,14,15
 0 417 0 417 11 428 c 0,16,17
 22 439 22 439 37 439 c 2,18,-1
 256 439 l 2,19,20
 271 439 271 439 282 428 c 0,21,22
 293 417 293 417 293 402 c 2,23,-1
 293 329 l 2,24,25
 293 299 293 299 306 278 c 0,26,27
 319 256 319 256 337 245 c 0,28,29
 354 234 354 234 377 228 c 0,30,31
 401 222 401 222 414 220 c 0,32,33
 427 219 427 219 439 219 c 0,34,35
 451 219 451 219 464 220 c 0,36,37
 477 221 477 221 501 228 c 0,38,39
 525 234 525 234 541 245 c 0,40,41
 558 256 558 256 571 278 c 0,42,43
 584 300 584 300 585 329 c 2,44,-1
 585 402 l 2,45,46
 585 417 585 417 596 428 c 0,47,48
 607 439 607 439 622 439 c 2,49,-1
 841 439 l 2,50,51
 856 439 856 439 867 428 c 0,52,53
 878 417 878 417 878 402 c 2,0,-1
293 768 m 2,54,-1
 293 549 l 2,55,56
 293 534 293 534 282 523 c 0,57,58
 271 512 271 512 256 512 c 2,59,-1
 37 512 l 2,60,61
 22 512 22 512 11 523 c 0,62,63
 0 534 0 534 0 549 c 2,64,-1
 0 768 l 2,65,66
 0 783 0 783 11 794 c 0,67,68
 22 805 22 805 37 805 c 2,69,-1
 256 805 l 2,70,71
 271 805 271 805 282 794 c 0,72,73
 293 783 293 783 293 768 c 2,54,-1
878 768 m 2,74,-1
 878 549 l 2,75,76
 878 534 878 534 867 523 c 0,77,78
 856 512 856 512 841 512 c 2,79,-1
 622 512 l 2,80,81
 607 512 607 512 596 523 c 0,82,83
 585 534 585 534 585 549 c 2,84,-1
 585 768 l 2,85,86
 585 783 585 783 596 794 c 0,87,88
 607 805 607 805 622 805 c 2,89,-1
 841 805 l 2,90,91
 856 805 856 805 867 794 c 0,92,93
 878 783 878 783 878 768 c 2,74,-1
EndSplineSet
Validated: 33
EndChar

StartChar: uniF077
Encoding: 118 61559 113
Width: 950
Flags: W
LayerCount: 2
Fore
SplineSet
921 183 m 0,0,1
 921 152 921 152 899 131 c 2,2,-1
 856 88 l 2,3,4
 834 66 834 66 805 67 c 0,5,6
 774 67 774 67 753 88 c 1,7,-1
 475 366 l 1,8,-1
 198 88 l 1,9,10
 178 66 178 66 146 67 c 0,11,12
 115 67 115 67 95 88 c 1,13,-1
 52 131 l 1,14,15
 30 151 30 151 31 183 c 0,16,17
 31 214 31 214 52 234 c 2,18,-1
 424 607 l 2,19,20
 446 629 446 629 475 628 c 0,21,22
 505 628 505 628 527 607 c 1,23,-1
 899 234 l 2,24,25
 921 214 921 214 921 183 c 0,0,1
EndSplineSet
Validated: 33
EndChar

StartChar: uniF078
Encoding: 119 61560 114
Width: 950
Flags: W
LayerCount: 2
Fore
SplineSet
921 475 m 0,0,1
 921 444 921 444 899 424 c 2,2,-1
 527 52 l 2,3,4
 505 30 505 30 475 31 c 0,5,6
 444 31 444 31 424 52 c 1,7,-1
 52 424 l 1,8,9
 30 444 30 444 31 475 c 0,10,11
 31 506 31 506 52 527 c 2,12,-1
 94 570 l 1,13,14
 117 592 117 592 146 592 c 0,15,16
 177 592 177 592 198 570 c 2,17,-1
 475 293 l 1,18,-1
 753 570 l 2,19,20
 775 592 775 592 805 592 c 0,21,22
 835 592 835 592 856 570 c 1,23,-1
 899 527 l 1,24,25
 921 505 921 505 921 475 c 0,0,1
EndSplineSet
Validated: 33
EndChar

StartChar: uniF079
Encoding: 120 61561 115
Width: 1096
Flags: W
LayerCount: 2
Fore
SplineSet
731 18 m 0,0,1
 731 11 731 11 726 5 c 0,2,3
 721 0 721 0 713 0 c 2,4,-1
 165 0 l 2,5,6
 161 0 161 0 157 1 c 0,7,8
 154 2 154 2 152 5 c 0,9,10
 150 8 150 8 148 9 c 0,11,12
 147 11 147 11 146 16 c 0,13,14
 145 21 145 21 146 23 c 2,15,-1
 146 31 l 1,16,-1
 146 37 l 1,17,-1
 146 128 l 1,18,-1
 146 366 l 1,19,-1
 37 366 l 2,20,21
 22 366 22 366 11 377 c 0,22,23
 0 388 0 388 0 402 c 0,24,25
 0 415 0 415 8 426 c 2,26,-1
 191 645 l 2,27,28
 202 657 202 657 219 657 c 0,29,30
 236 657 236 657 248 645 c 2,31,-1
 430 426 l 2,32,33
 438 417 438 417 439 402 c 0,34,35
 439 387 439 387 428 377 c 0,36,37
 417 366 417 366 402 366 c 2,38,-1
 293 366 l 1,39,-1
 293 146 l 1,40,-1
 622 146 l 2,41,42
 631 146 631 146 636 140 c 2,43,-1
 727 31 l 1,44,45
 731 24 731 24 731 18 c 0,0,1
1097 256 m 0,46,47
 1097 243 1097 243 1089 232 c 2,48,-1
 905 13 l 2,49,50
 894 0 894 0 878 0 c 0,51,52
 862 0 862 0 850 13 c 2,53,-1
 667 232 l 2,54,55
 659 241 659 241 658 256 c 0,56,57
 658 271 658 271 669 282 c 0,58,59
 680 293 680 293 695 293 c 2,60,-1
 805 293 l 1,61,-1
 805 512 l 1,62,-1
 475 512 l 2,63,64
 466 512 466 512 461 519 c 2,65,-1
 370 629 l 2,66,67
 366 634 366 634 366 640 c 0,68,69
 366 647 366 647 371 653 c 0,70,71
 376 658 376 658 384 658 c 2,72,-1
 933 658 l 2,73,74
 937 658 937 658 940 657 c 0,75,76
 943 656 943 656 945 653 c 0,77,78
 947 650 947 650 948 648 c 0,79,80
 949 646 949 646 950 642 c 0,81,82
 951 637 951 637 951 636 c 2,83,-1
 951 628 l 1,84,-1
 951 622 l 1,85,-1
 951 530 l 1,86,-1
 951 293 l 1,87,-1
 1061 293 l 2,88,89
 1076 293 1076 293 1086 282 c 0,90,91
 1097 271 1097 271 1097 256 c 0,46,47
EndSplineSet
Validated: 1
EndChar

StartChar: uniF07A
Encoding: 121 61562 116
Width: 950
Flags: W
LayerCount: 2
Fore
SplineSet
366 0 m 0,0,1
 366 -31 366 -31 344 -52 c 0,2,3
 322 -74 322 -74 293 -73 c 0,4,5
 262 -73 262 -73 241 -52 c 0,6,7
 219 -30 219 -30 219 0 c 0,8,9
 219 31 219 31 241 52 c 0,10,11
 263 74 263 74 293 73 c 0,12,13
 324 73 324 73 344 52 c 0,14,15
 366 31 366 31 366 0 c 0,0,1
878 0 m 0,16,17
 878 -31 878 -31 856 -52 c 0,18,19
 834 -74 834 -74 805 -73 c 0,20,21
 774 -73 774 -73 753 -52 c 0,22,23
 731 -30 731 -30 731 0 c 0,24,25
 731 31 731 31 753 52 c 0,26,27
 775 74 775 74 805 73 c 0,28,29
 836 73 836 73 856 52 c 0,30,31
 878 31 878 31 878 0 c 0,16,17
951 622 m 2,32,-1
 951 329 l 2,33,34
 951 316 951 316 942 305 c 0,35,36
 933 295 933 295 919 293 c 2,37,-1
 322 223 l 1,38,39
 323 219 323 219 325 211 c 0,40,41
 327 203 327 203 328 196 c 0,42,43
 329 189 329 189 329 183 c 0,44,45
 329 174 329 174 315 146 c 1,46,-1
 841 146 l 2,47,48
 856 146 856 146 867 135 c 0,49,50
 878 124 878 124 878 110 c 0,51,52
 878 95 878 95 867 84 c 0,53,54
 856 73 856 73 841 73 c 2,55,-1
 256 73 l 2,56,57
 241 73 241 73 230 84 c 0,58,59
 219 95 219 95 219 110 c 0,60,61
 219 118 219 118 225 132 c 0,62,63
 231 146 231 146 243 166 c 0,64,65
 253 185 253 185 254 188 c 1,66,-1
 154 658 l 1,67,-1
 37 658 l 2,68,69
 22 658 22 658 11 669 c 0,70,71
 0 680 0 680 0 695 c 0,72,73
 0 710 0 710 11 721 c 0,74,75
 22 732 22 732 37 731 c 2,76,-1
 183 731 l 2,77,78
 192 731 192 731 199 728 c 0,79,80
 206 724 206 724 211 719 c 0,81,82
 215 714 215 714 218 705 c 0,83,84
 221 696 221 696 222 690 c 0,85,86
 223 684 223 684 225 673 c 0,87,88
 227 663 227 663 228 658 c 1,89,-1
 914 658 l 2,90,91
 929 658 929 658 940 647 c 0,92,93
 951 637 951 637 951 622 c 2,32,-1
EndSplineSet
Validated: 37
EndChar

StartChar: uniF07B
Encoding: 122 61563 117
Width: 950
Flags: W
LayerCount: 2
Fore
SplineSet
951 530 m 2,0,-1
 951 128 l 2,1,2
 951 76 951 76 913 38 c 0,3,4
 875 0 875 0 823 0 c 2,5,-1
 128 0 l 2,6,7
 76 0 76 0 38 38 c 0,8,9
 0 76 0 76 0 128 c 2,10,-1
 0 677 l 2,11,12
 0 729 0 729 38 767 c 0,13,14
 76 805 76 805 128 805 c 2,15,-1
 311 805 l 2,16,17
 363 805 363 805 401 767 c 0,18,19
 439 729 439 729 439 677 c 2,20,-1
 439 658 l 1,21,-1
 823 658 l 2,22,23
 875 658 875 658 913 621 c 0,24,25
 951 582 951 582 951 530 c 2,0,-1
EndSplineSet
Validated: 1
EndChar

StartChar: uniF07C
Encoding: 123 61564 118
Width: 1096
Flags: W
LayerCount: 2
Fore
SplineSet
1074 334 m 0,0,1
 1074 317 1074 317 1056 296 c 2,2,-1
 864 70 l 2,3,4
 839 41 839 41 796 20 c 0,5,6
 752 0 752 0 713 0 c 2,7,-1
 91 0 l 2,8,9
 72 0 72 0 57 7 c 0,10,11
 42 14 42 14 42 32 c 0,12,13
 42 49 42 49 59 70 c 2,14,-1
 252 296 l 2,15,16
 277 325 277 325 321 345 c 0,17,18
 365 365 365 365 402 366 c 2,19,-1
 1024 366 l 2,20,21
 1043 366 1043 366 1059 358 c 0,22,23
 1074 351 1074 351 1074 334 c 0,0,1
878 530 m 2,24,-1
 878 439 l 1,25,-1
 402 439 l 2,26,27
 349 439 349 439 290 412 c 0,28,29
 232 384 232 384 196 343 c 2,30,-1
 3 117 l 1,31,-1
 1 114 l 1,32,33
 1 116 1 116 0 121 c 0,34,35
 0 126 0 126 0 128 c 2,36,-1
 0 677 l 2,37,38
 0 729 0 729 38 767 c 0,39,40
 76 805 76 805 128 805 c 2,41,-1
 311 805 l 2,42,43
 363 805 363 805 401 767 c 0,44,45
 439 729 439 729 439 677 c 2,46,-1
 439 658 l 1,47,-1
 750 658 l 2,48,49
 802 658 802 658 840 621 c 0,50,51
 878 582 878 582 878 530 c 2,24,-1
EndSplineSet
Validated: 1
EndChar

StartChar: uniF07D
Encoding: 124 61565 119
Width: 438
Flags: W
LayerCount: 2
Fore
SplineSet
402 695 m 0,0,1
 402 680 402 680 391 669 c 0,2,3
 380 658 380 658 366 658 c 2,4,-1
 293 658 l 1,5,-1
 293 73 l 1,6,-1
 366 73 l 2,7,8
 381 73 381 73 391 62 c 0,9,10
 402 51 402 51 402 37 c 0,11,12
 402 22 402 22 391 11 c 2,13,-1
 245 -135 l 2,14,15
 234 -146 234 -146 219 -146 c 0,16,17
 204 -146 204 -146 194 -135 c 2,18,-1
 47 11 l 2,19,20
 36 22 36 22 37 37 c 0,21,22
 37 52 37 52 47 62 c 0,23,24
 58 73 58 73 73 73 c 2,25,-1
 146 73 l 1,26,-1
 146 658 l 1,27,-1
 73 658 l 2,28,29
 58 658 58 658 47 669 c 0,30,31
 36 680 36 680 37 695 c 0,32,33
 37 710 37 710 47 721 c 2,34,-1
 194 867 l 2,35,36
 205 878 205 878 219 878 c 0,37,38
 234 878 234 878 245 867 c 2,39,-1
 391 721 l 2,40,41
 402 710 402 710 402 695 c 0,0,1
EndSplineSet
Validated: 1
EndChar

StartChar: uniF07E
Encoding: 125 61566 120
Width: 1024
Flags: W
LayerCount: 2
Fore
SplineSet
1024 366 m 0,0,1
 1024 351 1024 351 1013 340 c 2,2,-1
 867 194 l 2,3,4
 856 183 856 183 841 183 c 0,5,6
 826 183 826 183 815 194 c 0,7,8
 804 205 804 205 805 219 c 2,9,-1
 805 293 l 1,10,-1
 219 293 l 1,11,-1
 219 219 l 2,12,13
 219 204 219 204 209 194 c 0,14,15
 198 183 198 183 183 183 c 0,16,17
 168 183 168 183 157 194 c 2,18,-1
 11 340 l 2,19,20
 0 351 0 351 0 366 c 0,21,22
 0 381 0 381 11 391 c 2,23,-1
 157 538 l 2,24,25
 168 549 168 549 183 549 c 0,26,27
 198 549 198 549 209 538 c 0,28,29
 220 527 220 527 219 512 c 2,30,-1
 219 439 l 1,31,-1
 805 439 l 1,32,-1
 805 512 l 2,33,34
 805 527 805 527 815 538 c 0,35,36
 826 549 826 549 841 549 c 0,37,38
 856 549 856 549 867 538 c 2,39,-1
 1013 391 l 2,40,41
 1024 381 1024 381 1024 366 c 0,0,1
EndSplineSet
Validated: 1
EndChar

StartChar: uniF080
Encoding: 126 61568 121
Width: 1096
Flags: W
LayerCount: 2
Fore
SplineSet
293 293 m 1,0,-1
 293 73 l 1,1,-1
 146 73 l 1,2,-1
 146 293 l 1,3,-1
 293 293 l 1,0,-1
512 585 m 1,4,-1
 512 73 l 1,5,-1
 366 73 l 1,6,-1
 366 585 l 1,7,-1
 512 585 l 1,4,-1
731 439 m 1,8,-1
 731 73 l 1,9,-1
 585 73 l 1,10,-1
 585 439 l 1,11,-1
 731 439 l 1,8,-1
951 658 m 1,12,-1
 951 73 l 1,13,-1
 805 73 l 1,14,-1
 805 658 l 1,15,-1
 951 658 l 1,12,-1
1024 18 m 2,16,-1
 1024 713 l 2,17,18
 1024 720 1024 720 1019 726 c 0,19,20
 1014 731 1014 731 1006 731 c 2,21,-1
 91 731 l 2,22,23
 84 731 84 731 79 726 c 0,24,25
 74 721 74 721 73 713 c 2,26,-1
 73 18 l 2,27,28
 73 11 73 11 79 5 c 0,29,30
 84 0 84 0 91 0 c 2,31,-1
 1006 0 l 2,32,33
 1013 0 1013 0 1019 5 c 0,34,35
 1024 11 1024 11 1024 18 c 2,16,-1
1097 713 m 2,36,-1
 1097 18 l 2,37,38
 1097 -20 1097 -20 1070 -46 c 0,39,40
 1043 -73 1043 -73 1006 -73 c 2,41,-1
 91 -73 l 2,42,43
 53 -73 53 -73 27 -46 c 0,44,45
 0 -19 0 -19 0 18 c 2,46,-1
 0 713 l 2,47,48
 0 751 0 751 27 777 c 0,49,50
 54 804 54 804 91 805 c 2,51,-1
 1006 805 l 2,52,53
 1044 805 1044 805 1070 777 c 0,54,55
 1097 751 1097 751 1097 713 c 2,36,-1
EndSplineSet
Validated: 1
EndChar

StartChar: uniF081
Encoding: 127 61569 122
Width: 877
Flags: W
LayerCount: 2
Fore
SplineSet
731 548 m 0,0,1
 731 555 731 555 726 560 c 0,2,3
 721 565 721 565 713 565 c 0,4,5
 710 565 710 565 705 563 c 1,6,7
 716 582 716 582 716 595 c 0,8,9
 716 602 716 602 711 607 c 0,10,11
 706 612 706 612 697 613 c 0,12,13
 693 613 693 613 688 610 c 0,14,15
 654 591 654 591 633 586 c 1,16,17
 596 622 596 622 545 622 c 0,18,19
 489 622 489 622 451 581 c 0,20,21
 413 540 413 540 414 483 c 1,22,-1
 414 476 l 1,23,24
 353 484 353 484 306 513 c 0,25,26
 260 542 260 542 217 593 c 0,27,28
 211 600 211 600 201 599 c 0,29,30
 186 599 186 599 178 570 c 0,31,32
 170 541 170 541 169 521 c 0,33,34
 169 485 169 485 185 455 c 1,35,36
 178 454 178 454 173 447 c 0,37,38
 168 442 168 442 169 435 c 0,39,40
 169 372 169 372 215 329 c 1,41,42
 208 325 208 325 208 314 c 0,43,44
 208 311 208 311 209 309 c 0,45,46
 217 280 217 280 238 257 c 0,47,48
 258 233 258 233 286 223 c 1,49,50
 242 198 242 198 191 199 c 0,51,52
 187 199 187 199 178 199 c 0,53,54
 169 200 169 200 165 200 c 0,55,56
 158 200 158 200 152 195 c 0,57,58
 147 190 147 190 146 181 c 0,59,60
 146 172 146 172 155 167 c 1,61,62
 191 140 191 140 240 125 c 0,63,64
 290 110 290 110 337 110 c 0,65,66
 412 110 412 110 479 143 c 1,67,68
 574 188 574 188 625 275 c 0,69,70
 676 363 676 363 676 470 c 1,71,-1
 676 476 l 1,72,73
 691 488 691 488 711 513 c 0,74,75
 731 537 731 537 731 548 c 0,0,1
878 640 m 2,76,-1
 878 91 l 2,77,78
 878 23 878 23 829 -25 c 0,79,80
 781 -73 781 -73 713 -73 c 2,81,-1
 165 -73 l 2,82,83
 97 -73 97 -73 48 -25 c 0,84,85
 0 23 0 23 0 91 c 2,86,-1
 0 640 l 2,87,88
 0 708 0 708 48 757 c 0,89,90
 96 805 96 805 165 805 c 2,91,-1
 713 805 l 2,92,93
 781 805 781 805 829 757 c 0,94,95
 878 708 878 708 878 640 c 2,76,-1
EndSplineSet
Validated: 33
EndChar

StartChar: uniF082
Encoding: 128 61570 123
Width: 877
Flags: W
LayerCount: 2
Fore
SplineSet
713 805 m 2,0,1
 781 805 781 805 829 757 c 0,2,3
 877 709 877 709 878 640 c 2,4,-1
 878 91 l 2,5,6
 878 23 878 23 829 -25 c 0,7,8
 781 -73 781 -73 713 -73 c 2,9,-1
 513 -73 l 2,10,11
 512 -73 l 2,12,-1
 512 311 l 1,13,-1
 613 311 l 2,14,15
 630 311 630 311 632 324 c 2,16,-1
 638 418 l 2,17,18
 639 426 639 426 634 432 c 1,19,20
 628 439 628 439 620 439 c 2,21,-1
 512 439 l 1,22,-1
 512 480 l 2,23,24
 512 506 512 506 518 513 c 0,25,26
 524 520 524 520 550 520 c 0,27,28
 583 520 583 520 616 513 c 0,29,30
 623 511 623 511 632 515 c 1,31,32
 638 519 638 519 639 528 c 2,33,-1
 652 623 l 2,34,35
 653 630 653 630 649 636 c 0,36,37
 645 642 645 642 638 643 c 0,38,39
 585 658 585 658 525 658 c 0,40,41
 347 658 347 658 347 487 c 2,42,-1
 347 439 l 1,43,-1
 293 439 l 2,44,45
 286 439 286 439 280 433 c 0,46,47
 274 427 274 427 274 419 c 2,48,-1
 274 321 l 2,49,50
 274 317 274 317 278 313 c 0,51,52
 281 311 281 311 284 311 c 0,53,54
 287 311 287 311 293 311 c 2,55,-1
 347 311 l 1,56,-1
 347 -73 l 1,57,-1
 353 -73 l 1,58,-1
 165 -73 l 2,59,60
 97 -73 97 -73 48 -25 c 0,61,62
 0 23 0 23 0 91 c 2,63,-1
 0 640 l 2,64,65
 0 708 0 708 48 757 c 0,66,67
 96 805 96 805 165 805 c 2,68,-1
 713 805 l 2,0,1
EndSplineSet
Validated: 5
EndChar

StartChar: uniF083
Encoding: 129 61571 124
Width: 1024
Flags: W
LayerCount: 2
Fore
SplineSet
530 402 m 0,0,1
 530 410 530 410 525 416 c 0,2,3
 520 421 520 421 512 421 c 0,4,5
 474 421 474 421 447 393 c 0,6,7
 420 366 420 366 421 329 c 0,8,9
 421 321 421 321 426 316 c 0,10,11
 431 311 431 311 439 311 c 0,12,13
 447 311 447 311 452 316 c 0,14,15
 457 321 457 321 457 329 c 0,16,17
 457 352 457 352 473 368 c 0,18,19
 489 384 489 384 512 384 c 0,20,21
 520 384 520 384 525 389 c 0,22,23
 530 394 530 394 530 402 c 0,0,1
658 328 m 0,24,25
 658 268 658 268 615 224 c 0,26,27
 572 181 572 181 512 181 c 0,28,29
 452 181 452 181 409 224 c 0,30,31
 366 267 366 267 366 328 c 0,32,33
 366 388 366 388 409 431 c 0,34,35
 452 474 452 474 512 474 c 0,36,37
 572 474 572 474 615 431 c 0,38,39
 658 388 658 388 658 328 c 0,24,25
73 0 m 1,40,-1
 951 0 l 1,41,-1
 951 73 l 1,42,-1
 73 73 l 1,43,-1
 73 0 l 1,40,-1
731 328 m 0,44,45
 731 419 731 419 668 483 c 0,46,47
 603 548 603 548 512 548 c 0,48,49
 421 548 421 548 356 483 c 0,50,51
 291 418 291 418 293 328 c 0,52,53
 293 237 293 237 356 173 c 0,54,55
 421 108 421 108 512 109 c 0,56,57
 603 109 603 109 668 173 c 0,58,59
 731 237 731 237 731 328 c 0,44,45
146 695 m 1,60,-1
 366 695 l 1,61,-1
 366 768 l 1,62,-1
 146 768 l 1,63,-1
 146 695 l 1,60,-1
73 585 m 1,64,-1
 951 585 l 1,65,-1
 951 652 l 1,66,-1
 951 731 l 1,67,-1
 478 731 l 1,68,-1
 441 658 l 1,69,-1
 73 658 l 1,70,-1
 73 585 l 1,64,-1
1024 731 m 2,71,-1
 1024 0 l 2,72,73
 1024 -31 1024 -31 1002 -52 c 0,74,75
 980 -74 980 -74 951 -73 c 2,76,-1
 73 -73 l 2,77,78
 42 -73 42 -73 22 -52 c 0,79,80
 0 -30 0 -30 0 0 c 2,81,-1
 0 731 l 2,82,83
 0 762 0 762 22 783 c 0,84,85
 44 805 44 805 73 805 c 2,86,-1
 951 805 l 2,87,88
 982 805 982 805 1002 783 c 0,89,90
 1024 762 1024 762 1024 731 c 2,71,-1
EndSplineSet
Validated: 33
EndChar

StartChar: uniF084
Encoding: 130 61572 125
Width: 1024
Flags: W
LayerCount: 2
Fore
SplineSet
475 585 m 0,0,1
 475 631 475 631 443 663 c 0,2,3
 411 695 411 695 366 695 c 0,4,5
 320 695 320 695 288 663 c 0,6,7
 256 631 256 631 256 585 c 0,8,9
 256 561 256 561 267 538 c 1,10,11
 243 549 243 549 219 549 c 0,12,13
 173 549 173 549 141 516 c 0,14,15
 109 484 109 484 110 439 c 0,16,17
 110 393 110 393 141 361 c 0,18,19
 173 329 173 329 219 329 c 0,20,21
 265 329 265 329 297 361 c 0,22,23
 329 393 329 393 329 439 c 0,24,25
 329 463 329 463 318 486 c 1,26,27
 342 475 342 475 366 475 c 0,28,29
 412 475 412 475 443 508 c 0,30,31
 475 539 475 539 475 585 c 0,0,1
962 183 m 0,32,33
 962 174 962 174 934 145 c 0,34,35
 906 117 906 117 896 117 c 0,36,37
 891 117 891 117 880 126 c 0,38,39
 869 135 869 135 859 145 c 0,40,41
 850 154 850 154 837 168 c 0,42,43
 825 181 825 181 823 183 c 1,44,-1
 768 128 l 1,45,-1
 894 2 l 2,46,47
 910 -14 910 -14 909 -37 c 0,48,49
 909 -61 909 -61 888 -83 c 0,50,51
 865 -106 865 -106 841 -105 c 0,52,53
 818 -105 818 -105 802 -89 c 2,54,-1
 419 294 l 1,55,56
 319 219 319 219 210 219 c 0,57,58
 117 219 117 219 58 278 c 0,59,60
 0 336 0 336 0 430 c 0,61,62
 0 521 0 521 54 608 c 0,63,64
 108 695 108 695 196 751 c 0,65,66
 283 805 283 805 375 805 c 0,67,68
 468 805 468 805 526 746 c 0,69,70
 584 688 584 688 585 594 c 0,71,72
 585 486 585 486 510 386 c 1,73,-1
 713 183 l 1,74,-1
 768 238 l 1,75,76
 766 240 766 240 753 252 c 0,77,78
 740 264 740 264 730 273 c 0,79,80
 721 282 721 282 712 295 c 0,81,82
 703 306 703 306 702 311 c 0,83,84
 702 320 702 320 730 348 c 0,85,86
 758 376 758 376 768 377 c 0,87,88
 775 377 775 377 781 371 c 0,89,90
 784 368 784 368 808 345 c 0,91,92
 831 323 831 323 854 300 c 0,93,94
 878 276 878 276 904 251 c 0,95,96
 930 225 930 225 945 206 c 0,97,98
 962 187 962 187 962 183 c 0,32,33
EndSplineSet
Validated: 33
EndChar

StartChar: uniF085
Encoding: 131 61573 126
Width: 1096
Flags: W
LayerCount: 2
Fore
SplineSet
512 366 m 0,0,1
 512 426 512 426 469 469 c 0,2,3
 426 512 426 512 366 512 c 0,4,5
 306 512 306 512 262 469 c 0,6,7
 219 426 219 426 219 366 c 0,8,9
 219 306 219 306 262 262 c 0,10,11
 305 219 305 219 366 219 c 0,12,13
 426 219 426 219 469 262 c 0,14,15
 512 306 512 306 512 366 c 0,0,1
951 73 m 0,16,17
 951 103 951 103 929 125 c 0,18,19
 907 147 907 147 878 146 c 0,20,21
 848 146 848 146 826 125 c 0,22,23
 804 103 804 103 805 73 c 0,24,25
 805 42 805 42 826 22 c 0,26,27
 848 0 848 0 878 0 c 0,28,29
 909 0 909 0 930 22 c 0,30,31
 951 42 951 42 951 73 c 0,16,17
951 658 m 0,32,33
 951 688 951 688 929 710 c 0,34,35
 907 732 907 732 878 731 c 0,36,37
 848 731 848 731 826 710 c 0,38,39
 804 688 804 688 805 658 c 0,40,41
 805 627 805 627 826 606 c 0,42,43
 848 584 848 584 878 585 c 0,44,45
 909 585 909 585 930 606 c 0,46,47
 951 627 951 627 951 658 c 0,32,33
731 418 m 2,48,-1
 731 312 l 2,49,50
 731 306 731 306 727 301 c 0,51,52
 723 296 723 296 718 295 c 2,53,-1
 630 282 l 1,54,55
 624 262 624 262 611 238 c 1,56,57
 630 210 630 210 663 172 c 1,58,59
 667 166 667 166 667 161 c 0,60,61
 667 154 667 154 663 150 c 1,62,63
 650 133 650 133 615 98 c 0,64,65
 581 64 581 64 570 65 c 0,66,67
 564 65 564 65 559 69 c 2,68,-1
 494 120 l 1,69,70
 472 109 472 109 450 102 c 1,71,72
 444 41 444 41 436 13 c 0,73,74
 432 0 432 0 419 0 c 2,75,-1
 312 0 l 2,76,77
 306 0 306 0 301 4 c 0,78,79
 296 8 296 8 296 14 c 2,80,-1
 283 101 l 1,81,82
 264 107 264 107 240 120 c 1,83,-1
 172 69 l 1,84,85
 168 65 168 65 161 65 c 0,86,87
 155 65 155 65 148 70 c 0,88,89
 66 146 66 146 67 161 c 0,90,91
 67 166 67 166 71 171 c 0,92,93
 77 179 77 179 94 202 c 0,94,95
 111 225 111 225 121 237 c 1,96,97
 108 263 108 263 100 284 c 1,98,-1
 13 297 l 2,99,100
 7 298 7 298 4 302 c 0,101,102
 0 307 0 307 0 313 c 2,103,-1
 0 420 l 2,104,105
 0 426 0 426 4 430 c 0,106,107
 8 435 8 435 13 436 c 2,108,-1
 101 451 l 1,109,110
 107 471 107 471 120 494 c 1,111,112
 101 522 101 522 69 559 c 1,113,114
 65 565 65 565 65 570 c 0,115,116
 65 577 65 577 69 583 c 0,117,118
 81 600 81 600 116 633 c 0,119,120
 150 667 150 667 161 667 c 0,121,122
 167 667 167 667 173 663 c 2,123,-1
 239 611 l 1,124,125
 258 621 258 621 283 630 c 1,126,127
 289 691 289 691 296 718 c 0,128,129
 300 731 300 731 312 731 c 2,130,-1
 419 731 l 2,131,132
 425 731 425 731 430 727 c 0,133,134
 435 723 435 723 436 717 c 2,135,-1
 450 630 l 1,136,137
 469 624 469 624 492 612 c 1,138,-1
 559 663 l 2,139,140
 563 667 563 667 570 667 c 0,141,142
 576 667 576 667 583 663 c 0,143,144
 665 587 665 587 666 570 c 0,145,146
 666 565 666 565 662 560 c 0,147,148
 655 551 655 551 637 529 c 0,149,150
 620 507 620 507 611 495 c 1,151,152
 624 467 624 467 631 449 c 1,153,-1
 718 435 l 2,154,155
 724 434 724 434 727 429 c 0,156,157
 731 424 731 424 731 418 c 2,48,-1
1097 113 m 2,158,-1
 1097 33 l 2,159,160
 1097 24 1097 24 1012 15 c 1,161,162
 1005 0 1005 0 995 -14 c 1,163,164
 1024 -79 1024 -79 1024 -93 c 0,165,166
 1024 -95 1024 -95 1022 -97 c 0,167,168
 952 -138 952 -138 951 -137 c 0,169,170
 947 -137 947 -137 925 -111 c 0,171,172
 903 -84 903 -84 895 -72 c 1,173,174
 884 -73 884 -73 878 -73 c 0,175,176
 872 -73 872 -73 860 -72 c 1,177,178
 852 -84 852 -84 830 -111 c 0,179,180
 808 -138 808 -138 805 -137 c 0,181,182
 804 -137 804 -137 734 -97 c 0,183,184
 732 -95 732 -95 731 -93 c 0,185,186
 731 -79 731 -79 761 -14 c 1,187,188
 751 0 751 0 743 15 c 1,189,190
 658 23 658 23 658 33 c 2,191,-1
 658 113 l 2,192,193
 658 122 658 122 743 131 c 1,194,195
 750 147 750 147 761 161 c 1,196,197
 732 226 732 226 731 240 c 0,198,199
 731 242 731 242 734 244 c 0,200,201
 736 245 736 245 754 255 c 0,202,203
 771 265 771 265 787 274 c 0,204,205
 803 283 803 283 805 284 c 0,206,207
 809 284 809 284 830 257 c 0,208,209
 852 230 852 230 860 218 c 1,210,211
 871 219 871 219 878 219 c 0,212,213
 884 219 884 219 895 218 c 1,214,215
 924 259 924 259 947 283 c 1,216,-1
 951 284 l 1,217,218
 953 284 953 284 1022 244 c 0,219,220
 1024 242 1024 242 1024 240 c 0,221,222
 1024 226 1024 226 995 161 c 1,223,224
 1004 148 1004 148 1012 131 c 1,225,226
 1097 122 1097 122 1097 113 c 2,158,-1
1097 698 m 2,227,-1
 1097 618 l 2,228,229
 1097 609 1097 609 1012 600 c 1,230,231
 1005 585 1005 585 995 570 c 1,232,233
 1024 505 1024 505 1024 492 c 0,234,235
 1024 490 1024 490 1022 488 c 0,236,237
 952 447 952 447 951 447 c 0,238,239
 947 447 947 447 925 474 c 0,240,241
 903 501 903 501 895 513 c 1,242,243
 884 512 884 512 878 512 c 0,244,245
 872 512 872 512 860 513 c 1,246,247
 852 501 852 501 830 474 c 0,248,249
 808 447 808 447 805 447 c 0,250,251
 804 447 804 447 734 488 c 0,252,253
 732 490 732 490 731 492 c 0,254,255
 731 506 731 506 761 570 c 1,256,257
 751 584 751 584 743 600 c 1,258,259
 658 608 658 608 658 618 c 2,260,-1
 658 698 l 2,261,262
 658 707 658 707 743 716 c 1,263,264
 750 732 750 732 761 745 c 1,265,266
 732 810 732 810 731 824 c 0,267,268
 731 826 731 826 734 828 c 0,269,270
 736 829 736 829 754 840 c 0,271,272
 771 850 771 850 787 859 c 0,273,274
 803 868 803 868 805 868 c 0,275,276
 809 868 809 868 830 842 c 0,277,278
 852 815 852 815 860 804 c 1,279,280
 871 805 871 805 878 805 c 0,281,282
 884 805 884 805 895 804 c 1,283,284
 924 845 924 845 947 867 c 1,285,-1
 951 868 l 1,286,287
 953 868 953 868 1022 828 c 0,288,289
 1024 826 1024 826 1024 824 c 0,290,291
 1024 810 1024 810 995 745 c 1,292,293
 1004 732 1004 732 1012 716 c 1,294,295
 1097 707 1097 707 1097 698 c 2,227,-1
EndSplineSet
Validated: 33
EndChar

StartChar: uniF086
Encoding: 132 61574 127
Width: 1024
Flags: W
LayerCount: 2
Fore
SplineSet
805 439 m 0,0,1
 805 359 805 359 751 292 c 0,2,3
 698 224 698 224 604 185 c 0,4,5
 511 146 511 146 402 146 c 0,6,7
 353 146 353 146 302 156 c 1,8,9
 231 106 231 106 143 82 c 0,10,11
 123 77 123 77 94 73 c 1,12,-1
 92 73 l 2,13,14
 86 73 86 73 80 78 c 0,15,16
 75 82 75 82 74 90 c 0,17,18
 73 92 73 92 73 93 c 0,19,20
 73 95 73 95 74 97 c 0,21,22
 74 99 74 99 75 100 c 2,23,-1
 76 103 l 1,24,-1
 78 106 l 1,25,-1
 80 110 l 1,26,-1
 83 112 l 1,27,-1
 85 115 l 2,28,29
 88 118 88 118 98 129 c 0,30,31
 108 140 108 140 113 146 c 0,32,33
 117 152 117 152 126 163 c 0,34,35
 134 173 134 173 140 184 c 0,36,37
 146 195 146 195 152 210 c 1,38,39
 81 251 81 251 41 311 c 0,40,41
 0 371 0 371 0 439 c 0,42,43
 0 519 0 519 53 586 c 0,44,45
 106 654 106 654 201 692 c 0,46,47
 294 731 294 731 402 731 c 0,48,49
 512 731 512 731 604 692 c 0,50,51
 697 653 697 653 751 586 c 0,52,53
 805 519 805 519 805 439 c 0,0,1
1024 293 m 0,54,55
 1024 224 1024 224 983 164 c 0,56,57
 942 105 942 105 872 63 c 1,58,59
 878 50 878 50 884 38 c 0,60,61
 890 27 890 27 898 16 c 0,62,63
 906 6 906 6 911 0 c 0,64,65
 915 -6 915 -6 926 -17 c 0,66,67
 936 -28 936 -28 939 -32 c 0,68,69
 940 -33 940 -33 941 -34 c 0,70,71
 943 -36 943 -36 944 -37 c 0,72,73
 945 -38 945 -38 946 -40 c 0,74,75
 947 -42 947 -42 948 -43 c 2,76,-1
 949 -46 l 1,77,-1
 951 -49 l 1,78,-1
 951 -52 l 1,79,-1
 950 -56 l 2,80,81
 948 -64 948 -64 943 -70 c 0,82,83
 937 -74 937 -74 930 -73 c 0,84,85
 901 -68 901 -68 881 -63 c 0,86,87
 793 -40 793 -40 722 9 c 1,88,89
 671 0 671 0 622 0 c 0,90,91
 467 0 467 0 352 76 c 1,92,93
 385 74 385 74 402 73 c 0,94,95
 494 73 494 73 579 99 c 0,96,97
 664 125 664 125 730 173 c 1,98,99
 802 225 802 225 840 294 c 0,100,101
 878 363 878 363 878 439 c 0,102,103
 878 483 878 483 864 525 c 1,104,105
 938 484 938 484 981 424 c 0,106,107
 1024 364 1024 364 1024 293 c 0,54,55
EndSplineSet
Validated: 1
EndChar

StartChar: uniF087
Encoding: 133 61575 128
Width: 877
Flags: W
LayerCount: 2
Fore
SplineSet
146 110 m 0,0,1
 146 125 146 125 135 135 c 0,2,3
 124 146 124 146 110 146 c 0,4,5
 95 146 95 146 84 135 c 0,6,7
 73 124 73 124 73 110 c 0,8,9
 73 95 73 95 84 84 c 0,10,11
 95 73 95 73 110 73 c 0,12,13
 125 73 125 73 135 84 c 0,14,15
 146 95 146 95 146 110 c 0,0,1
805 439 m 0,16,17
 805 468 805 468 782 490 c 0,18,19
 759 512 759 512 731 512 c 2,20,-1
 530 512 l 1,21,22
 530 545 530 545 558 603 c 0,23,24
 586 661 586 661 585 695 c 0,25,26
 585 751 585 751 567 777 c 0,27,28
 549 804 549 804 494 805 c 1,29,30
 479 790 479 790 472 756 c 0,31,32
 465 722 465 722 455 684 c 0,33,34
 445 646 445 646 421 622 c 0,35,36
 409 609 409 609 377 569 c 0,37,38
 375 566 375 566 364 553 c 0,39,40
 353 539 353 539 345 529 c 0,41,42
 338 520 338 520 326 505 c 0,43,44
 314 490 314 490 303 479 c 0,45,46
 293 469 293 469 281 460 c 0,47,48
 270 450 270 450 258 444 c 0,49,50
 247 439 247 439 238 439 c 2,51,-1
 219 439 l 1,52,-1
 219 73 l 1,53,-1
 238 73 l 2,54,55
 245 73 245 73 256 72 c 0,56,57
 266 70 266 70 274 68 c 0,58,59
 282 66 282 66 296 61 c 0,60,61
 309 57 309 57 316 55 c 0,62,63
 322 53 322 53 337 48 c 0,64,65
 350 43 350 43 353 42 c 0,66,67
 474 0 474 0 549 0 c 2,68,-1
 617 0 l 2,69,70
 727 0 727 0 727 95 c 0,71,72
 727 110 727 110 725 127 c 1,73,74
 742 136 742 136 752 158 c 0,75,76
 762 178 762 178 762 200 c 0,77,78
 762 222 762 222 752 239 c 1,79,80
 783 268 783 268 781 307 c 0,81,82
 781 321 781 321 776 339 c 0,83,84
 770 356 770 356 762 366 c 1,85,86
 780 367 780 367 793 392 c 0,87,88
 805 419 805 419 805 439 c 0,16,17
878 439 m 0,89,90
 878 388 878 388 850 346 c 1,91,92
 855 328 855 328 855 307 c 0,93,94
 855 263 855 263 834 224 c 1,95,96
 836 212 836 212 835 200 c 0,97,98
 835 143 835 143 801 98 c 1,99,100
 802 18 802 18 752 -28 c 0,101,102
 703 -74 703 -74 623 -73 c 2,103,-1
 602 -73 l 1,104,-1
 549 -73 l 2,105,106
 494 -73 494 -73 440 -60 c 0,107,108
 387 -47 387 -47 316 -23 c 0,109,110
 249 0 249 0 238 0 c 2,111,-1
 73 0 l 2,112,113
 42 0 42 0 22 22 c 0,114,115
 0 44 0 44 0 73 c 2,116,-1
 0 439 l 2,117,118
 0 470 0 470 22 490 c 0,119,120
 44 512 44 512 73 512 c 2,121,-1
 229 512 l 1,122,123
 249 525 249 525 308 600 c 0,124,125
 341 643 341 643 369 674 c 0,126,127
 382 688 382 688 389 723 c 0,128,129
 395 758 395 758 407 795 c 0,130,131
 418 833 418 833 442 856 c 0,132,133
 465 878 465 878 494 878 c 0,134,135
 542 878 542 878 580 859 c 0,136,137
 618 841 618 841 638 801 c 0,138,139
 658 761 658 761 658 695 c 0,140,141
 658 642 658 642 631 585 c 1,142,-1
 731 585 l 2,143,144
 790 585 790 585 835 542 c 0,145,146
 878 497 878 497 878 439 c 0,89,90
EndSplineSet
Validated: 33
EndChar

StartChar: uniF088
Encoding: 134 61576 129
Width: 877
Flags: W
LayerCount: 2
Fore
SplineSet
146 622 m 0,0,1
 146 637 146 637 135 647 c 0,2,3
 124 658 124 658 110 658 c 0,4,5
 95 658 95 658 84 647 c 0,6,7
 73 636 73 636 73 622 c 0,8,9
 73 607 73 607 84 596 c 0,10,11
 95 585 95 585 110 585 c 0,12,13
 125 585 125 585 135 596 c 0,14,15
 146 607 146 607 146 622 c 0,0,1
805 293 m 0,16,17
 805 313 805 313 793 339 c 0,18,19
 781 366 781 366 762 366 c 1,20,21
 770 375 770 375 776 393 c 0,22,23
 782 410 782 410 781 425 c 0,24,25
 781 465 781 465 752 493 c 1,26,27
 762 511 762 511 762 532 c 0,28,29
 762 554 762 554 752 574 c 0,30,31
 742 594 742 594 725 604 c 1,32,33
 728 621 728 621 727 636 c 0,34,35
 727 684 727 684 699 708 c 0,36,37
 671 732 671 732 622 731 c 2,38,-1
 549 731 l 2,39,40
 474 731 474 731 353 690 c 0,41,42
 350 689 350 689 337 684 c 0,43,44
 324 679 324 679 316 677 c 0,45,46
 310 675 310 675 296 670 c 0,47,48
 283 666 283 666 274 664 c 0,49,50
 266 662 266 662 256 660 c 0,51,52
 246 658 246 658 238 658 c 2,53,-1
 219 658 l 1,54,-1
 219 293 l 1,55,-1
 238 293 l 2,56,57
 247 293 247 293 258 288 c 0,58,59
 269 283 269 283 281 272 c 0,60,61
 292 262 292 262 303 252 c 0,62,63
 313 242 313 242 326 226 c 0,64,65
 338 211 338 211 345 203 c 0,66,67
 352 194 352 194 364 179 c 0,68,69
 375 165 375 165 377 162 c 0,70,71
 409 123 409 123 421 110 c 0,72,73
 445 85 445 85 455 47 c 0,74,75
 465 9 465 9 472 -25 c 0,76,77
 479 -59 479 -59 494 -73 c 1,78,79
 549 -73 549 -73 567 -46 c 0,80,81
 585 -19 585 -19 585 37 c 0,82,83
 585 71 585 71 558 128 c 0,84,85
 530 186 530 186 530 219 c 1,86,-1
 731 219 l 2,87,88
 760 219 760 219 782 242 c 0,89,90
 805 264 805 264 805 293 c 0,16,17
878 292 m 0,91,92
 878 234 878 234 835 189 c 0,93,94
 792 146 792 146 731 146 c 2,95,-1
 631 146 l 1,96,97
 659 90 659 90 658 37 c 0,98,99
 658 -31 658 -31 638 -70 c 0,100,101
 618 -110 618 -110 580 -128 c 0,102,103
 542 -146 542 -146 494 -146 c 0,104,105
 465 -146 465 -146 442 -125 c 0,106,107
 423 -107 423 -107 412 -78 c 0,108,109
 401 -50 401 -50 397 -27 c 0,110,111
 394 -3 394 -3 387 22 c 0,112,113
 380 47 380 47 369 58 c 0,114,115
 341 87 341 87 308 131 c 0,116,117
 251 206 251 206 229 219 c 1,118,-1
 73 219 l 2,119,120
 42 219 42 219 22 241 c 0,121,122
 0 263 0 263 0 293 c 2,123,-1
 0 658 l 2,124,125
 0 689 0 689 22 710 c 0,126,127
 44 732 44 732 73 731 c 2,128,-1
 238 731 l 2,129,130
 250 731 250 731 316 755 c 0,131,132
 389 781 389 781 444 792 c 0,133,134
 498 804 498 804 558 805 c 2,135,-1
 623 805 l 2,136,137
 703 805 703 805 752 760 c 0,138,139
 801 715 801 715 801 636 c 1,140,-1
 801 633 l 1,141,142
 835 589 835 589 835 531 c 0,143,144
 835 519 835 519 834 507 c 1,145,146
 856 469 856 469 855 425 c 0,147,148
 855 405 855 405 850 385 c 1,149,150
 878 343 878 343 878 292 c 0,91,92
EndSplineSet
Validated: 33
EndChar

StartChar: uniF089
Encoding: 135 61577 130
Width: 512
Flags: W
LayerCount: 2
Fore
SplineSet
475 859 m 1,0,-1
 475 94 l 1,1,-1
 219 -41 l 2,2,3
 207 -48 207 -48 196 -47 c 0,4,5
 184 -47 184 -47 178 -39 c 0,6,7
 172 -31 172 -31 172 -18 c 0,8,9
 172 -15 172 -15 173 -7 c 2,10,-1
 222 279 l 1,11,-1
 14 480 l 1,12,13
 0 495 0 495 0 508 c 0,14,15
 0 530 0 530 32 535 c 2,16,-1
 318 575 l 1,17,-1
 447 836 l 1,18,19
 458 859 458 859 475 859 c 1,0,-1
EndSplineSet
Validated: 1
EndChar

StartChar: uniF08A
Encoding: 136 61578 131
Width: 1024
Flags: W
LayerCount: 2
Fore
SplineSet
951 538 m 0,0,1
 951 584 951 584 939 618 c 0,2,3
 927 654 927 654 907 675 c 0,4,5
 888 695 888 695 860 710 c 0,6,7
 832 723 832 723 807 727 c 0,8,9
 780 731 780 731 751 731 c 0,10,11
 721 731 721 731 687 717 c 0,12,13
 653 703 653 703 624 680 c 0,14,15
 595 658 595 658 574 639 c 0,16,17
 554 620 554 620 540 604 c 0,18,19
 530 592 530 592 512 592 c 0,20,21
 495 592 495 592 484 604 c 0,22,23
 471 620 471 620 450 639 c 0,24,25
 430 658 430 658 400 680 c 0,26,27
 371 702 371 702 337 717 c 0,28,29
 303 731 303 731 273 731 c 0,30,31
 243 731 243 731 217 727 c 0,32,33
 190 723 190 723 164 710 c 0,34,35
 136 697 136 697 117 675 c 0,36,37
 98 655 98 655 85 618 c 0,38,39
 73 582 73 582 73 538 c 0,40,41
 73 442 73 442 180 334 c 1,42,-1
 512 14 l 1,43,-1
 844 334 l 1,44,45
 951 442 951 442 951 538 c 0,0,1
1024 538 m 0,46,47
 1024 412 1024 412 893 280 c 1,48,-1
 538 -62 l 2,49,50
 528 -72 528 -72 512 -73 c 0,51,52
 497 -73 497 -73 486 -62 c 2,53,-1
 130 282 l 1,54,55
 124 286 124 286 115 296 c 0,56,57
 105 306 105 306 83 334 c 0,58,59
 61 362 61 362 44 389 c 0,60,61
 27 418 27 418 13 459 c 0,62,63
 0 500 0 500 0 538 c 0,64,65
 0 664 0 664 73 734 c 0,66,67
 146 805 146 805 273 805 c 0,68,69
 309 805 309 805 345 793 c 0,70,71
 382 781 382 781 414 759 c 0,72,73
 446 739 446 739 469 720 c 0,74,75
 492 702 492 702 512 681 c 1,76,77
 532 701 532 701 555 720 c 0,78,79
 578 738 578 738 610 759 c 0,80,81
 642 779 642 779 679 793 c 0,82,83
 716 805 716 805 751 805 c 0,84,85
 879 805 879 805 951 734 c 0,86,87
 1024 664 1024 664 1024 538 c 0,46,47
EndSplineSet
Validated: 1
EndChar

StartChar: uniF08B
Encoding: 137 61579 132
Width: 950
Flags: W
LayerCount: 2
Fore
SplineSet
366 55 m 2,0,1
 366 53 366 53 367 43 c 0,2,3
 368 34 368 34 367 29 c 0,4,5
 367 23 367 23 365 15 c 0,6,7
 364 8 364 8 359 4 c 0,8,9
 355 0 355 0 347 0 c 2,10,-1
 165 0 l 2,11,12
 97 0 97 0 48 48 c 0,13,14
 0 96 0 96 0 165 c 2,15,-1
 0 567 l 2,16,17
 0 635 0 635 48 683 c 0,18,19
 96 731 96 731 165 731 c 2,20,-1
 347 731 l 2,21,22
 354 731 354 731 360 726 c 0,23,24
 365 721 365 721 366 713 c 0,25,26
 366 711 366 711 367 701 c 0,27,28
 368 692 368 692 367 686 c 0,29,30
 367 680 367 680 365 673 c 0,31,32
 364 666 364 666 359 662 c 0,33,34
 355 658 355 658 347 658 c 2,35,-1
 165 658 l 2,36,37
 127 658 127 658 100 632 c 0,38,39
 73 605 73 605 73 567 c 2,40,-1
 73 165 l 2,41,42
 73 127 73 127 100 100 c 0,43,44
 127 73 127 73 165 73 c 2,45,-1
 329 73 l 1,46,-1
 336 73 l 1,47,-1
 343 73 l 1,48,-1
 350 73 l 1,49,-1
 356 71 l 1,50,-1
 360 68 l 1,51,-1
 365 62 l 1,52,-1
 366 55 l 2,0,1
896 366 m 0,53,54
 896 351 896 351 885 340 c 2,55,-1
 574 29 l 2,56,57
 563 18 563 18 549 18 c 0,58,59
 534 18 534 18 523 29 c 0,60,61
 512 40 512 40 512 55 c 2,62,-1
 512 219 l 1,63,-1
 256 219 l 2,64,65
 241 219 241 219 230 230 c 0,66,67
 219 241 219 241 219 256 c 2,68,-1
 219 475 l 2,69,70
 219 490 219 490 230 501 c 0,71,72
 241 512 241 512 256 512 c 2,73,-1
 512 512 l 1,74,-1
 512 677 l 2,75,76
 512 692 512 692 523 702 c 0,77,78
 534 713 534 713 549 713 c 0,79,80
 564 713 564 713 574 702 c 2,81,-1
 885 391 l 2,82,83
 896 381 896 381 896 366 c 0,53,54
EndSplineSet
Validated: 1
EndChar

StartChar: uniF08C
Encoding: 138 61580 133
Width: 877
Flags: W
LayerCount: 2
Fore
SplineSet
293 91 m 2,0,-1
 293 457 l 2,1,2
 293 464 293 464 287 470 c 0,3,4
 282 475 282 475 274 475 c 2,5,-1
 165 475 l 2,6,7
 158 475 158 475 152 470 c 0,8,9
 147 465 147 465 146 457 c 2,10,-1
 146 91 l 2,11,12
 146 84 146 84 152 79 c 0,13,14
 157 74 157 74 165 73 c 2,15,-1
 274 73 l 2,16,17
 281 73 281 73 287 79 c 0,18,19
 293 84 293 84 293 91 c 2,0,-1
288 588 m 0,20,21
 288 617 288 617 267 637 c 0,22,23
 247 657 247 657 216 658 c 0,24,25
 187 658 187 658 167 637 c 0,26,27
 147 617 147 617 146 588 c 0,28,29
 146 559 146 559 167 538 c 0,30,31
 187 518 187 518 216 516 c 0,32,33
 246 516 246 516 267 538 c 0,34,35
 288 559 288 559 288 588 c 0,20,21
731 91 m 2,36,-1
 731 340 l 2,37,38
 731 413 731 413 689 450 c 0,39,40
 647 488 647 488 573 487 c 0,41,42
 522 487 522 487 483 462 c 0,43,44
 476 458 476 458 475 455 c 1,45,46
 475 475 475 475 456 475 c 2,47,-1
 355 475 l 2,48,49
 347 475 347 475 338 471 c 0,50,51
 329 467 329 467 329 460 c 2,52,-1
 329 91 l 2,53,54
 329 84 329 84 338 79 c 0,55,56
 347 74 347 74 355 73 c 2,57,-1
 459 73 l 2,58,59
 466 73 466 73 471 79 c 0,60,61
 476 84 476 84 475 91 c 2,62,-1
 475 291 l 2,63,64
 475 371 475 371 541 371 c 0,65,66
 569 371 569 371 577 358 c 0,67,68
 585 345 585 345 585 316 c 2,69,-1
 585 91 l 2,70,71
 585 84 585 84 592 79 c 0,72,73
 599 74 599 74 607 73 c 2,74,-1
 713 73 l 2,75,76
 720 73 720 73 726 79 c 0,77,78
 731 84 731 84 731 91 c 2,36,-1
878 640 m 2,79,-1
 878 91 l 2,80,81
 878 23 878 23 829 -25 c 0,82,83
 781 -73 781 -73 713 -73 c 2,84,-1
 165 -73 l 2,85,86
 97 -73 97 -73 48 -25 c 0,87,88
 0 23 0 23 0 91 c 2,89,-1
 0 640 l 2,90,91
 0 708 0 708 48 757 c 0,92,93
 96 805 96 805 165 805 c 2,94,-1
 713 805 l 2,95,96
 781 805 781 805 829 757 c 0,97,98
 878 708 878 708 878 640 c 2,79,-1
EndSplineSet
Validated: 33
EndChar

